<?xml version="1.0" standalone="no"?>
<!DOCTYPE svg PUBLIC "-//W3C//DTD SVG 1.1//EN" "http://www.w3.org/Graphics/SVG/1.1/DTD/svg11.dtd" >
<svg xmlns="http://www.w3.org/2000/svg" xmlns:xlink="http://www.w3.org/1999/xlink" version="1.1">
<metadata>
Created by FontForge 20170731 at Sat Oct  8 09:41:34 2022
 By Aleksey,,,
Anita Ju:rgeleit | 2021
</metadata>
<defs>
<font id="Headlines-Bold" horiz-adv-x="2695" vert-adv-y="2048" >
  <font-face 
    font-family="Headlines Bold"
    font-weight="700"
    font-stretch="normal"
    units-per-em="2048"
    panose-1="0 0 0 0 0 0 0 0 0 0"
    ascent="1536"
    descent="-512"
    x-height="1167"
    cap-height="1497"
    bbox="10 -410 2408 1657"
    underline-thickness="102"
    underline-position="-307"
    unicode-range="U+0020-2265"
  />
<missing-glyph horiz-adv-x="2359" 
 />
    <glyph glyph-name=".notdef" horiz-adv-x="2359" 
 />
    <glyph glyph-name=".null" horiz-adv-x="0" vert-adv-y="0" 
 />
    <glyph glyph-name="nonmarkingreturn" horiz-adv-x="682" 
 />
    <glyph glyph-name="space" unicode=" " horiz-adv-x="276" vert-adv-y="2457" 
 />
    <glyph glyph-name="exclam" unicode="!" horiz-adv-x="479" 
d="M92 397l-20 1100h336l-21 -1100h-295zM88 0v311h309v-311h-309z" />
    <glyph glyph-name="quotedbl" unicode="&#x22;" 
d="M1868 1194l141 27v-105l-256 -49v543l256 47v-105l-141 -26v-113l133 27l-2 -94l-131 -25v-127zM1559 1235l-54 -8v-211l-114 -21v543l135 29q87 17 128 -7.5t50 -97.5q8 -99 -24 -154t-121 -73zM924 903l-111 -20v438l-82 -16v102l346 68l88 -224l76 258l123 23
l-137 -397v-172l-115 -21v176l-102 242l-86 -19v-438zM1532 1479l-29 -4v-160l37 6q63 11 49 119q-5 45 -57 39zM1905 637l-9 399l121 25l-8 -406zM1726 453q-62 -11 -99.5 7.5t-45.5 57.5q-3 39 0 84l100 21q0 -42 2 -50q5 -23 39 -20q30 6 27 41q-1 13 -10 28t-17.5 24.5
t-33.5 35.5l-43 39q-40 37 -54.5 70.5t-13.5 82.5q3 109 123 132q58 11 98.5 -4t50.5 -62q4 -40 2 -63l-102 -21q0 32 -8.5 44.5t-30.5 8.5q-25 -5 -22 -35q0 -6 1 -10.5t2 -8.5t4 -8.5t5 -7t8 -8.5l9.5 -9.5l13 -13t16.5 -15.5l37 -39q36 -36 53 -67.5t21 -74.5
q3 -72 -27 -106.5t-105 -52.5zM1415 942l109 21v-89l-109 -24v92zM1241 588l-76 -15v-223l-112 -20v540l112 25l-2 -219l78 16l4 215l111 23v-541l-115 -22v221zM926 743v-438l-113 -20v436l-80 -16v104l273 53v-104zM1415 809l109 18v-405l-109 -23v410zM1905 588l108 22
l-2 -96l-106 -20v94zM1937 262h68v-59h-68v59zM473 156v-121q0 -54 -21.5 -77.5t-82.5 -23.5h-82v318h82q62 0 83 -22t21 -74zM1434 252l-66 -318h-68l-65 318h72l10 -55q7 -44 18 -131q2 29 19 131l10 55h70zM356 201v-215h9q21 0 29 10.5t7 36.5v123q0 25 -7.5 35
t-26.5 10h-11zM602 20h64v-20q0 -35 -19.5 -51.5t-64.5 -16.5q-50 0 -66 19.5t-16 71.5v67q0 55 17 74.5t67 19.5q51 0 66.5 -21t15.5 -77v-43h-99v-35q0 -17 3 -21.5t12 -4.5q20 0 20 22v16zM760 127v-193h-68v248h56l6 -16q34 18 61 18q28 0 37 -18q38 18 63 18
q26 0 36 -13t10 -52v-185h-66v175q0 22 -12 22q-5 0 -21 -4v-193h-65v175q0 22 -15 22q-6 0 -22 -4zM1075 -68q-53 0 -69.5 25.5t-16.5 93.5v19q0 66 17.5 90t68.5 24q53 0 69.5 -24.5t16.5 -89.5v-19q0 -69 -17 -94t-69 -25zM1513 184q53 0 67.5 -20.5t14.5 -77.5v-43h-100
v-35q0 -17 3.5 -21.5t14.5 -4.5q19 0 19 22v16h63v-20q0 -35 -19 -51.5t-65 -16.5q-50 0 -65.5 19.5t-15.5 71.5v67q0 56 16 75t67 19zM1681 182l5 -24q23 26 45 26v-65q-14 0 -41 -10v-175h-66v248h57zM1915 4v-2q0 -34 -22 -52t-62 -18q-42 0 -62 18.5t-20 61.5v8h59v-6
q0 -30 23 -30q20 0 20 18q0 14 -20 23l-37 20q-45 25 -45 68v2q0 69 78 69q84 0 84 -80v-6h-60v2q0 19 -4 26t-16 7q-16 0 -16 -14q0 -20 20 -31l35 -18q45 -22 45 -66zM2120 -68q-55 0 -71.5 25.5t-16.5 93.5v19q0 66 17.5 90t70.5 24t68.5 -24t15.5 -90v-19
q0 -69 -16.5 -94t-67.5 -25zM2300 127v-193h-68v248h58l2 -16q38 18 61 18q25 0 36 -13.5t11 -51.5v-185h-67v175q0 22 -13 22q-4 0 -20 -4zM2005 -66h-68v248h68v-248zM567 115v-29h35v29q0 22 -18 22q-17 0 -17 -22zM1495 86h37v29q0 22 -16 22q-21 0 -21 -22v-29z
M1057 98v-82q0 -17 4 -23.5t14 -6.5q12 0 15.5 6.5t3.5 25.5v80q0 19 -3.5 26t-15.5 7q-10 0 -14 -7t-4 -26zM2099 98v-82q0 -17 4.5 -23.5t16.5 -6.5t15 6t3 26v80q0 20 -3 26.5t-15 6.5t-16.5 -7t-4.5 -26zM1499 -178q16 0 22.5 -9t6.5 -34v-117h-41v111q0 14 -8 14
q-3 0 -7.5 -1t-7.5 -1v-123h-43v209h41v-59q23 10 37 10zM1589 -168h-43v39h43v-39zM2177 -186v57h45v-209h-37l-4 10q-22 -12 -37 -12q-18 0 -25.5 10t-7.5 37v60q0 33 8 44t27 11q11 0 31 -8zM2279 -168h-41v39h41v-39zM893 -158h45v-22h16v-33h-16v-78v-7.5t1 -5t3 -3
t6 -0.5h6v-31h-20q-28 0 -34.5 11t-6.5 46v68h-12v33h12v22zM1348 -158h41v-22h18v-33h-18v-78q0 -16 12 -16h6v-31h-21q-27 0 -32.5 10.5t-5.5 46.5v68h-13v33h13v22zM1913 -158h43v-22h18v-33h-18v-78v-7.5t1 -5t3 -3t6 -0.5h8v-31h-22q-15 0 -22.5 2.5t-11.5 10.5
t-4.5 16t-0.5 28v68h-12v33h12v22zM1167 -178q19 0 26 -10.5t7 -38.5v-56q0 -34 -8 -45.5t-25 -11.5q-19 0 -30 8v-59h-45v211h36l2 -10q22 12 37 12zM1272 -178q33 0 43 -14t10 -52v-26h-63v-23v-7.5t1 -5t3 -3t6 -0.5q10 0 10 12v14h43v-14q0 -23 -12 -33t-41 -10
q-34 0 -44.5 12t-10.5 45v41q0 36 11.5 50t43.5 14zM1661 -242l22 -12q29 -13 29 -43q0 -43 -53 -43q-27 0 -40 11t-13 38v8h36v-4q0 -20 17 -20q12 0 12 10t-12 16l-25 13q-28 12 -28 43q0 47 51 47q53 0 53 -53v-2h-39q0 22 -12 22t-12 -10t14 -21zM1839 -242l23 -12
q28 -12 28 -43q0 -43 -55 -43q-27 0 -38 11t-11 38v8h35v-4q0 -20 14 -20q12 0 12 10t-12 16l-20 13q-31 12 -31 43q0 47 49 47q55 0 55 -53v-2h-37q0 22 -16 22q-12 0 -12 -10t16 -21zM2355 -178q33 0 43 -16t10 -58v-10q0 -45 -10.5 -61.5t-42.5 -16.5q-34 0 -44.5 16.5
t-10.5 59.5v12q0 43 10.5 58.5t44.5 15.5zM395 -180l17 -92l10 92h43l-29 -158h-41l-20 88l-17 -88h-43l-28 158h43l10 -92l18 92h37zM580 -180l16 -92l10 92h43l-31 -158h-40l-21 88l-18 -88h-41l-27 158h43l8 -92l17 92h41zM778 -272l10 92h46l-29 -158h-45l-19 88
l-18 -88h-41l-29 158h43l11 -92l16 92h39zM1024 -244l16 64h41l-59 -211h-39l16 53l-38 158h43l10 -66q4 -15 6 -35q4 36 4 37zM1589 -338h-43v158h43v-158zM2052 -303v123h43v-158h-35l-4 8q-17 -10 -39 -10q-30 0 -30 41v119h43v-113q0 -14 8 -14t14 4zM2279 -338h-41v158
h41v-158zM1262 -244h22v19q0 14 -12 14q-10 0 -10 -14v-19zM2177 -303v88q-1 0 -4 1t-6 1q-10 0 -10 -20v-54q0 -20 10 -20q2 0 10 4zM1157 -287v54q0 12 -2 15t-8 3h-10v-90q1 0 4 -1t6 -1q10 0 10 20zM2365 -285v52v9.5t-1 5t-3 3t-6 0.5q-8 0 -10 -3t-2 -15v-52
q0 -22 12 -22q10 0 10 22zM877 -338h-43v41h43v-41zM1767 -338h-41v41h41v-41z" />
    <glyph glyph-name="numbersign" unicode="#" 
d="M1868 1194l141 27v-105l-256 -49v543l256 47v-105l-141 -26v-113l133 27l-2 -94l-131 -25v-127zM1559 1235l-54 -8v-211l-114 -21v543l135 29q87 17 128 -7.5t50 -97.5q8 -99 -24 -154t-121 -73zM924 903l-111 -20v438l-82 -16v102l346 68l88 -224l76 258l123 23
l-137 -397v-172l-115 -21v176l-102 242l-86 -19v-438zM1532 1479l-29 -4v-160l37 6q63 11 49 119q-5 45 -57 39zM1905 637l-9 399l121 25l-8 -406zM1726 453q-62 -11 -99.5 7.5t-45.5 57.5q-3 39 0 84l100 21q0 -42 2 -50q5 -23 39 -20q30 6 27 41q-1 13 -10 28t-17.5 24.5
t-33.5 35.5l-43 39q-40 37 -54.5 70.5t-13.5 82.5q3 109 123 132q58 11 98.5 -4t50.5 -62q4 -40 2 -63l-102 -21q0 32 -8.5 44.5t-30.5 8.5q-25 -5 -22 -35q0 -6 1 -10.5t2 -8.5t4 -8.5t5 -7t8 -8.5l9.5 -9.5l13 -13t16.5 -15.5l37 -39q36 -36 53 -67.5t21 -74.5
q3 -72 -27 -106.5t-105 -52.5zM1415 942l109 21v-89l-109 -24v92zM1241 588l-76 -15v-223l-112 -20v540l112 25l-2 -219l78 16l4 215l111 23v-541l-115 -22v221zM926 743v-438l-113 -20v436l-80 -16v104l273 53v-104zM1415 809l109 18v-405l-109 -23v410zM1905 588l108 22
l-2 -96l-106 -20v94zM1937 262h68v-59h-68v59zM473 156v-121q0 -54 -21.5 -77.5t-82.5 -23.5h-82v318h82q62 0 83 -22t21 -74zM1434 252l-66 -318h-68l-65 318h72l10 -55q7 -44 18 -131q2 29 19 131l10 55h70zM356 201v-215h9q21 0 29 10.5t7 36.5v123q0 25 -7.5 35
t-26.5 10h-11zM602 20h64v-20q0 -35 -19.5 -51.5t-64.5 -16.5q-50 0 -66 19.5t-16 71.5v67q0 55 17 74.5t67 19.5q51 0 66.5 -21t15.5 -77v-43h-99v-35q0 -17 3 -21.5t12 -4.5q20 0 20 22v16zM760 127v-193h-68v248h56l6 -16q34 18 61 18q28 0 37 -18q38 18 63 18
q26 0 36 -13t10 -52v-185h-66v175q0 22 -12 22q-5 0 -21 -4v-193h-65v175q0 22 -15 22q-6 0 -22 -4zM1075 -68q-53 0 -69.5 25.5t-16.5 93.5v19q0 66 17.5 90t68.5 24q53 0 69.5 -24.5t16.5 -89.5v-19q0 -69 -17 -94t-69 -25zM1513 184q53 0 67.5 -20.5t14.5 -77.5v-43h-100
v-35q0 -17 3.5 -21.5t14.5 -4.5q19 0 19 22v16h63v-20q0 -35 -19 -51.5t-65 -16.5q-50 0 -65.5 19.5t-15.5 71.5v67q0 56 16 75t67 19zM1681 182l5 -24q23 26 45 26v-65q-14 0 -41 -10v-175h-66v248h57zM1915 4v-2q0 -34 -22 -52t-62 -18q-42 0 -62 18.5t-20 61.5v8h59v-6
q0 -30 23 -30q20 0 20 18q0 14 -20 23l-37 20q-45 25 -45 68v2q0 69 78 69q84 0 84 -80v-6h-60v2q0 19 -4 26t-16 7q-16 0 -16 -14q0 -20 20 -31l35 -18q45 -22 45 -66zM2120 -68q-55 0 -71.5 25.5t-16.5 93.5v19q0 66 17.5 90t70.5 24t68.5 -24t15.5 -90v-19
q0 -69 -16.5 -94t-67.5 -25zM2300 127v-193h-68v248h58l2 -16q38 18 61 18q25 0 36 -13.5t11 -51.5v-185h-67v175q0 22 -13 22q-4 0 -20 -4zM2005 -66h-68v248h68v-248zM567 115v-29h35v29q0 22 -18 22q-17 0 -17 -22zM1495 86h37v29q0 22 -16 22q-21 0 -21 -22v-29z
M1057 98v-82q0 -17 4 -23.5t14 -6.5q12 0 15.5 6.5t3.5 25.5v80q0 19 -3.5 26t-15.5 7q-10 0 -14 -7t-4 -26zM2099 98v-82q0 -17 4.5 -23.5t16.5 -6.5t15 6t3 26v80q0 20 -3 26.5t-15 6.5t-16.5 -7t-4.5 -26zM1499 -178q16 0 22.5 -9t6.5 -34v-117h-41v111q0 14 -8 14
q-3 0 -7.5 -1t-7.5 -1v-123h-43v209h41v-59q23 10 37 10zM1589 -168h-43v39h43v-39zM2177 -186v57h45v-209h-37l-4 10q-22 -12 -37 -12q-18 0 -25.5 10t-7.5 37v60q0 33 8 44t27 11q11 0 31 -8zM2279 -168h-41v39h41v-39zM893 -158h45v-22h16v-33h-16v-78v-7.5t1 -5t3 -3
t6 -0.5h6v-31h-20q-28 0 -34.5 11t-6.5 46v68h-12v33h12v22zM1348 -158h41v-22h18v-33h-18v-78q0 -16 12 -16h6v-31h-21q-27 0 -32.5 10.5t-5.5 46.5v68h-13v33h13v22zM1913 -158h43v-22h18v-33h-18v-78v-7.5t1 -5t3 -3t6 -0.5h8v-31h-22q-15 0 -22.5 2.5t-11.5 10.5
t-4.5 16t-0.5 28v68h-12v33h12v22zM1167 -178q19 0 26 -10.5t7 -38.5v-56q0 -34 -8 -45.5t-25 -11.5q-19 0 -30 8v-59h-45v211h36l2 -10q22 12 37 12zM1272 -178q33 0 43 -14t10 -52v-26h-63v-23v-7.5t1 -5t3 -3t6 -0.5q10 0 10 12v14h43v-14q0 -23 -12 -33t-41 -10
q-34 0 -44.5 12t-10.5 45v41q0 36 11.5 50t43.5 14zM1661 -242l22 -12q29 -13 29 -43q0 -43 -53 -43q-27 0 -40 11t-13 38v8h36v-4q0 -20 17 -20q12 0 12 10t-12 16l-25 13q-28 12 -28 43q0 47 51 47q53 0 53 -53v-2h-39q0 22 -12 22t-12 -10t14 -21zM1839 -242l23 -12
q28 -12 28 -43q0 -43 -55 -43q-27 0 -38 11t-11 38v8h35v-4q0 -20 14 -20q12 0 12 10t-12 16l-20 13q-31 12 -31 43q0 47 49 47q55 0 55 -53v-2h-37q0 22 -16 22q-12 0 -12 -10t16 -21zM2355 -178q33 0 43 -16t10 -58v-10q0 -45 -10.5 -61.5t-42.5 -16.5q-34 0 -44.5 16.5
t-10.5 59.5v12q0 43 10.5 58.5t44.5 15.5zM395 -180l17 -92l10 92h43l-29 -158h-41l-20 88l-17 -88h-43l-28 158h43l10 -92l18 92h37zM580 -180l16 -92l10 92h43l-31 -158h-40l-21 88l-18 -88h-41l-27 158h43l8 -92l17 92h41zM778 -272l10 92h46l-29 -158h-45l-19 88
l-18 -88h-41l-29 158h43l11 -92l16 92h39zM1024 -244l16 64h41l-59 -211h-39l16 53l-38 158h43l10 -66q4 -15 6 -35q4 36 4 37zM1589 -338h-43v158h43v-158zM2052 -303v123h43v-158h-35l-4 8q-17 -10 -39 -10q-30 0 -30 41v119h43v-113q0 -14 8 -14t14 4zM2279 -338h-41v158
h41v-158zM1262 -244h22v19q0 14 -12 14q-10 0 -10 -14v-19zM2177 -303v88q-1 0 -4 1t-6 1q-10 0 -10 -20v-54q0 -20 10 -20q2 0 10 4zM1157 -287v54q0 12 -2 15t-8 3h-10v-90q1 0 4 -1t6 -1q10 0 10 20zM2365 -285v52v9.5t-1 5t-3 3t-6 0.5q-8 0 -10 -3t-2 -15v-52
q0 -22 12 -22q10 0 10 22zM877 -338h-43v41h43v-41zM1767 -338h-41v41h41v-41z" />
    <glyph glyph-name="dollar" unicode="$" 
d="M1868 1194l141 27v-105l-256 -49v543l256 47v-105l-141 -26v-113l133 27l-2 -94l-131 -25v-127zM1559 1235l-54 -8v-211l-114 -21v543l135 29q87 17 128 -7.5t50 -97.5q8 -99 -24 -154t-121 -73zM924 903l-111 -20v438l-82 -16v102l346 68l88 -224l76 258l123 23
l-137 -397v-172l-115 -21v176l-102 242l-86 -19v-438zM1532 1479l-29 -4v-160l37 6q63 11 49 119q-5 45 -57 39zM1905 637l-9 399l121 25l-8 -406zM1726 453q-62 -11 -99.5 7.5t-45.5 57.5q-3 39 0 84l100 21q0 -42 2 -50q5 -23 39 -20q30 6 27 41q-1 13 -10 28t-17.5 24.5
t-33.5 35.5l-43 39q-40 37 -54.5 70.5t-13.5 82.5q3 109 123 132q58 11 98.5 -4t50.5 -62q4 -40 2 -63l-102 -21q0 32 -8.5 44.5t-30.5 8.5q-25 -5 -22 -35q0 -6 1 -10.5t2 -8.5t4 -8.5t5 -7t8 -8.5l9.5 -9.5l13 -13t16.5 -15.5l37 -39q36 -36 53 -67.5t21 -74.5
q3 -72 -27 -106.5t-105 -52.5zM1415 942l109 21v-89l-109 -24v92zM1241 588l-76 -15v-223l-112 -20v540l112 25l-2 -219l78 16l4 215l111 23v-541l-115 -22v221zM926 743v-438l-113 -20v436l-80 -16v104l273 53v-104zM1415 809l109 18v-405l-109 -23v410zM1905 588l108 22
l-2 -96l-106 -20v94zM1937 262h68v-59h-68v59zM473 156v-121q0 -54 -21.5 -77.5t-82.5 -23.5h-82v318h82q62 0 83 -22t21 -74zM1434 252l-66 -318h-68l-65 318h72l10 -55q7 -44 18 -131q2 29 19 131l10 55h70zM356 201v-215h9q21 0 29 10.5t7 36.5v123q0 25 -7.5 35
t-26.5 10h-11zM602 20h64v-20q0 -35 -19.5 -51.5t-64.5 -16.5q-50 0 -66 19.5t-16 71.5v67q0 55 17 74.5t67 19.5q51 0 66.5 -21t15.5 -77v-43h-99v-35q0 -17 3 -21.5t12 -4.5q20 0 20 22v16zM760 127v-193h-68v248h56l6 -16q34 18 61 18q28 0 37 -18q38 18 63 18
q26 0 36 -13t10 -52v-185h-66v175q0 22 -12 22q-5 0 -21 -4v-193h-65v175q0 22 -15 22q-6 0 -22 -4zM1075 -68q-53 0 -69.5 25.5t-16.5 93.5v19q0 66 17.5 90t68.5 24q53 0 69.5 -24.5t16.5 -89.5v-19q0 -69 -17 -94t-69 -25zM1513 184q53 0 67.5 -20.5t14.5 -77.5v-43h-100
v-35q0 -17 3.5 -21.5t14.5 -4.5q19 0 19 22v16h63v-20q0 -35 -19 -51.5t-65 -16.5q-50 0 -65.5 19.5t-15.5 71.5v67q0 56 16 75t67 19zM1681 182l5 -24q23 26 45 26v-65q-14 0 -41 -10v-175h-66v248h57zM1915 4v-2q0 -34 -22 -52t-62 -18q-42 0 -62 18.5t-20 61.5v8h59v-6
q0 -30 23 -30q20 0 20 18q0 14 -20 23l-37 20q-45 25 -45 68v2q0 69 78 69q84 0 84 -80v-6h-60v2q0 19 -4 26t-16 7q-16 0 -16 -14q0 -20 20 -31l35 -18q45 -22 45 -66zM2120 -68q-55 0 -71.5 25.5t-16.5 93.5v19q0 66 17.5 90t70.5 24t68.5 -24t15.5 -90v-19
q0 -69 -16.5 -94t-67.5 -25zM2300 127v-193h-68v248h58l2 -16q38 18 61 18q25 0 36 -13.5t11 -51.5v-185h-67v175q0 22 -13 22q-4 0 -20 -4zM2005 -66h-68v248h68v-248zM567 115v-29h35v29q0 22 -18 22q-17 0 -17 -22zM1495 86h37v29q0 22 -16 22q-21 0 -21 -22v-29z
M1057 98v-82q0 -17 4 -23.5t14 -6.5q12 0 15.5 6.5t3.5 25.5v80q0 19 -3.5 26t-15.5 7q-10 0 -14 -7t-4 -26zM2099 98v-82q0 -17 4.5 -23.5t16.5 -6.5t15 6t3 26v80q0 20 -3 26.5t-15 6.5t-16.5 -7t-4.5 -26zM1499 -178q16 0 22.5 -9t6.5 -34v-117h-41v111q0 14 -8 14
q-3 0 -7.5 -1t-7.5 -1v-123h-43v209h41v-59q23 10 37 10zM1589 -168h-43v39h43v-39zM2177 -186v57h45v-209h-37l-4 10q-22 -12 -37 -12q-18 0 -25.5 10t-7.5 37v60q0 33 8 44t27 11q11 0 31 -8zM2279 -168h-41v39h41v-39zM893 -158h45v-22h16v-33h-16v-78v-7.5t1 -5t3 -3
t6 -0.5h6v-31h-20q-28 0 -34.5 11t-6.5 46v68h-12v33h12v22zM1348 -158h41v-22h18v-33h-18v-78q0 -16 12 -16h6v-31h-21q-27 0 -32.5 10.5t-5.5 46.5v68h-13v33h13v22zM1913 -158h43v-22h18v-33h-18v-78v-7.5t1 -5t3 -3t6 -0.5h8v-31h-22q-15 0 -22.5 2.5t-11.5 10.5
t-4.5 16t-0.5 28v68h-12v33h12v22zM1167 -178q19 0 26 -10.5t7 -38.5v-56q0 -34 -8 -45.5t-25 -11.5q-19 0 -30 8v-59h-45v211h36l2 -10q22 12 37 12zM1272 -178q33 0 43 -14t10 -52v-26h-63v-23v-7.5t1 -5t3 -3t6 -0.5q10 0 10 12v14h43v-14q0 -23 -12 -33t-41 -10
q-34 0 -44.5 12t-10.5 45v41q0 36 11.5 50t43.5 14zM1661 -242l22 -12q29 -13 29 -43q0 -43 -53 -43q-27 0 -40 11t-13 38v8h36v-4q0 -20 17 -20q12 0 12 10t-12 16l-25 13q-28 12 -28 43q0 47 51 47q53 0 53 -53v-2h-39q0 22 -12 22t-12 -10t14 -21zM1839 -242l23 -12
q28 -12 28 -43q0 -43 -55 -43q-27 0 -38 11t-11 38v8h35v-4q0 -20 14 -20q12 0 12 10t-12 16l-20 13q-31 12 -31 43q0 47 49 47q55 0 55 -53v-2h-37q0 22 -16 22q-12 0 -12 -10t16 -21zM2355 -178q33 0 43 -16t10 -58v-10q0 -45 -10.5 -61.5t-42.5 -16.5q-34 0 -44.5 16.5
t-10.5 59.5v12q0 43 10.5 58.5t44.5 15.5zM395 -180l17 -92l10 92h43l-29 -158h-41l-20 88l-17 -88h-43l-28 158h43l10 -92l18 92h37zM580 -180l16 -92l10 92h43l-31 -158h-40l-21 88l-18 -88h-41l-27 158h43l8 -92l17 92h41zM778 -272l10 92h46l-29 -158h-45l-19 88
l-18 -88h-41l-29 158h43l11 -92l16 92h39zM1024 -244l16 64h41l-59 -211h-39l16 53l-38 158h43l10 -66q4 -15 6 -35q4 36 4 37zM1589 -338h-43v158h43v-158zM2052 -303v123h43v-158h-35l-4 8q-17 -10 -39 -10q-30 0 -30 41v119h43v-113q0 -14 8 -14t14 4zM2279 -338h-41v158
h41v-158zM1262 -244h22v19q0 14 -12 14q-10 0 -10 -14v-19zM2177 -303v88q-1 0 -4 1t-6 1q-10 0 -10 -20v-54q0 -20 10 -20q2 0 10 4zM1157 -287v54q0 12 -2 15t-8 3h-10v-90q1 0 4 -1t6 -1q10 0 10 20zM2365 -285v52v9.5t-1 5t-3 3t-6 0.5q-8 0 -10 -3t-2 -15v-52
q0 -22 12 -22q10 0 10 22zM877 -338h-43v41h43v-41zM1767 -338h-41v41h41v-41z" />
    <glyph glyph-name="percent" unicode="%" 
d="M1868 1194l141 27v-105l-256 -49v543l256 47v-105l-141 -26v-113l133 27l-2 -94l-131 -25v-127zM1559 1235l-54 -8v-211l-114 -21v543l135 29q87 17 128 -7.5t50 -97.5q8 -99 -24 -154t-121 -73zM924 903l-111 -20v438l-82 -16v102l346 68l88 -224l76 258l123 23
l-137 -397v-172l-115 -21v176l-102 242l-86 -19v-438zM1532 1479l-29 -4v-160l37 6q63 11 49 119q-5 45 -57 39zM1905 637l-9 399l121 25l-8 -406zM1726 453q-62 -11 -99.5 7.5t-45.5 57.5q-3 39 0 84l100 21q0 -42 2 -50q5 -23 39 -20q30 6 27 41q-1 13 -10 28t-17.5 24.5
t-33.5 35.5l-43 39q-40 37 -54.5 70.5t-13.5 82.5q3 109 123 132q58 11 98.5 -4t50.5 -62q4 -40 2 -63l-102 -21q0 32 -8.5 44.5t-30.5 8.5q-25 -5 -22 -35q0 -6 1 -10.5t2 -8.5t4 -8.5t5 -7t8 -8.5l9.5 -9.5l13 -13t16.5 -15.5l37 -39q36 -36 53 -67.5t21 -74.5
q3 -72 -27 -106.5t-105 -52.5zM1415 942l109 21v-89l-109 -24v92zM1241 588l-76 -15v-223l-112 -20v540l112 25l-2 -219l78 16l4 215l111 23v-541l-115 -22v221zM926 743v-438l-113 -20v436l-80 -16v104l273 53v-104zM1415 809l109 18v-405l-109 -23v410zM1905 588l108 22
l-2 -96l-106 -20v94zM1937 262h68v-59h-68v59zM473 156v-121q0 -54 -21.5 -77.5t-82.5 -23.5h-82v318h82q62 0 83 -22t21 -74zM1434 252l-66 -318h-68l-65 318h72l10 -55q7 -44 18 -131q2 29 19 131l10 55h70zM356 201v-215h9q21 0 29 10.5t7 36.5v123q0 25 -7.5 35
t-26.5 10h-11zM602 20h64v-20q0 -35 -19.5 -51.5t-64.5 -16.5q-50 0 -66 19.5t-16 71.5v67q0 55 17 74.5t67 19.5q51 0 66.5 -21t15.5 -77v-43h-99v-35q0 -17 3 -21.5t12 -4.5q20 0 20 22v16zM760 127v-193h-68v248h56l6 -16q34 18 61 18q28 0 37 -18q38 18 63 18
q26 0 36 -13t10 -52v-185h-66v175q0 22 -12 22q-5 0 -21 -4v-193h-65v175q0 22 -15 22q-6 0 -22 -4zM1075 -68q-53 0 -69.5 25.5t-16.5 93.5v19q0 66 17.5 90t68.5 24q53 0 69.5 -24.5t16.5 -89.5v-19q0 -69 -17 -94t-69 -25zM1513 184q53 0 67.5 -20.5t14.5 -77.5v-43h-100
v-35q0 -17 3.5 -21.5t14.5 -4.5q19 0 19 22v16h63v-20q0 -35 -19 -51.5t-65 -16.5q-50 0 -65.5 19.5t-15.5 71.5v67q0 56 16 75t67 19zM1681 182l5 -24q23 26 45 26v-65q-14 0 -41 -10v-175h-66v248h57zM1915 4v-2q0 -34 -22 -52t-62 -18q-42 0 -62 18.5t-20 61.5v8h59v-6
q0 -30 23 -30q20 0 20 18q0 14 -20 23l-37 20q-45 25 -45 68v2q0 69 78 69q84 0 84 -80v-6h-60v2q0 19 -4 26t-16 7q-16 0 -16 -14q0 -20 20 -31l35 -18q45 -22 45 -66zM2120 -68q-55 0 -71.5 25.5t-16.5 93.5v19q0 66 17.5 90t70.5 24t68.5 -24t15.5 -90v-19
q0 -69 -16.5 -94t-67.5 -25zM2300 127v-193h-68v248h58l2 -16q38 18 61 18q25 0 36 -13.5t11 -51.5v-185h-67v175q0 22 -13 22q-4 0 -20 -4zM2005 -66h-68v248h68v-248zM567 115v-29h35v29q0 22 -18 22q-17 0 -17 -22zM1495 86h37v29q0 22 -16 22q-21 0 -21 -22v-29z
M1057 98v-82q0 -17 4 -23.5t14 -6.5q12 0 15.5 6.5t3.5 25.5v80q0 19 -3.5 26t-15.5 7q-10 0 -14 -7t-4 -26zM2099 98v-82q0 -17 4.5 -23.5t16.5 -6.5t15 6t3 26v80q0 20 -3 26.5t-15 6.5t-16.5 -7t-4.5 -26zM1499 -178q16 0 22.5 -9t6.5 -34v-117h-41v111q0 14 -8 14
q-3 0 -7.5 -1t-7.5 -1v-123h-43v209h41v-59q23 10 37 10zM1589 -168h-43v39h43v-39zM2177 -186v57h45v-209h-37l-4 10q-22 -12 -37 -12q-18 0 -25.5 10t-7.5 37v60q0 33 8 44t27 11q11 0 31 -8zM2279 -168h-41v39h41v-39zM893 -158h45v-22h16v-33h-16v-78v-7.5t1 -5t3 -3
t6 -0.5h6v-31h-20q-28 0 -34.5 11t-6.5 46v68h-12v33h12v22zM1348 -158h41v-22h18v-33h-18v-78q0 -16 12 -16h6v-31h-21q-27 0 -32.5 10.5t-5.5 46.5v68h-13v33h13v22zM1913 -158h43v-22h18v-33h-18v-78v-7.5t1 -5t3 -3t6 -0.5h8v-31h-22q-15 0 -22.5 2.5t-11.5 10.5
t-4.5 16t-0.5 28v68h-12v33h12v22zM1167 -178q19 0 26 -10.5t7 -38.5v-56q0 -34 -8 -45.5t-25 -11.5q-19 0 -30 8v-59h-45v211h36l2 -10q22 12 37 12zM1272 -178q33 0 43 -14t10 -52v-26h-63v-23v-7.5t1 -5t3 -3t6 -0.5q10 0 10 12v14h43v-14q0 -23 -12 -33t-41 -10
q-34 0 -44.5 12t-10.5 45v41q0 36 11.5 50t43.5 14zM1661 -242l22 -12q29 -13 29 -43q0 -43 -53 -43q-27 0 -40 11t-13 38v8h36v-4q0 -20 17 -20q12 0 12 10t-12 16l-25 13q-28 12 -28 43q0 47 51 47q53 0 53 -53v-2h-39q0 22 -12 22t-12 -10t14 -21zM1839 -242l23 -12
q28 -12 28 -43q0 -43 -55 -43q-27 0 -38 11t-11 38v8h35v-4q0 -20 14 -20q12 0 12 10t-12 16l-20 13q-31 12 -31 43q0 47 49 47q55 0 55 -53v-2h-37q0 22 -16 22q-12 0 -12 -10t16 -21zM2355 -178q33 0 43 -16t10 -58v-10q0 -45 -10.5 -61.5t-42.5 -16.5q-34 0 -44.5 16.5
t-10.5 59.5v12q0 43 10.5 58.5t44.5 15.5zM395 -180l17 -92l10 92h43l-29 -158h-41l-20 88l-17 -88h-43l-28 158h43l10 -92l18 92h37zM580 -180l16 -92l10 92h43l-31 -158h-40l-21 88l-18 -88h-41l-27 158h43l8 -92l17 92h41zM778 -272l10 92h46l-29 -158h-45l-19 88
l-18 -88h-41l-29 158h43l11 -92l16 92h39zM1024 -244l16 64h41l-59 -211h-39l16 53l-38 158h43l10 -66q4 -15 6 -35q4 36 4 37zM1589 -338h-43v158h43v-158zM2052 -303v123h43v-158h-35l-4 8q-17 -10 -39 -10q-30 0 -30 41v119h43v-113q0 -14 8 -14t14 4zM2279 -338h-41v158
h41v-158zM1262 -244h22v19q0 14 -12 14q-10 0 -10 -14v-19zM2177 -303v88q-1 0 -4 1t-6 1q-10 0 -10 -20v-54q0 -20 10 -20q2 0 10 4zM1157 -287v54q0 12 -2 15t-8 3h-10v-90q1 0 4 -1t6 -1q10 0 10 20zM2365 -285v52v9.5t-1 5t-3 3t-6 0.5q-8 0 -10 -3t-2 -15v-52
q0 -22 12 -22q10 0 10 22zM877 -338h-43v41h43v-41zM1767 -338h-41v41h41v-41z" />
    <glyph glyph-name="ampersand" unicode="&#x26;" 
d="M1868 1194l141 27v-105l-256 -49v543l256 47v-105l-141 -26v-113l133 27l-2 -94l-131 -25v-127zM1559 1235l-54 -8v-211l-114 -21v543l135 29q87 17 128 -7.5t50 -97.5q8 -99 -24 -154t-121 -73zM924 903l-111 -20v438l-82 -16v102l346 68l88 -224l76 258l123 23
l-137 -397v-172l-115 -21v176l-102 242l-86 -19v-438zM1532 1479l-29 -4v-160l37 6q63 11 49 119q-5 45 -57 39zM1905 637l-9 399l121 25l-8 -406zM1726 453q-62 -11 -99.5 7.5t-45.5 57.5q-3 39 0 84l100 21q0 -42 2 -50q5 -23 39 -20q30 6 27 41q-1 13 -10 28t-17.5 24.5
t-33.5 35.5l-43 39q-40 37 -54.5 70.5t-13.5 82.5q3 109 123 132q58 11 98.5 -4t50.5 -62q4 -40 2 -63l-102 -21q0 32 -8.5 44.5t-30.5 8.5q-25 -5 -22 -35q0 -6 1 -10.5t2 -8.5t4 -8.5t5 -7t8 -8.5l9.5 -9.5l13 -13t16.5 -15.5l37 -39q36 -36 53 -67.5t21 -74.5
q3 -72 -27 -106.5t-105 -52.5zM1415 942l109 21v-89l-109 -24v92zM1241 588l-76 -15v-223l-112 -20v540l112 25l-2 -219l78 16l4 215l111 23v-541l-115 -22v221zM926 743v-438l-113 -20v436l-80 -16v104l273 53v-104zM1415 809l109 18v-405l-109 -23v410zM1905 588l108 22
l-2 -96l-106 -20v94zM1937 262h68v-59h-68v59zM473 156v-121q0 -54 -21.5 -77.5t-82.5 -23.5h-82v318h82q62 0 83 -22t21 -74zM1434 252l-66 -318h-68l-65 318h72l10 -55q7 -44 18 -131q2 29 19 131l10 55h70zM356 201v-215h9q21 0 29 10.5t7 36.5v123q0 25 -7.5 35
t-26.5 10h-11zM602 20h64v-20q0 -35 -19.5 -51.5t-64.5 -16.5q-50 0 -66 19.5t-16 71.5v67q0 55 17 74.5t67 19.5q51 0 66.5 -21t15.5 -77v-43h-99v-35q0 -17 3 -21.5t12 -4.5q20 0 20 22v16zM760 127v-193h-68v248h56l6 -16q34 18 61 18q28 0 37 -18q38 18 63 18
q26 0 36 -13t10 -52v-185h-66v175q0 22 -12 22q-5 0 -21 -4v-193h-65v175q0 22 -15 22q-6 0 -22 -4zM1075 -68q-53 0 -69.5 25.5t-16.5 93.5v19q0 66 17.5 90t68.5 24q53 0 69.5 -24.5t16.5 -89.5v-19q0 -69 -17 -94t-69 -25zM1513 184q53 0 67.5 -20.5t14.5 -77.5v-43h-100
v-35q0 -17 3.5 -21.5t14.5 -4.5q19 0 19 22v16h63v-20q0 -35 -19 -51.5t-65 -16.5q-50 0 -65.5 19.5t-15.5 71.5v67q0 56 16 75t67 19zM1681 182l5 -24q23 26 45 26v-65q-14 0 -41 -10v-175h-66v248h57zM1915 4v-2q0 -34 -22 -52t-62 -18q-42 0 -62 18.5t-20 61.5v8h59v-6
q0 -30 23 -30q20 0 20 18q0 14 -20 23l-37 20q-45 25 -45 68v2q0 69 78 69q84 0 84 -80v-6h-60v2q0 19 -4 26t-16 7q-16 0 -16 -14q0 -20 20 -31l35 -18q45 -22 45 -66zM2120 -68q-55 0 -71.5 25.5t-16.5 93.5v19q0 66 17.5 90t70.5 24t68.5 -24t15.5 -90v-19
q0 -69 -16.5 -94t-67.5 -25zM2300 127v-193h-68v248h58l2 -16q38 18 61 18q25 0 36 -13.5t11 -51.5v-185h-67v175q0 22 -13 22q-4 0 -20 -4zM2005 -66h-68v248h68v-248zM567 115v-29h35v29q0 22 -18 22q-17 0 -17 -22zM1495 86h37v29q0 22 -16 22q-21 0 -21 -22v-29z
M1057 98v-82q0 -17 4 -23.5t14 -6.5q12 0 15.5 6.5t3.5 25.5v80q0 19 -3.5 26t-15.5 7q-10 0 -14 -7t-4 -26zM2099 98v-82q0 -17 4.5 -23.5t16.5 -6.5t15 6t3 26v80q0 20 -3 26.5t-15 6.5t-16.5 -7t-4.5 -26zM1499 -178q16 0 22.5 -9t6.5 -34v-117h-41v111q0 14 -8 14
q-3 0 -7.5 -1t-7.5 -1v-123h-43v209h41v-59q23 10 37 10zM1589 -168h-43v39h43v-39zM2177 -186v57h45v-209h-37l-4 10q-22 -12 -37 -12q-18 0 -25.5 10t-7.5 37v60q0 33 8 44t27 11q11 0 31 -8zM2279 -168h-41v39h41v-39zM893 -158h45v-22h16v-33h-16v-78v-7.5t1 -5t3 -3
t6 -0.5h6v-31h-20q-28 0 -34.5 11t-6.5 46v68h-12v33h12v22zM1348 -158h41v-22h18v-33h-18v-78q0 -16 12 -16h6v-31h-21q-27 0 -32.5 10.5t-5.5 46.5v68h-13v33h13v22zM1913 -158h43v-22h18v-33h-18v-78v-7.5t1 -5t3 -3t6 -0.5h8v-31h-22q-15 0 -22.5 2.5t-11.5 10.5
t-4.5 16t-0.5 28v68h-12v33h12v22zM1167 -178q19 0 26 -10.5t7 -38.5v-56q0 -34 -8 -45.5t-25 -11.5q-19 0 -30 8v-59h-45v211h36l2 -10q22 12 37 12zM1272 -178q33 0 43 -14t10 -52v-26h-63v-23v-7.5t1 -5t3 -3t6 -0.5q10 0 10 12v14h43v-14q0 -23 -12 -33t-41 -10
q-34 0 -44.5 12t-10.5 45v41q0 36 11.5 50t43.5 14zM1661 -242l22 -12q29 -13 29 -43q0 -43 -53 -43q-27 0 -40 11t-13 38v8h36v-4q0 -20 17 -20q12 0 12 10t-12 16l-25 13q-28 12 -28 43q0 47 51 47q53 0 53 -53v-2h-39q0 22 -12 22t-12 -10t14 -21zM1839 -242l23 -12
q28 -12 28 -43q0 -43 -55 -43q-27 0 -38 11t-11 38v8h35v-4q0 -20 14 -20q12 0 12 10t-12 16l-20 13q-31 12 -31 43q0 47 49 47q55 0 55 -53v-2h-37q0 22 -16 22q-12 0 -12 -10t16 -21zM2355 -178q33 0 43 -16t10 -58v-10q0 -45 -10.5 -61.5t-42.5 -16.5q-34 0 -44.5 16.5
t-10.5 59.5v12q0 43 10.5 58.5t44.5 15.5zM395 -180l17 -92l10 92h43l-29 -158h-41l-20 88l-17 -88h-43l-28 158h43l10 -92l18 92h37zM580 -180l16 -92l10 92h43l-31 -158h-40l-21 88l-18 -88h-41l-27 158h43l8 -92l17 92h41zM778 -272l10 92h46l-29 -158h-45l-19 88
l-18 -88h-41l-29 158h43l11 -92l16 92h39zM1024 -244l16 64h41l-59 -211h-39l16 53l-38 158h43l10 -66q4 -15 6 -35q4 36 4 37zM1589 -338h-43v158h43v-158zM2052 -303v123h43v-158h-35l-4 8q-17 -10 -39 -10q-30 0 -30 41v119h43v-113q0 -14 8 -14t14 4zM2279 -338h-41v158
h41v-158zM1262 -244h22v19q0 14 -12 14q-10 0 -10 -14v-19zM2177 -303v88q-1 0 -4 1t-6 1q-10 0 -10 -20v-54q0 -20 10 -20q2 0 10 4zM1157 -287v54q0 12 -2 15t-8 3h-10v-90q1 0 4 -1t6 -1q10 0 10 20zM2365 -285v52v9.5t-1 5t-3 3t-6 0.5q-8 0 -10 -3t-2 -15v-52
q0 -22 12 -22q10 0 10 22zM877 -338h-43v41h43v-41zM1767 -338h-41v41h41v-41z" />
    <glyph glyph-name="quotesingle" unicode="'" 
d="M1868 1194l141 27v-105l-256 -49v543l256 47v-105l-141 -26v-113l133 27l-2 -94l-131 -25v-127zM1559 1235l-54 -8v-211l-114 -21v543l135 29q87 17 128 -7.5t50 -97.5q8 -99 -24 -154t-121 -73zM924 903l-111 -20v438l-82 -16v102l346 68l88 -224l76 258l123 23
l-137 -397v-172l-115 -21v176l-102 242l-86 -19v-438zM1532 1479l-29 -4v-160l37 6q63 11 49 119q-5 45 -57 39zM1905 637l-9 399l121 25l-8 -406zM1726 453q-62 -11 -99.5 7.5t-45.5 57.5q-3 39 0 84l100 21q0 -42 2 -50q5 -23 39 -20q30 6 27 41q-1 13 -10 28t-17.5 24.5
t-33.5 35.5l-43 39q-40 37 -54.5 70.5t-13.5 82.5q3 109 123 132q58 11 98.5 -4t50.5 -62q4 -40 2 -63l-102 -21q0 32 -8.5 44.5t-30.5 8.5q-25 -5 -22 -35q0 -6 1 -10.5t2 -8.5t4 -8.5t5 -7t8 -8.5l9.5 -9.5l13 -13t16.5 -15.5l37 -39q36 -36 53 -67.5t21 -74.5
q3 -72 -27 -106.5t-105 -52.5zM1415 942l109 21v-89l-109 -24v92zM1241 588l-76 -15v-223l-112 -20v540l112 25l-2 -219l78 16l4 215l111 23v-541l-115 -22v221zM926 743v-438l-113 -20v436l-80 -16v104l273 53v-104zM1415 809l109 18v-405l-109 -23v410zM1905 588l108 22
l-2 -96l-106 -20v94zM1937 262h68v-59h-68v59zM473 156v-121q0 -54 -21.5 -77.5t-82.5 -23.5h-82v318h82q62 0 83 -22t21 -74zM1434 252l-66 -318h-68l-65 318h72l10 -55q7 -44 18 -131q2 29 19 131l10 55h70zM356 201v-215h9q21 0 29 10.5t7 36.5v123q0 25 -7.5 35
t-26.5 10h-11zM602 20h64v-20q0 -35 -19.5 -51.5t-64.5 -16.5q-50 0 -66 19.5t-16 71.5v67q0 55 17 74.5t67 19.5q51 0 66.5 -21t15.5 -77v-43h-99v-35q0 -17 3 -21.5t12 -4.5q20 0 20 22v16zM760 127v-193h-68v248h56l6 -16q34 18 61 18q28 0 37 -18q38 18 63 18
q26 0 36 -13t10 -52v-185h-66v175q0 22 -12 22q-5 0 -21 -4v-193h-65v175q0 22 -15 22q-6 0 -22 -4zM1075 -68q-53 0 -69.5 25.5t-16.5 93.5v19q0 66 17.5 90t68.5 24q53 0 69.5 -24.5t16.5 -89.5v-19q0 -69 -17 -94t-69 -25zM1513 184q53 0 67.5 -20.5t14.5 -77.5v-43h-100
v-35q0 -17 3.5 -21.5t14.5 -4.5q19 0 19 22v16h63v-20q0 -35 -19 -51.5t-65 -16.5q-50 0 -65.5 19.5t-15.5 71.5v67q0 56 16 75t67 19zM1681 182l5 -24q23 26 45 26v-65q-14 0 -41 -10v-175h-66v248h57zM1915 4v-2q0 -34 -22 -52t-62 -18q-42 0 -62 18.5t-20 61.5v8h59v-6
q0 -30 23 -30q20 0 20 18q0 14 -20 23l-37 20q-45 25 -45 68v2q0 69 78 69q84 0 84 -80v-6h-60v2q0 19 -4 26t-16 7q-16 0 -16 -14q0 -20 20 -31l35 -18q45 -22 45 -66zM2120 -68q-55 0 -71.5 25.5t-16.5 93.5v19q0 66 17.5 90t70.5 24t68.5 -24t15.5 -90v-19
q0 -69 -16.5 -94t-67.5 -25zM2300 127v-193h-68v248h58l2 -16q38 18 61 18q25 0 36 -13.5t11 -51.5v-185h-67v175q0 22 -13 22q-4 0 -20 -4zM2005 -66h-68v248h68v-248zM567 115v-29h35v29q0 22 -18 22q-17 0 -17 -22zM1495 86h37v29q0 22 -16 22q-21 0 -21 -22v-29z
M1057 98v-82q0 -17 4 -23.5t14 -6.5q12 0 15.5 6.5t3.5 25.5v80q0 19 -3.5 26t-15.5 7q-10 0 -14 -7t-4 -26zM2099 98v-82q0 -17 4.5 -23.5t16.5 -6.5t15 6t3 26v80q0 20 -3 26.5t-15 6.5t-16.5 -7t-4.5 -26zM1499 -178q16 0 22.5 -9t6.5 -34v-117h-41v111q0 14 -8 14
q-3 0 -7.5 -1t-7.5 -1v-123h-43v209h41v-59q23 10 37 10zM1589 -168h-43v39h43v-39zM2177 -186v57h45v-209h-37l-4 10q-22 -12 -37 -12q-18 0 -25.5 10t-7.5 37v60q0 33 8 44t27 11q11 0 31 -8zM2279 -168h-41v39h41v-39zM893 -158h45v-22h16v-33h-16v-78v-7.5t1 -5t3 -3
t6 -0.5h6v-31h-20q-28 0 -34.5 11t-6.5 46v68h-12v33h12v22zM1348 -158h41v-22h18v-33h-18v-78q0 -16 12 -16h6v-31h-21q-27 0 -32.5 10.5t-5.5 46.5v68h-13v33h13v22zM1913 -158h43v-22h18v-33h-18v-78v-7.5t1 -5t3 -3t6 -0.5h8v-31h-22q-15 0 -22.5 2.5t-11.5 10.5
t-4.5 16t-0.5 28v68h-12v33h12v22zM1167 -178q19 0 26 -10.5t7 -38.5v-56q0 -34 -8 -45.5t-25 -11.5q-19 0 -30 8v-59h-45v211h36l2 -10q22 12 37 12zM1272 -178q33 0 43 -14t10 -52v-26h-63v-23v-7.5t1 -5t3 -3t6 -0.5q10 0 10 12v14h43v-14q0 -23 -12 -33t-41 -10
q-34 0 -44.5 12t-10.5 45v41q0 36 11.5 50t43.5 14zM1661 -242l22 -12q29 -13 29 -43q0 -43 -53 -43q-27 0 -40 11t-13 38v8h36v-4q0 -20 17 -20q12 0 12 10t-12 16l-25 13q-28 12 -28 43q0 47 51 47q53 0 53 -53v-2h-39q0 22 -12 22t-12 -10t14 -21zM1839 -242l23 -12
q28 -12 28 -43q0 -43 -55 -43q-27 0 -38 11t-11 38v8h35v-4q0 -20 14 -20q12 0 12 10t-12 16l-20 13q-31 12 -31 43q0 47 49 47q55 0 55 -53v-2h-37q0 22 -16 22q-12 0 -12 -10t16 -21zM2355 -178q33 0 43 -16t10 -58v-10q0 -45 -10.5 -61.5t-42.5 -16.5q-34 0 -44.5 16.5
t-10.5 59.5v12q0 43 10.5 58.5t44.5 15.5zM395 -180l17 -92l10 92h43l-29 -158h-41l-20 88l-17 -88h-43l-28 158h43l10 -92l18 92h37zM580 -180l16 -92l10 92h43l-31 -158h-40l-21 88l-18 -88h-41l-27 158h43l8 -92l17 92h41zM778 -272l10 92h46l-29 -158h-45l-19 88
l-18 -88h-41l-29 158h43l11 -92l16 92h39zM1024 -244l16 64h41l-59 -211h-39l16 53l-38 158h43l10 -66q4 -15 6 -35q4 36 4 37zM1589 -338h-43v158h43v-158zM2052 -303v123h43v-158h-35l-4 8q-17 -10 -39 -10q-30 0 -30 41v119h43v-113q0 -14 8 -14t14 4zM2279 -338h-41v158
h41v-158zM1262 -244h22v19q0 14 -12 14q-10 0 -10 -14v-19zM2177 -303v88q-1 0 -4 1t-6 1q-10 0 -10 -20v-54q0 -20 10 -20q2 0 10 4zM1157 -287v54q0 12 -2 15t-8 3h-10v-90q1 0 4 -1t6 -1q10 0 10 20zM2365 -285v52v9.5t-1 5t-3 3t-6 0.5q-8 0 -10 -3t-2 -15v-52
q0 -22 12 -22q10 0 10 22zM877 -338h-43v41h43v-41zM1767 -338h-41v41h41v-41z" />
    <glyph glyph-name="parenleft" unicode="(" horiz-adv-x="538" 
d="M205 1552h293q-154 -442 -154 -968q0 -527 154 -969h-293q-154 442 -154 969q0 526 154 968z" />
    <glyph glyph-name="parenright" unicode=")" horiz-adv-x="538" 
d="M49 1552h293q154 -442 154 -968q0 -527 -154 -969h-293q154 442 154 969q0 526 -154 968z" />
    <glyph glyph-name="asterisk" unicode="*" horiz-adv-x="899" 
d="M272 1079l-221 -32v243l213 -33l-141 175l244 92l79 -172l78 172l244 -92l-160 -179l240 37v-243l-248 36l168 -186l-244 -92l-78 170l-79 -170l-244 92z" />
    <glyph glyph-name="plus" unicode="+" 
d="M1868 1194l141 27v-105l-256 -49v543l256 47v-105l-141 -26v-113l133 27l-2 -94l-131 -25v-127zM1559 1235l-54 -8v-211l-114 -21v543l135 29q87 17 128 -7.5t50 -97.5q8 -99 -24 -154t-121 -73zM924 903l-111 -20v438l-82 -16v102l346 68l88 -224l76 258l123 23
l-137 -397v-172l-115 -21v176l-102 242l-86 -19v-438zM1532 1479l-29 -4v-160l37 6q63 11 49 119q-5 45 -57 39zM1905 637l-9 399l121 25l-8 -406zM1726 453q-62 -11 -99.5 7.5t-45.5 57.5q-3 39 0 84l100 21q0 -42 2 -50q5 -23 39 -20q30 6 27 41q-1 13 -10 28t-17.5 24.5
t-33.5 35.5l-43 39q-40 37 -54.5 70.5t-13.5 82.5q3 109 123 132q58 11 98.5 -4t50.5 -62q4 -40 2 -63l-102 -21q0 32 -8.5 44.5t-30.5 8.5q-25 -5 -22 -35q0 -6 1 -10.5t2 -8.5t4 -8.5t5 -7t8 -8.5l9.5 -9.5l13 -13t16.5 -15.5l37 -39q36 -36 53 -67.5t21 -74.5
q3 -72 -27 -106.5t-105 -52.5zM1415 942l109 21v-89l-109 -24v92zM1241 588l-76 -15v-223l-112 -20v540l112 25l-2 -219l78 16l4 215l111 23v-541l-115 -22v221zM926 743v-438l-113 -20v436l-80 -16v104l273 53v-104zM1415 809l109 18v-405l-109 -23v410zM1905 588l108 22
l-2 -96l-106 -20v94zM1937 262h68v-59h-68v59zM473 156v-121q0 -54 -21.5 -77.5t-82.5 -23.5h-82v318h82q62 0 83 -22t21 -74zM1434 252l-66 -318h-68l-65 318h72l10 -55q7 -44 18 -131q2 29 19 131l10 55h70zM356 201v-215h9q21 0 29 10.5t7 36.5v123q0 25 -7.5 35
t-26.5 10h-11zM602 20h64v-20q0 -35 -19.5 -51.5t-64.5 -16.5q-50 0 -66 19.5t-16 71.5v67q0 55 17 74.5t67 19.5q51 0 66.5 -21t15.5 -77v-43h-99v-35q0 -17 3 -21.5t12 -4.5q20 0 20 22v16zM760 127v-193h-68v248h56l6 -16q34 18 61 18q28 0 37 -18q38 18 63 18
q26 0 36 -13t10 -52v-185h-66v175q0 22 -12 22q-5 0 -21 -4v-193h-65v175q0 22 -15 22q-6 0 -22 -4zM1075 -68q-53 0 -69.5 25.5t-16.5 93.5v19q0 66 17.5 90t68.5 24q53 0 69.5 -24.5t16.5 -89.5v-19q0 -69 -17 -94t-69 -25zM1513 184q53 0 67.5 -20.5t14.5 -77.5v-43h-100
v-35q0 -17 3.5 -21.5t14.5 -4.5q19 0 19 22v16h63v-20q0 -35 -19 -51.5t-65 -16.5q-50 0 -65.5 19.5t-15.5 71.5v67q0 56 16 75t67 19zM1681 182l5 -24q23 26 45 26v-65q-14 0 -41 -10v-175h-66v248h57zM1915 4v-2q0 -34 -22 -52t-62 -18q-42 0 -62 18.5t-20 61.5v8h59v-6
q0 -30 23 -30q20 0 20 18q0 14 -20 23l-37 20q-45 25 -45 68v2q0 69 78 69q84 0 84 -80v-6h-60v2q0 19 -4 26t-16 7q-16 0 -16 -14q0 -20 20 -31l35 -18q45 -22 45 -66zM2120 -68q-55 0 -71.5 25.5t-16.5 93.5v19q0 66 17.5 90t70.5 24t68.5 -24t15.5 -90v-19
q0 -69 -16.5 -94t-67.5 -25zM2300 127v-193h-68v248h58l2 -16q38 18 61 18q25 0 36 -13.5t11 -51.5v-185h-67v175q0 22 -13 22q-4 0 -20 -4zM2005 -66h-68v248h68v-248zM567 115v-29h35v29q0 22 -18 22q-17 0 -17 -22zM1495 86h37v29q0 22 -16 22q-21 0 -21 -22v-29z
M1057 98v-82q0 -17 4 -23.5t14 -6.5q12 0 15.5 6.5t3.5 25.5v80q0 19 -3.5 26t-15.5 7q-10 0 -14 -7t-4 -26zM2099 98v-82q0 -17 4.5 -23.5t16.5 -6.5t15 6t3 26v80q0 20 -3 26.5t-15 6.5t-16.5 -7t-4.5 -26zM1499 -178q16 0 22.5 -9t6.5 -34v-117h-41v111q0 14 -8 14
q-3 0 -7.5 -1t-7.5 -1v-123h-43v209h41v-59q23 10 37 10zM1589 -168h-43v39h43v-39zM2177 -186v57h45v-209h-37l-4 10q-22 -12 -37 -12q-18 0 -25.5 10t-7.5 37v60q0 33 8 44t27 11q11 0 31 -8zM2279 -168h-41v39h41v-39zM893 -158h45v-22h16v-33h-16v-78v-7.5t1 -5t3 -3
t6 -0.5h6v-31h-20q-28 0 -34.5 11t-6.5 46v68h-12v33h12v22zM1348 -158h41v-22h18v-33h-18v-78q0 -16 12 -16h6v-31h-21q-27 0 -32.5 10.5t-5.5 46.5v68h-13v33h13v22zM1913 -158h43v-22h18v-33h-18v-78v-7.5t1 -5t3 -3t6 -0.5h8v-31h-22q-15 0 -22.5 2.5t-11.5 10.5
t-4.5 16t-0.5 28v68h-12v33h12v22zM1167 -178q19 0 26 -10.5t7 -38.5v-56q0 -34 -8 -45.5t-25 -11.5q-19 0 -30 8v-59h-45v211h36l2 -10q22 12 37 12zM1272 -178q33 0 43 -14t10 -52v-26h-63v-23v-7.5t1 -5t3 -3t6 -0.5q10 0 10 12v14h43v-14q0 -23 -12 -33t-41 -10
q-34 0 -44.5 12t-10.5 45v41q0 36 11.5 50t43.5 14zM1661 -242l22 -12q29 -13 29 -43q0 -43 -53 -43q-27 0 -40 11t-13 38v8h36v-4q0 -20 17 -20q12 0 12 10t-12 16l-25 13q-28 12 -28 43q0 47 51 47q53 0 53 -53v-2h-39q0 22 -12 22t-12 -10t14 -21zM1839 -242l23 -12
q28 -12 28 -43q0 -43 -55 -43q-27 0 -38 11t-11 38v8h35v-4q0 -20 14 -20q12 0 12 10t-12 16l-20 13q-31 12 -31 43q0 47 49 47q55 0 55 -53v-2h-37q0 22 -16 22q-12 0 -12 -10t16 -21zM2355 -178q33 0 43 -16t10 -58v-10q0 -45 -10.5 -61.5t-42.5 -16.5q-34 0 -44.5 16.5
t-10.5 59.5v12q0 43 10.5 58.5t44.5 15.5zM395 -180l17 -92l10 92h43l-29 -158h-41l-20 88l-17 -88h-43l-28 158h43l10 -92l18 92h37zM580 -180l16 -92l10 92h43l-31 -158h-40l-21 88l-18 -88h-41l-27 158h43l8 -92l17 92h41zM778 -272l10 92h46l-29 -158h-45l-19 88
l-18 -88h-41l-29 158h43l11 -92l16 92h39zM1024 -244l16 64h41l-59 -211h-39l16 53l-38 158h43l10 -66q4 -15 6 -35q4 36 4 37zM1589 -338h-43v158h43v-158zM2052 -303v123h43v-158h-35l-4 8q-17 -10 -39 -10q-30 0 -30 41v119h43v-113q0 -14 8 -14t14 4zM2279 -338h-41v158
h41v-158zM1262 -244h22v19q0 14 -12 14q-10 0 -10 -14v-19zM2177 -303v88q-1 0 -4 1t-6 1q-10 0 -10 -20v-54q0 -20 10 -20q2 0 10 4zM1157 -287v54q0 12 -2 15t-8 3h-10v-90q1 0 4 -1t6 -1q10 0 10 20zM2365 -285v52v9.5t-1 5t-3 3t-6 0.5q-8 0 -10 -3t-2 -15v-52
q0 -22 12 -22q10 0 10 22zM877 -338h-43v41h43v-41zM1767 -338h-41v41h41v-41z" />
    <glyph glyph-name="comma" unicode="," horiz-adv-x="385" 
d="M70 29v282h258v-256l-97 -323h-180z" />
    <glyph glyph-name="hyphen" unicode="-" horiz-adv-x="714" 
d="M61 512v240h592v-240h-592z" />
    <glyph glyph-name="period" unicode="." horiz-adv-x="425" vert-adv-y="2457" 
d="M59 0v311h310v-311h-310z" />
    <glyph glyph-name="slash" unicode="/" 
d="M1868 1194l141 27v-105l-256 -49v543l256 47v-105l-141 -26v-113l133 27l-2 -94l-131 -25v-127zM1559 1235l-54 -8v-211l-114 -21v543l135 29q87 17 128 -7.5t50 -97.5q8 -99 -24 -154t-121 -73zM924 903l-111 -20v438l-82 -16v102l346 68l88 -224l76 258l123 23
l-137 -397v-172l-115 -21v176l-102 242l-86 -19v-438zM1532 1479l-29 -4v-160l37 6q63 11 49 119q-5 45 -57 39zM1905 637l-9 399l121 25l-8 -406zM1726 453q-62 -11 -99.5 7.5t-45.5 57.5q-3 39 0 84l100 21q0 -42 2 -50q5 -23 39 -20q30 6 27 41q-1 13 -10 28t-17.5 24.5
t-33.5 35.5l-43 39q-40 37 -54.5 70.5t-13.5 82.5q3 109 123 132q58 11 98.5 -4t50.5 -62q4 -40 2 -63l-102 -21q0 32 -8.5 44.5t-30.5 8.5q-25 -5 -22 -35q0 -6 1 -10.5t2 -8.5t4 -8.5t5 -7t8 -8.5l9.5 -9.5l13 -13t16.5 -15.5l37 -39q36 -36 53 -67.5t21 -74.5
q3 -72 -27 -106.5t-105 -52.5zM1415 942l109 21v-89l-109 -24v92zM1241 588l-76 -15v-223l-112 -20v540l112 25l-2 -219l78 16l4 215l111 23v-541l-115 -22v221zM926 743v-438l-113 -20v436l-80 -16v104l273 53v-104zM1415 809l109 18v-405l-109 -23v410zM1905 588l108 22
l-2 -96l-106 -20v94zM1937 262h68v-59h-68v59zM473 156v-121q0 -54 -21.5 -77.5t-82.5 -23.5h-82v318h82q62 0 83 -22t21 -74zM1434 252l-66 -318h-68l-65 318h72l10 -55q7 -44 18 -131q2 29 19 131l10 55h70zM356 201v-215h9q21 0 29 10.5t7 36.5v123q0 25 -7.5 35
t-26.5 10h-11zM602 20h64v-20q0 -35 -19.5 -51.5t-64.5 -16.5q-50 0 -66 19.5t-16 71.5v67q0 55 17 74.5t67 19.5q51 0 66.5 -21t15.5 -77v-43h-99v-35q0 -17 3 -21.5t12 -4.5q20 0 20 22v16zM760 127v-193h-68v248h56l6 -16q34 18 61 18q28 0 37 -18q38 18 63 18
q26 0 36 -13t10 -52v-185h-66v175q0 22 -12 22q-5 0 -21 -4v-193h-65v175q0 22 -15 22q-6 0 -22 -4zM1075 -68q-53 0 -69.5 25.5t-16.5 93.5v19q0 66 17.5 90t68.5 24q53 0 69.5 -24.5t16.5 -89.5v-19q0 -69 -17 -94t-69 -25zM1513 184q53 0 67.5 -20.5t14.5 -77.5v-43h-100
v-35q0 -17 3.5 -21.5t14.5 -4.5q19 0 19 22v16h63v-20q0 -35 -19 -51.5t-65 -16.5q-50 0 -65.5 19.5t-15.5 71.5v67q0 56 16 75t67 19zM1681 182l5 -24q23 26 45 26v-65q-14 0 -41 -10v-175h-66v248h57zM1915 4v-2q0 -34 -22 -52t-62 -18q-42 0 -62 18.5t-20 61.5v8h59v-6
q0 -30 23 -30q20 0 20 18q0 14 -20 23l-37 20q-45 25 -45 68v2q0 69 78 69q84 0 84 -80v-6h-60v2q0 19 -4 26t-16 7q-16 0 -16 -14q0 -20 20 -31l35 -18q45 -22 45 -66zM2120 -68q-55 0 -71.5 25.5t-16.5 93.5v19q0 66 17.5 90t70.5 24t68.5 -24t15.5 -90v-19
q0 -69 -16.5 -94t-67.5 -25zM2300 127v-193h-68v248h58l2 -16q38 18 61 18q25 0 36 -13.5t11 -51.5v-185h-67v175q0 22 -13 22q-4 0 -20 -4zM2005 -66h-68v248h68v-248zM567 115v-29h35v29q0 22 -18 22q-17 0 -17 -22zM1495 86h37v29q0 22 -16 22q-21 0 -21 -22v-29z
M1057 98v-82q0 -17 4 -23.5t14 -6.5q12 0 15.5 6.5t3.5 25.5v80q0 19 -3.5 26t-15.5 7q-10 0 -14 -7t-4 -26zM2099 98v-82q0 -17 4.5 -23.5t16.5 -6.5t15 6t3 26v80q0 20 -3 26.5t-15 6.5t-16.5 -7t-4.5 -26zM1499 -178q16 0 22.5 -9t6.5 -34v-117h-41v111q0 14 -8 14
q-3 0 -7.5 -1t-7.5 -1v-123h-43v209h41v-59q23 10 37 10zM1589 -168h-43v39h43v-39zM2177 -186v57h45v-209h-37l-4 10q-22 -12 -37 -12q-18 0 -25.5 10t-7.5 37v60q0 33 8 44t27 11q11 0 31 -8zM2279 -168h-41v39h41v-39zM893 -158h45v-22h16v-33h-16v-78v-7.5t1 -5t3 -3
t6 -0.5h6v-31h-20q-28 0 -34.5 11t-6.5 46v68h-12v33h12v22zM1348 -158h41v-22h18v-33h-18v-78q0 -16 12 -16h6v-31h-21q-27 0 -32.5 10.5t-5.5 46.5v68h-13v33h13v22zM1913 -158h43v-22h18v-33h-18v-78v-7.5t1 -5t3 -3t6 -0.5h8v-31h-22q-15 0 -22.5 2.5t-11.5 10.5
t-4.5 16t-0.5 28v68h-12v33h12v22zM1167 -178q19 0 26 -10.5t7 -38.5v-56q0 -34 -8 -45.5t-25 -11.5q-19 0 -30 8v-59h-45v211h36l2 -10q22 12 37 12zM1272 -178q33 0 43 -14t10 -52v-26h-63v-23v-7.5t1 -5t3 -3t6 -0.5q10 0 10 12v14h43v-14q0 -23 -12 -33t-41 -10
q-34 0 -44.5 12t-10.5 45v41q0 36 11.5 50t43.5 14zM1661 -242l22 -12q29 -13 29 -43q0 -43 -53 -43q-27 0 -40 11t-13 38v8h36v-4q0 -20 17 -20q12 0 12 10t-12 16l-25 13q-28 12 -28 43q0 47 51 47q53 0 53 -53v-2h-39q0 22 -12 22t-12 -10t14 -21zM1839 -242l23 -12
q28 -12 28 -43q0 -43 -55 -43q-27 0 -38 11t-11 38v8h35v-4q0 -20 14 -20q12 0 12 10t-12 16l-20 13q-31 12 -31 43q0 47 49 47q55 0 55 -53v-2h-37q0 22 -16 22q-12 0 -12 -10t16 -21zM2355 -178q33 0 43 -16t10 -58v-10q0 -45 -10.5 -61.5t-42.5 -16.5q-34 0 -44.5 16.5
t-10.5 59.5v12q0 43 10.5 58.5t44.5 15.5zM395 -180l17 -92l10 92h43l-29 -158h-41l-20 88l-17 -88h-43l-28 158h43l10 -92l18 92h37zM580 -180l16 -92l10 92h43l-31 -158h-40l-21 88l-18 -88h-41l-27 158h43l8 -92l17 92h41zM778 -272l10 92h46l-29 -158h-45l-19 88
l-18 -88h-41l-29 158h43l11 -92l16 92h39zM1024 -244l16 64h41l-59 -211h-39l16 53l-38 158h43l10 -66q4 -15 6 -35q4 36 4 37zM1589 -338h-43v158h43v-158zM2052 -303v123h43v-158h-35l-4 8q-17 -10 -39 -10q-30 0 -30 41v119h43v-113q0 -14 8 -14t14 4zM2279 -338h-41v158
h41v-158zM1262 -244h22v19q0 14 -12 14q-10 0 -10 -14v-19zM2177 -303v88q-1 0 -4 1t-6 1q-10 0 -10 -20v-54q0 -20 10 -20q2 0 10 4zM1157 -287v54q0 12 -2 15t-8 3h-10v-90q1 0 4 -1t6 -1q10 0 10 20zM2365 -285v52v9.5t-1 5t-3 3t-6 0.5q-8 0 -10 -3t-2 -15v-52
q0 -22 12 -22q10 0 10 22zM877 -338h-43v41h43v-41zM1767 -338h-41v41h41v-41z" />
    <glyph glyph-name="zero" unicode="0" horiz-adv-x="925" 
d="M61 545v426q0 105 6 178.5t23 137t45.5 102.5t74.5 67t108 39.5t149 11.5t150 -12.5t107.5 -42t71.5 -68.5t42.5 -103t20.5 -133t5 -171v-428q0 -110 -7 -189t-24.5 -144t-45.5 -106t-73 -69t-105 -39.5t-142 -11.5q-77 0 -135 10.5t-101.5 30t-73 54t-48.5 75.5
t-29.5 103t-14.5 126.5t-4 155.5zM377 1100v-707q0 -88 16 -119.5t72 -31.5q52 0 68 30.5t16 122.5v707q0 92 -15.5 122.5t-70.5 30.5t-70.5 -30.5t-15.5 -124.5z" />
    <glyph glyph-name="one" unicode="1" horiz-adv-x="585" 
d="M518 1497v-1497h-315v1239h-183v258h498z" />
    <glyph glyph-name="two" unicode="2" horiz-adv-x="1003" 
d="M922 0h-861v172q1 133 21 215t68.5 150.5t148.5 156.5q8 7 44.5 37.5t52 44t50 45.5t52.5 52t43.5 52.5t38 59t22.5 58.5t10 63q0 158 -98 158q-57 0 -86 -38.5t-29 -140.5v-129h-329v82q0 118 22 202.5t72.5 146t136 91t209.5 29.5q231 0 331.5 -96t100.5 -301
q0 -80 -14 -139t-53 -119t-89.5 -113t-142.5 -135q-105 -95 -155.5 -153t-63 -88t-12.5 -70v-6h510v-287z" />
    <glyph glyph-name="three" unicode="3" horiz-adv-x="991" 
d="M383 956h-332v82q0 97 10.5 166.5t39 129.5t77.5 96.5t125.5 56.5t183.5 20q124 0 205.5 -18.5t138 -66t81 -128t24.5 -204.5q0 -120 -34 -193.5t-126 -122.5q100 -51 137 -132.5t37 -211.5q0 -113 -18.5 -189.5t-66.5 -135.5t-136 -87t-221 -28q-245 0 -342 108t-94 373
v111h331l-2 -168q0 -106 29.5 -142t83.5 -36q56 0 81.5 38.5t25.5 116.5v94q0 88 -38.5 127t-99.5 39h-45v236h35q58 0 94.5 40t36.5 128v51q0 158 -102 158q-61 0 -89.5 -37.5t-29.5 -141.5v-129z" />
    <glyph glyph-name="four" unicode="4" 
d="M1868 1194l141 27v-105l-256 -49v543l256 47v-105l-141 -26v-113l133 27l-2 -94l-131 -25v-127zM1559 1235l-54 -8v-211l-114 -21v543l135 29q87 17 128 -7.5t50 -97.5q8 -99 -24 -154t-121 -73zM924 903l-111 -20v438l-82 -16v102l346 68l88 -224l76 258l123 23
l-137 -397v-172l-115 -21v176l-102 242l-86 -19v-438zM1532 1479l-29 -4v-160l37 6q63 11 49 119q-5 45 -57 39zM1905 637l-9 399l121 25l-8 -406zM1726 453q-62 -11 -99.5 7.5t-45.5 57.5q-3 39 0 84l100 21q0 -42 2 -50q5 -23 39 -20q30 6 27 41q-1 13 -10 28t-17.5 24.5
t-33.5 35.5l-43 39q-40 37 -54.5 70.5t-13.5 82.5q3 109 123 132q58 11 98.5 -4t50.5 -62q4 -40 2 -63l-102 -21q0 32 -8.5 44.5t-30.5 8.5q-25 -5 -22 -35q0 -6 1 -10.5t2 -8.5t4 -8.5t5 -7t8 -8.5l9.5 -9.5l13 -13t16.5 -15.5l37 -39q36 -36 53 -67.5t21 -74.5
q3 -72 -27 -106.5t-105 -52.5zM1415 942l109 21v-89l-109 -24v92zM1241 588l-76 -15v-223l-112 -20v540l112 25l-2 -219l78 16l4 215l111 23v-541l-115 -22v221zM926 743v-438l-113 -20v436l-80 -16v104l273 53v-104zM1415 809l109 18v-405l-109 -23v410zM1905 588l108 22
l-2 -96l-106 -20v94zM1937 262h68v-59h-68v59zM473 156v-121q0 -54 -21.5 -77.5t-82.5 -23.5h-82v318h82q62 0 83 -22t21 -74zM1434 252l-66 -318h-68l-65 318h72l10 -55q7 -44 18 -131q2 29 19 131l10 55h70zM356 201v-215h9q21 0 29 10.5t7 36.5v123q0 25 -7.5 35
t-26.5 10h-11zM602 20h64v-20q0 -35 -19.5 -51.5t-64.5 -16.5q-50 0 -66 19.5t-16 71.5v67q0 55 17 74.5t67 19.5q51 0 66.5 -21t15.5 -77v-43h-99v-35q0 -17 3 -21.5t12 -4.5q20 0 20 22v16zM760 127v-193h-68v248h56l6 -16q34 18 61 18q28 0 37 -18q38 18 63 18
q26 0 36 -13t10 -52v-185h-66v175q0 22 -12 22q-5 0 -21 -4v-193h-65v175q0 22 -15 22q-6 0 -22 -4zM1075 -68q-53 0 -69.5 25.5t-16.5 93.5v19q0 66 17.5 90t68.5 24q53 0 69.5 -24.5t16.5 -89.5v-19q0 -69 -17 -94t-69 -25zM1513 184q53 0 67.5 -20.5t14.5 -77.5v-43h-100
v-35q0 -17 3.5 -21.5t14.5 -4.5q19 0 19 22v16h63v-20q0 -35 -19 -51.5t-65 -16.5q-50 0 -65.5 19.5t-15.5 71.5v67q0 56 16 75t67 19zM1681 182l5 -24q23 26 45 26v-65q-14 0 -41 -10v-175h-66v248h57zM1915 4v-2q0 -34 -22 -52t-62 -18q-42 0 -62 18.5t-20 61.5v8h59v-6
q0 -30 23 -30q20 0 20 18q0 14 -20 23l-37 20q-45 25 -45 68v2q0 69 78 69q84 0 84 -80v-6h-60v2q0 19 -4 26t-16 7q-16 0 -16 -14q0 -20 20 -31l35 -18q45 -22 45 -66zM2120 -68q-55 0 -71.5 25.5t-16.5 93.5v19q0 66 17.5 90t70.5 24t68.5 -24t15.5 -90v-19
q0 -69 -16.5 -94t-67.5 -25zM2300 127v-193h-68v248h58l2 -16q38 18 61 18q25 0 36 -13.5t11 -51.5v-185h-67v175q0 22 -13 22q-4 0 -20 -4zM2005 -66h-68v248h68v-248zM567 115v-29h35v29q0 22 -18 22q-17 0 -17 -22zM1495 86h37v29q0 22 -16 22q-21 0 -21 -22v-29z
M1057 98v-82q0 -17 4 -23.5t14 -6.5q12 0 15.5 6.5t3.5 25.5v80q0 19 -3.5 26t-15.5 7q-10 0 -14 -7t-4 -26zM2099 98v-82q0 -17 4.5 -23.5t16.5 -6.5t15 6t3 26v80q0 20 -3 26.5t-15 6.5t-16.5 -7t-4.5 -26zM1499 -178q16 0 22.5 -9t6.5 -34v-117h-41v111q0 14 -8 14
q-3 0 -7.5 -1t-7.5 -1v-123h-43v209h41v-59q23 10 37 10zM1589 -168h-43v39h43v-39zM2177 -186v57h45v-209h-37l-4 10q-22 -12 -37 -12q-18 0 -25.5 10t-7.5 37v60q0 33 8 44t27 11q11 0 31 -8zM2279 -168h-41v39h41v-39zM893 -158h45v-22h16v-33h-16v-78v-7.5t1 -5t3 -3
t6 -0.5h6v-31h-20q-28 0 -34.5 11t-6.5 46v68h-12v33h12v22zM1348 -158h41v-22h18v-33h-18v-78q0 -16 12 -16h6v-31h-21q-27 0 -32.5 10.5t-5.5 46.5v68h-13v33h13v22zM1913 -158h43v-22h18v-33h-18v-78v-7.5t1 -5t3 -3t6 -0.5h8v-31h-22q-15 0 -22.5 2.5t-11.5 10.5
t-4.5 16t-0.5 28v68h-12v33h12v22zM1167 -178q19 0 26 -10.5t7 -38.5v-56q0 -34 -8 -45.5t-25 -11.5q-19 0 -30 8v-59h-45v211h36l2 -10q22 12 37 12zM1272 -178q33 0 43 -14t10 -52v-26h-63v-23v-7.5t1 -5t3 -3t6 -0.5q10 0 10 12v14h43v-14q0 -23 -12 -33t-41 -10
q-34 0 -44.5 12t-10.5 45v41q0 36 11.5 50t43.5 14zM1661 -242l22 -12q29 -13 29 -43q0 -43 -53 -43q-27 0 -40 11t-13 38v8h36v-4q0 -20 17 -20q12 0 12 10t-12 16l-25 13q-28 12 -28 43q0 47 51 47q53 0 53 -53v-2h-39q0 22 -12 22t-12 -10t14 -21zM1839 -242l23 -12
q28 -12 28 -43q0 -43 -55 -43q-27 0 -38 11t-11 38v8h35v-4q0 -20 14 -20q12 0 12 10t-12 16l-20 13q-31 12 -31 43q0 47 49 47q55 0 55 -53v-2h-37q0 22 -16 22q-12 0 -12 -10t16 -21zM2355 -178q33 0 43 -16t10 -58v-10q0 -45 -10.5 -61.5t-42.5 -16.5q-34 0 -44.5 16.5
t-10.5 59.5v12q0 43 10.5 58.5t44.5 15.5zM395 -180l17 -92l10 92h43l-29 -158h-41l-20 88l-17 -88h-43l-28 158h43l10 -92l18 92h37zM580 -180l16 -92l10 92h43l-31 -158h-40l-21 88l-18 -88h-41l-27 158h43l8 -92l17 92h41zM778 -272l10 92h46l-29 -158h-45l-19 88
l-18 -88h-41l-29 158h43l11 -92l16 92h39zM1024 -244l16 64h41l-59 -211h-39l16 53l-38 158h43l10 -66q4 -15 6 -35q4 36 4 37zM1589 -338h-43v158h43v-158zM2052 -303v123h43v-158h-35l-4 8q-17 -10 -39 -10q-30 0 -30 41v119h43v-113q0 -14 8 -14t14 4zM2279 -338h-41v158
h41v-158zM1262 -244h22v19q0 14 -12 14q-10 0 -10 -14v-19zM2177 -303v88q-1 0 -4 1t-6 1q-10 0 -10 -20v-54q0 -20 10 -20q2 0 10 4zM1157 -287v54q0 12 -2 15t-8 3h-10v-90q1 0 4 -1t6 -1q10 0 10 20zM2365 -285v52v9.5t-1 5t-3 3t-6 0.5q-8 0 -10 -3t-2 -15v-52
q0 -22 12 -22q10 0 10 22zM877 -338h-43v41h43v-41zM1767 -338h-41v41h41v-41z" />
    <glyph glyph-name="five" unicode="5" horiz-adv-x="1003" 
d="M631 1014q171 0 233 -94t62 -334v-156q0 -83 -6.5 -142.5t-24.5 -111.5t-48 -85t-77.5 -56.5t-113.5 -34t-156 -10.5q-152 0 -241 35t-125 102t-36 178v139h312v-127q0 -52 21 -74t81 -22q60 1 79 25t19 96v322q0 72 -19 95t-79 23q-60 1 -81 -20.5t-21 -75.5v-96h-310
v907h785v-287h-449v-225q68 29 195 29z" />
    <glyph glyph-name="six" unicode="6" horiz-adv-x="993" 
d="M61 414v624q0 97 10.5 166.5t37.5 129.5t73.5 96.5t119 56.5t173.5 20h45q395 0 395 -336v-71h-329l-2 78q0 45 -22 64.5t-68 21.5q-62 0 -82.5 -33.5t-20.5 -145.5v-149q85 43 211 43q179 0 246 -86t67 -285v-190q0 -111 -20 -188t-68 -132.5t-130.5 -81.5t-204.5 -26
q-233 0 -332 95t-99 329zM391 608v-243q0 -74 21.5 -101.5t81.5 -27.5q49 0 71 26t21 98v248q-1 74 -25.5 100.5t-79.5 26.5q-47 -2 -68.5 -28t-21.5 -99z" />
    <glyph glyph-name="seven" unicode="7" horiz-adv-x="987" 
d="M59 1210v287h869l-2 -194l-414 -1303h-344l407 1210h-516z" />
    <glyph glyph-name="eight" unicode="8" horiz-adv-x="1003" 
d="M82 379v82q0 131 39.5 205.5t134.5 107.5q-93 49 -126.5 118t-33.5 187v72q0 181 99.5 268.5t310.5 87.5q206 0 307.5 -88t101.5 -268v-72q0 -119 -33 -187.5t-126 -117.5q95 -33 134.5 -107.5t39.5 -205.5v-82q0 -114 -23 -188t-75.5 -119t-130 -63.5t-195.5 -18.5
q-234 -2 -329 83.5t-95 305.5zM418 1157v-153q0 -60 22 -85.5t66 -25.5h4q42 0 63 26t21 85v153q0 55 -24 81t-64 26t-64 -26t-24 -81zM414 524l-2 -172q0 -65 22.5 -90.5t71.5 -25.5t71.5 25.5t22.5 90.5l-2 172q0 68 -22 96.5t-68 28.5h-2q-50 0 -71 -27t-21 -98z" />
    <glyph glyph-name="nine" unicode="9" horiz-adv-x="980" 
d="M489 1507q234 0 332.5 -89t98.5 -314v-643q0 -121 -17.5 -203t-62.5 -145.5t-128 -93t-208 -29.5h-35q-96 0 -167 19.5t-113.5 52t-67.5 83t-34 103t-9 121.5v71h332v-80q1 -74 19.5 -99.5t68.5 -27.5q48 -2 69 34.5t21 144.5v194q-73 -39 -178 -39q-103 0 -170 21
t-105.5 69t-53.5 114t-15 167v174q0 106 20 177.5t68.5 121.5t130 73t204.5 23zM498 811q33 1 51 12.5t29.5 51.5t11.5 114v94q0 108 -22 144.5t-83 36.5q-33 0 -51 -12t-28.5 -52t-10.5 -115v-96q0 -109 23 -143.5t80 -34.5z" />
    <glyph glyph-name="colon" unicode=":" horiz-adv-x="395" 
d="M59 856v311h279v-311h-279zM59 0v311h279v-311h-279z" />
    <glyph glyph-name="semicolon" unicode=";" horiz-adv-x="395" 
d="M59 856v311h279v-311h-279zM70 29v282h258v-256l-97 -323h-180z" />
    <glyph glyph-name="less" unicode="&#x3c;" 
d="M1868 1194l141 27v-105l-256 -49v543l256 47v-105l-141 -26v-113l133 27l-2 -94l-131 -25v-127zM1559 1235l-54 -8v-211l-114 -21v543l135 29q87 17 128 -7.5t50 -97.5q8 -99 -24 -154t-121 -73zM924 903l-111 -20v438l-82 -16v102l346 68l88 -224l76 258l123 23
l-137 -397v-172l-115 -21v176l-102 242l-86 -19v-438zM1532 1479l-29 -4v-160l37 6q63 11 49 119q-5 45 -57 39zM1905 637l-9 399l121 25l-8 -406zM1726 453q-62 -11 -99.5 7.5t-45.5 57.5q-3 39 0 84l100 21q0 -42 2 -50q5 -23 39 -20q30 6 27 41q-1 13 -10 28t-17.5 24.5
t-33.5 35.5l-43 39q-40 37 -54.5 70.5t-13.5 82.5q3 109 123 132q58 11 98.5 -4t50.5 -62q4 -40 2 -63l-102 -21q0 32 -8.5 44.5t-30.5 8.5q-25 -5 -22 -35q0 -6 1 -10.5t2 -8.5t4 -8.5t5 -7t8 -8.5l9.5 -9.5l13 -13t16.5 -15.5l37 -39q36 -36 53 -67.5t21 -74.5
q3 -72 -27 -106.5t-105 -52.5zM1415 942l109 21v-89l-109 -24v92zM1241 588l-76 -15v-223l-112 -20v540l112 25l-2 -219l78 16l4 215l111 23v-541l-115 -22v221zM926 743v-438l-113 -20v436l-80 -16v104l273 53v-104zM1415 809l109 18v-405l-109 -23v410zM1905 588l108 22
l-2 -96l-106 -20v94zM1937 262h68v-59h-68v59zM473 156v-121q0 -54 -21.5 -77.5t-82.5 -23.5h-82v318h82q62 0 83 -22t21 -74zM1434 252l-66 -318h-68l-65 318h72l10 -55q7 -44 18 -131q2 29 19 131l10 55h70zM356 201v-215h9q21 0 29 10.5t7 36.5v123q0 25 -7.5 35
t-26.5 10h-11zM602 20h64v-20q0 -35 -19.5 -51.5t-64.5 -16.5q-50 0 -66 19.5t-16 71.5v67q0 55 17 74.5t67 19.5q51 0 66.5 -21t15.5 -77v-43h-99v-35q0 -17 3 -21.5t12 -4.5q20 0 20 22v16zM760 127v-193h-68v248h56l6 -16q34 18 61 18q28 0 37 -18q38 18 63 18
q26 0 36 -13t10 -52v-185h-66v175q0 22 -12 22q-5 0 -21 -4v-193h-65v175q0 22 -15 22q-6 0 -22 -4zM1075 -68q-53 0 -69.5 25.5t-16.5 93.5v19q0 66 17.5 90t68.5 24q53 0 69.5 -24.5t16.5 -89.5v-19q0 -69 -17 -94t-69 -25zM1513 184q53 0 67.5 -20.5t14.5 -77.5v-43h-100
v-35q0 -17 3.5 -21.5t14.5 -4.5q19 0 19 22v16h63v-20q0 -35 -19 -51.5t-65 -16.5q-50 0 -65.5 19.5t-15.5 71.5v67q0 56 16 75t67 19zM1681 182l5 -24q23 26 45 26v-65q-14 0 -41 -10v-175h-66v248h57zM1915 4v-2q0 -34 -22 -52t-62 -18q-42 0 -62 18.5t-20 61.5v8h59v-6
q0 -30 23 -30q20 0 20 18q0 14 -20 23l-37 20q-45 25 -45 68v2q0 69 78 69q84 0 84 -80v-6h-60v2q0 19 -4 26t-16 7q-16 0 -16 -14q0 -20 20 -31l35 -18q45 -22 45 -66zM2120 -68q-55 0 -71.5 25.5t-16.5 93.5v19q0 66 17.5 90t70.5 24t68.5 -24t15.5 -90v-19
q0 -69 -16.5 -94t-67.5 -25zM2300 127v-193h-68v248h58l2 -16q38 18 61 18q25 0 36 -13.5t11 -51.5v-185h-67v175q0 22 -13 22q-4 0 -20 -4zM2005 -66h-68v248h68v-248zM567 115v-29h35v29q0 22 -18 22q-17 0 -17 -22zM1495 86h37v29q0 22 -16 22q-21 0 -21 -22v-29z
M1057 98v-82q0 -17 4 -23.5t14 -6.5q12 0 15.5 6.5t3.5 25.5v80q0 19 -3.5 26t-15.5 7q-10 0 -14 -7t-4 -26zM2099 98v-82q0 -17 4.5 -23.5t16.5 -6.5t15 6t3 26v80q0 20 -3 26.5t-15 6.5t-16.5 -7t-4.5 -26zM1499 -178q16 0 22.5 -9t6.5 -34v-117h-41v111q0 14 -8 14
q-3 0 -7.5 -1t-7.5 -1v-123h-43v209h41v-59q23 10 37 10zM1589 -168h-43v39h43v-39zM2177 -186v57h45v-209h-37l-4 10q-22 -12 -37 -12q-18 0 -25.5 10t-7.5 37v60q0 33 8 44t27 11q11 0 31 -8zM2279 -168h-41v39h41v-39zM893 -158h45v-22h16v-33h-16v-78v-7.5t1 -5t3 -3
t6 -0.5h6v-31h-20q-28 0 -34.5 11t-6.5 46v68h-12v33h12v22zM1348 -158h41v-22h18v-33h-18v-78q0 -16 12 -16h6v-31h-21q-27 0 -32.5 10.5t-5.5 46.5v68h-13v33h13v22zM1913 -158h43v-22h18v-33h-18v-78v-7.5t1 -5t3 -3t6 -0.5h8v-31h-22q-15 0 -22.5 2.5t-11.5 10.5
t-4.5 16t-0.5 28v68h-12v33h12v22zM1167 -178q19 0 26 -10.5t7 -38.5v-56q0 -34 -8 -45.5t-25 -11.5q-19 0 -30 8v-59h-45v211h36l2 -10q22 12 37 12zM1272 -178q33 0 43 -14t10 -52v-26h-63v-23v-7.5t1 -5t3 -3t6 -0.5q10 0 10 12v14h43v-14q0 -23 -12 -33t-41 -10
q-34 0 -44.5 12t-10.5 45v41q0 36 11.5 50t43.5 14zM1661 -242l22 -12q29 -13 29 -43q0 -43 -53 -43q-27 0 -40 11t-13 38v8h36v-4q0 -20 17 -20q12 0 12 10t-12 16l-25 13q-28 12 -28 43q0 47 51 47q53 0 53 -53v-2h-39q0 22 -12 22t-12 -10t14 -21zM1839 -242l23 -12
q28 -12 28 -43q0 -43 -55 -43q-27 0 -38 11t-11 38v8h35v-4q0 -20 14 -20q12 0 12 10t-12 16l-20 13q-31 12 -31 43q0 47 49 47q55 0 55 -53v-2h-37q0 22 -16 22q-12 0 -12 -10t16 -21zM2355 -178q33 0 43 -16t10 -58v-10q0 -45 -10.5 -61.5t-42.5 -16.5q-34 0 -44.5 16.5
t-10.5 59.5v12q0 43 10.5 58.5t44.5 15.5zM395 -180l17 -92l10 92h43l-29 -158h-41l-20 88l-17 -88h-43l-28 158h43l10 -92l18 92h37zM580 -180l16 -92l10 92h43l-31 -158h-40l-21 88l-18 -88h-41l-27 158h43l8 -92l17 92h41zM778 -272l10 92h46l-29 -158h-45l-19 88
l-18 -88h-41l-29 158h43l11 -92l16 92h39zM1024 -244l16 64h41l-59 -211h-39l16 53l-38 158h43l10 -66q4 -15 6 -35q4 36 4 37zM1589 -338h-43v158h43v-158zM2052 -303v123h43v-158h-35l-4 8q-17 -10 -39 -10q-30 0 -30 41v119h43v-113q0 -14 8 -14t14 4zM2279 -338h-41v158
h41v-158zM1262 -244h22v19q0 14 -12 14q-10 0 -10 -14v-19zM2177 -303v88q-1 0 -4 1t-6 1q-10 0 -10 -20v-54q0 -20 10 -20q2 0 10 4zM1157 -287v54q0 12 -2 15t-8 3h-10v-90q1 0 4 -1t6 -1q10 0 10 20zM2365 -285v52v9.5t-1 5t-3 3t-6 0.5q-8 0 -10 -3t-2 -15v-52
q0 -22 12 -22q10 0 10 22zM877 -338h-43v41h43v-41zM1767 -338h-41v41h41v-41z" />
    <glyph glyph-name="equal" unicode="=" 
d="M1868 1194l141 27v-105l-256 -49v543l256 47v-105l-141 -26v-113l133 27l-2 -94l-131 -25v-127zM1559 1235l-54 -8v-211l-114 -21v543l135 29q87 17 128 -7.5t50 -97.5q8 -99 -24 -154t-121 -73zM924 903l-111 -20v438l-82 -16v102l346 68l88 -224l76 258l123 23
l-137 -397v-172l-115 -21v176l-102 242l-86 -19v-438zM1532 1479l-29 -4v-160l37 6q63 11 49 119q-5 45 -57 39zM1905 637l-9 399l121 25l-8 -406zM1726 453q-62 -11 -99.5 7.5t-45.5 57.5q-3 39 0 84l100 21q0 -42 2 -50q5 -23 39 -20q30 6 27 41q-1 13 -10 28t-17.5 24.5
t-33.5 35.5l-43 39q-40 37 -54.5 70.5t-13.5 82.5q3 109 123 132q58 11 98.5 -4t50.5 -62q4 -40 2 -63l-102 -21q0 32 -8.5 44.5t-30.5 8.5q-25 -5 -22 -35q0 -6 1 -10.5t2 -8.5t4 -8.5t5 -7t8 -8.5l9.5 -9.5l13 -13t16.5 -15.5l37 -39q36 -36 53 -67.5t21 -74.5
q3 -72 -27 -106.5t-105 -52.5zM1415 942l109 21v-89l-109 -24v92zM1241 588l-76 -15v-223l-112 -20v540l112 25l-2 -219l78 16l4 215l111 23v-541l-115 -22v221zM926 743v-438l-113 -20v436l-80 -16v104l273 53v-104zM1415 809l109 18v-405l-109 -23v410zM1905 588l108 22
l-2 -96l-106 -20v94zM1937 262h68v-59h-68v59zM473 156v-121q0 -54 -21.5 -77.5t-82.5 -23.5h-82v318h82q62 0 83 -22t21 -74zM1434 252l-66 -318h-68l-65 318h72l10 -55q7 -44 18 -131q2 29 19 131l10 55h70zM356 201v-215h9q21 0 29 10.5t7 36.5v123q0 25 -7.5 35
t-26.5 10h-11zM602 20h64v-20q0 -35 -19.5 -51.5t-64.5 -16.5q-50 0 -66 19.5t-16 71.5v67q0 55 17 74.5t67 19.5q51 0 66.5 -21t15.5 -77v-43h-99v-35q0 -17 3 -21.5t12 -4.5q20 0 20 22v16zM760 127v-193h-68v248h56l6 -16q34 18 61 18q28 0 37 -18q38 18 63 18
q26 0 36 -13t10 -52v-185h-66v175q0 22 -12 22q-5 0 -21 -4v-193h-65v175q0 22 -15 22q-6 0 -22 -4zM1075 -68q-53 0 -69.5 25.5t-16.5 93.5v19q0 66 17.5 90t68.5 24q53 0 69.5 -24.5t16.5 -89.5v-19q0 -69 -17 -94t-69 -25zM1513 184q53 0 67.5 -20.5t14.5 -77.5v-43h-100
v-35q0 -17 3.5 -21.5t14.5 -4.5q19 0 19 22v16h63v-20q0 -35 -19 -51.5t-65 -16.5q-50 0 -65.5 19.5t-15.5 71.5v67q0 56 16 75t67 19zM1681 182l5 -24q23 26 45 26v-65q-14 0 -41 -10v-175h-66v248h57zM1915 4v-2q0 -34 -22 -52t-62 -18q-42 0 -62 18.5t-20 61.5v8h59v-6
q0 -30 23 -30q20 0 20 18q0 14 -20 23l-37 20q-45 25 -45 68v2q0 69 78 69q84 0 84 -80v-6h-60v2q0 19 -4 26t-16 7q-16 0 -16 -14q0 -20 20 -31l35 -18q45 -22 45 -66zM2120 -68q-55 0 -71.5 25.5t-16.5 93.5v19q0 66 17.5 90t70.5 24t68.5 -24t15.5 -90v-19
q0 -69 -16.5 -94t-67.5 -25zM2300 127v-193h-68v248h58l2 -16q38 18 61 18q25 0 36 -13.5t11 -51.5v-185h-67v175q0 22 -13 22q-4 0 -20 -4zM2005 -66h-68v248h68v-248zM567 115v-29h35v29q0 22 -18 22q-17 0 -17 -22zM1495 86h37v29q0 22 -16 22q-21 0 -21 -22v-29z
M1057 98v-82q0 -17 4 -23.5t14 -6.5q12 0 15.5 6.5t3.5 25.5v80q0 19 -3.5 26t-15.5 7q-10 0 -14 -7t-4 -26zM2099 98v-82q0 -17 4.5 -23.5t16.5 -6.5t15 6t3 26v80q0 20 -3 26.5t-15 6.5t-16.5 -7t-4.5 -26zM1499 -178q16 0 22.5 -9t6.5 -34v-117h-41v111q0 14 -8 14
q-3 0 -7.5 -1t-7.5 -1v-123h-43v209h41v-59q23 10 37 10zM1589 -168h-43v39h43v-39zM2177 -186v57h45v-209h-37l-4 10q-22 -12 -37 -12q-18 0 -25.5 10t-7.5 37v60q0 33 8 44t27 11q11 0 31 -8zM2279 -168h-41v39h41v-39zM893 -158h45v-22h16v-33h-16v-78v-7.5t1 -5t3 -3
t6 -0.5h6v-31h-20q-28 0 -34.5 11t-6.5 46v68h-12v33h12v22zM1348 -158h41v-22h18v-33h-18v-78q0 -16 12 -16h6v-31h-21q-27 0 -32.5 10.5t-5.5 46.5v68h-13v33h13v22zM1913 -158h43v-22h18v-33h-18v-78v-7.5t1 -5t3 -3t6 -0.5h8v-31h-22q-15 0 -22.5 2.5t-11.5 10.5
t-4.5 16t-0.5 28v68h-12v33h12v22zM1167 -178q19 0 26 -10.5t7 -38.5v-56q0 -34 -8 -45.5t-25 -11.5q-19 0 -30 8v-59h-45v211h36l2 -10q22 12 37 12zM1272 -178q33 0 43 -14t10 -52v-26h-63v-23v-7.5t1 -5t3 -3t6 -0.5q10 0 10 12v14h43v-14q0 -23 -12 -33t-41 -10
q-34 0 -44.5 12t-10.5 45v41q0 36 11.5 50t43.5 14zM1661 -242l22 -12q29 -13 29 -43q0 -43 -53 -43q-27 0 -40 11t-13 38v8h36v-4q0 -20 17 -20q12 0 12 10t-12 16l-25 13q-28 12 -28 43q0 47 51 47q53 0 53 -53v-2h-39q0 22 -12 22t-12 -10t14 -21zM1839 -242l23 -12
q28 -12 28 -43q0 -43 -55 -43q-27 0 -38 11t-11 38v8h35v-4q0 -20 14 -20q12 0 12 10t-12 16l-20 13q-31 12 -31 43q0 47 49 47q55 0 55 -53v-2h-37q0 22 -16 22q-12 0 -12 -10t16 -21zM2355 -178q33 0 43 -16t10 -58v-10q0 -45 -10.5 -61.5t-42.5 -16.5q-34 0 -44.5 16.5
t-10.5 59.5v12q0 43 10.5 58.5t44.5 15.5zM395 -180l17 -92l10 92h43l-29 -158h-41l-20 88l-17 -88h-43l-28 158h43l10 -92l18 92h37zM580 -180l16 -92l10 92h43l-31 -158h-40l-21 88l-18 -88h-41l-27 158h43l8 -92l17 92h41zM778 -272l10 92h46l-29 -158h-45l-19 88
l-18 -88h-41l-29 158h43l11 -92l16 92h39zM1024 -244l16 64h41l-59 -211h-39l16 53l-38 158h43l10 -66q4 -15 6 -35q4 36 4 37zM1589 -338h-43v158h43v-158zM2052 -303v123h43v-158h-35l-4 8q-17 -10 -39 -10q-30 0 -30 41v119h43v-113q0 -14 8 -14t14 4zM2279 -338h-41v158
h41v-158zM1262 -244h22v19q0 14 -12 14q-10 0 -10 -14v-19zM2177 -303v88q-1 0 -4 1t-6 1q-10 0 -10 -20v-54q0 -20 10 -20q2 0 10 4zM1157 -287v54q0 12 -2 15t-8 3h-10v-90q1 0 4 -1t6 -1q10 0 10 20zM2365 -285v52v9.5t-1 5t-3 3t-6 0.5q-8 0 -10 -3t-2 -15v-52
q0 -22 12 -22q10 0 10 22zM877 -338h-43v41h43v-41zM1767 -338h-41v41h41v-41z" />
    <glyph glyph-name="greater" unicode="&#x3e;" 
d="M1868 1194l141 27v-105l-256 -49v543l256 47v-105l-141 -26v-113l133 27l-2 -94l-131 -25v-127zM1559 1235l-54 -8v-211l-114 -21v543l135 29q87 17 128 -7.5t50 -97.5q8 -99 -24 -154t-121 -73zM924 903l-111 -20v438l-82 -16v102l346 68l88 -224l76 258l123 23
l-137 -397v-172l-115 -21v176l-102 242l-86 -19v-438zM1532 1479l-29 -4v-160l37 6q63 11 49 119q-5 45 -57 39zM1905 637l-9 399l121 25l-8 -406zM1726 453q-62 -11 -99.5 7.5t-45.5 57.5q-3 39 0 84l100 21q0 -42 2 -50q5 -23 39 -20q30 6 27 41q-1 13 -10 28t-17.5 24.5
t-33.5 35.5l-43 39q-40 37 -54.5 70.5t-13.5 82.5q3 109 123 132q58 11 98.5 -4t50.5 -62q4 -40 2 -63l-102 -21q0 32 -8.5 44.5t-30.5 8.5q-25 -5 -22 -35q0 -6 1 -10.5t2 -8.5t4 -8.5t5 -7t8 -8.5l9.5 -9.5l13 -13t16.5 -15.5l37 -39q36 -36 53 -67.5t21 -74.5
q3 -72 -27 -106.5t-105 -52.5zM1415 942l109 21v-89l-109 -24v92zM1241 588l-76 -15v-223l-112 -20v540l112 25l-2 -219l78 16l4 215l111 23v-541l-115 -22v221zM926 743v-438l-113 -20v436l-80 -16v104l273 53v-104zM1415 809l109 18v-405l-109 -23v410zM1905 588l108 22
l-2 -96l-106 -20v94zM1937 262h68v-59h-68v59zM473 156v-121q0 -54 -21.5 -77.5t-82.5 -23.5h-82v318h82q62 0 83 -22t21 -74zM1434 252l-66 -318h-68l-65 318h72l10 -55q7 -44 18 -131q2 29 19 131l10 55h70zM356 201v-215h9q21 0 29 10.5t7 36.5v123q0 25 -7.5 35
t-26.5 10h-11zM602 20h64v-20q0 -35 -19.5 -51.5t-64.5 -16.5q-50 0 -66 19.5t-16 71.5v67q0 55 17 74.5t67 19.5q51 0 66.5 -21t15.5 -77v-43h-99v-35q0 -17 3 -21.5t12 -4.5q20 0 20 22v16zM760 127v-193h-68v248h56l6 -16q34 18 61 18q28 0 37 -18q38 18 63 18
q26 0 36 -13t10 -52v-185h-66v175q0 22 -12 22q-5 0 -21 -4v-193h-65v175q0 22 -15 22q-6 0 -22 -4zM1075 -68q-53 0 -69.5 25.5t-16.5 93.5v19q0 66 17.5 90t68.5 24q53 0 69.5 -24.5t16.5 -89.5v-19q0 -69 -17 -94t-69 -25zM1513 184q53 0 67.5 -20.5t14.5 -77.5v-43h-100
v-35q0 -17 3.5 -21.5t14.5 -4.5q19 0 19 22v16h63v-20q0 -35 -19 -51.5t-65 -16.5q-50 0 -65.5 19.5t-15.5 71.5v67q0 56 16 75t67 19zM1681 182l5 -24q23 26 45 26v-65q-14 0 -41 -10v-175h-66v248h57zM1915 4v-2q0 -34 -22 -52t-62 -18q-42 0 -62 18.5t-20 61.5v8h59v-6
q0 -30 23 -30q20 0 20 18q0 14 -20 23l-37 20q-45 25 -45 68v2q0 69 78 69q84 0 84 -80v-6h-60v2q0 19 -4 26t-16 7q-16 0 -16 -14q0 -20 20 -31l35 -18q45 -22 45 -66zM2120 -68q-55 0 -71.5 25.5t-16.5 93.5v19q0 66 17.5 90t70.5 24t68.5 -24t15.5 -90v-19
q0 -69 -16.5 -94t-67.5 -25zM2300 127v-193h-68v248h58l2 -16q38 18 61 18q25 0 36 -13.5t11 -51.5v-185h-67v175q0 22 -13 22q-4 0 -20 -4zM2005 -66h-68v248h68v-248zM567 115v-29h35v29q0 22 -18 22q-17 0 -17 -22zM1495 86h37v29q0 22 -16 22q-21 0 -21 -22v-29z
M1057 98v-82q0 -17 4 -23.5t14 -6.5q12 0 15.5 6.5t3.5 25.5v80q0 19 -3.5 26t-15.5 7q-10 0 -14 -7t-4 -26zM2099 98v-82q0 -17 4.5 -23.5t16.5 -6.5t15 6t3 26v80q0 20 -3 26.5t-15 6.5t-16.5 -7t-4.5 -26zM1499 -178q16 0 22.5 -9t6.5 -34v-117h-41v111q0 14 -8 14
q-3 0 -7.5 -1t-7.5 -1v-123h-43v209h41v-59q23 10 37 10zM1589 -168h-43v39h43v-39zM2177 -186v57h45v-209h-37l-4 10q-22 -12 -37 -12q-18 0 -25.5 10t-7.5 37v60q0 33 8 44t27 11q11 0 31 -8zM2279 -168h-41v39h41v-39zM893 -158h45v-22h16v-33h-16v-78v-7.5t1 -5t3 -3
t6 -0.5h6v-31h-20q-28 0 -34.5 11t-6.5 46v68h-12v33h12v22zM1348 -158h41v-22h18v-33h-18v-78q0 -16 12 -16h6v-31h-21q-27 0 -32.5 10.5t-5.5 46.5v68h-13v33h13v22zM1913 -158h43v-22h18v-33h-18v-78v-7.5t1 -5t3 -3t6 -0.5h8v-31h-22q-15 0 -22.5 2.5t-11.5 10.5
t-4.5 16t-0.5 28v68h-12v33h12v22zM1167 -178q19 0 26 -10.5t7 -38.5v-56q0 -34 -8 -45.5t-25 -11.5q-19 0 -30 8v-59h-45v211h36l2 -10q22 12 37 12zM1272 -178q33 0 43 -14t10 -52v-26h-63v-23v-7.5t1 -5t3 -3t6 -0.5q10 0 10 12v14h43v-14q0 -23 -12 -33t-41 -10
q-34 0 -44.5 12t-10.5 45v41q0 36 11.5 50t43.5 14zM1661 -242l22 -12q29 -13 29 -43q0 -43 -53 -43q-27 0 -40 11t-13 38v8h36v-4q0 -20 17 -20q12 0 12 10t-12 16l-25 13q-28 12 -28 43q0 47 51 47q53 0 53 -53v-2h-39q0 22 -12 22t-12 -10t14 -21zM1839 -242l23 -12
q28 -12 28 -43q0 -43 -55 -43q-27 0 -38 11t-11 38v8h35v-4q0 -20 14 -20q12 0 12 10t-12 16l-20 13q-31 12 -31 43q0 47 49 47q55 0 55 -53v-2h-37q0 22 -16 22q-12 0 -12 -10t16 -21zM2355 -178q33 0 43 -16t10 -58v-10q0 -45 -10.5 -61.5t-42.5 -16.5q-34 0 -44.5 16.5
t-10.5 59.5v12q0 43 10.5 58.5t44.5 15.5zM395 -180l17 -92l10 92h43l-29 -158h-41l-20 88l-17 -88h-43l-28 158h43l10 -92l18 92h37zM580 -180l16 -92l10 92h43l-31 -158h-40l-21 88l-18 -88h-41l-27 158h43l8 -92l17 92h41zM778 -272l10 92h46l-29 -158h-45l-19 88
l-18 -88h-41l-29 158h43l11 -92l16 92h39zM1024 -244l16 64h41l-59 -211h-39l16 53l-38 158h43l10 -66q4 -15 6 -35q4 36 4 37zM1589 -338h-43v158h43v-158zM2052 -303v123h43v-158h-35l-4 8q-17 -10 -39 -10q-30 0 -30 41v119h43v-113q0 -14 8 -14t14 4zM2279 -338h-41v158
h41v-158zM1262 -244h22v19q0 14 -12 14q-10 0 -10 -14v-19zM2177 -303v88q-1 0 -4 1t-6 1q-10 0 -10 -20v-54q0 -20 10 -20q2 0 10 4zM1157 -287v54q0 12 -2 15t-8 3h-10v-90q1 0 4 -1t6 -1q10 0 10 20zM2365 -285v52v9.5t-1 5t-3 3t-6 0.5q-8 0 -10 -3t-2 -15v-52
q0 -22 12 -22q10 0 10 22zM877 -338h-43v41h43v-41zM1767 -338h-41v41h41v-41z" />
    <glyph glyph-name="question" unicode="?" horiz-adv-x="860" 
d="M815 1153v-37q0 -73 -14 -132t-42.5 -104.5t-58.5 -77.5t-73 -67l-109 -88v-209h-303v326l129 100q141 109 141 230v14q0 69 -45.5 101t-120.5 32q-127 0 -247 -14v260q143 20 282 20q241 0 351 -91t110 -263zM215 0v311h309v-311h-309z" />
    <glyph glyph-name="at" unicode="@" horiz-adv-x="1619" 
d="M66 195v559q0 289 172 445.5t520 156.5h127q336 0 503.5 -161.5t167.5 -471.5v-264q0 -112 -20 -193.5t-67 -143t-129 -92t-201 -30.5h-221l-21 59q-140 -67 -268 -67q-185 0 -185 209v51q0 133 54 189.5t219 97.5l147 39v122q0 37 -14 52.5t-49 15.5q-19 0 -30 -3
t-23 -15t-17.5 -40t-5.5 -73v-16h-250v12q0 60 7 104t28.5 87.5t59 70.5t101.5 44t152 17q96 0 159.5 -16.5t100.5 -53t51.5 -87.5t14.5 -127v-490q76 3 112.5 73t36.5 218v246q0 234 -113.5 333t-369.5 101q-491 0 -491 -403v-543q0 -126 31 -208t98 -127t154.5 -62
t219.5 -17q135 0 320 36.5t334 96.5v-213q-157 -63 -355 -93t-370 -30q-359 0 -524.5 155t-165.5 450zM723 272q0 -31 2 -48.5t14.5 -33.5t36.5 -16q38 0 88 25v233l-28 -6q-72 -14 -92.5 -48.5t-20.5 -105.5z" />
    <glyph glyph-name="A" unicode="A" horiz-adv-x="985" 
d="M338 0h-320l316 1497h317l316 -1497h-322l-37 240h-235zM408 475h165l-81 522q-15 -87 -42.5 -261t-41.5 -261z" />
    <glyph glyph-name="B" unicode="B" horiz-adv-x="993" 
d="M778 780q100 -51 137 -133.5t37 -216.5q0 -114 -18.5 -188.5t-68 -132t-141 -83.5t-232.5 -26h-420v1497h403q112 0 194.5 -19.5t133.5 -52t81.5 -83.5t42 -106t11.5 -126q0 -132 -33.5 -206.5t-126.5 -123.5zM453 1253h-54v-360h56q151 0 151 168v35q0 157 -153 157z
M623 401v91q0 89 -41 127t-117 38h-66v-411h64q160 0 160 155z" />
    <glyph glyph-name="C" unicode="C" horiz-adv-x="999" 
d="M608 412l-2 161h332v-102q0 -99 -10.5 -171.5t-37.5 -133.5t-72.5 -98t-116.5 -57.5t-169 -20.5h-57q-101 0 -173.5 20.5t-119 57.5t-73.5 98.5t-37.5 133t-10.5 171.5v567q0 97 10.5 167t38 129.5t74 96t119.5 56.5t174 20h55q122 0 202.5 -29.5t124.5 -92t61.5 -144.5
t17.5 -203v-69h-332v116q0 75 -11.5 114.5t-32 52t-58.5 12.5q-64 0 -88.5 -34.5t-24.5 -144.5v-673q0 -76 12 -114t35 -50t68 -12q39 0 59.5 11.5t32 50.5t10.5 114z" />
    <glyph glyph-name="D" unicode="D" horiz-adv-x="1007" 
d="M463 0h-391v1497h391q119 0 204 -19t138.5 -54t84.5 -93.5t42.5 -127t11.5 -165.5l2 -567q0 -100 -11.5 -170.5t-43 -130.5t-85.5 -95.5t-139 -55t-204 -19.5zM397 1253v-1007h39q97 0 138 48t40 169l-2 571q0 121 -39.5 170t-130.5 49h-45z" />
    <glyph glyph-name="E" unicode="E" horiz-adv-x="792" vert-adv-y="2457" 
d="M752 0h-680v1497h669v-287h-344v-317h326l2 -250h-328v-356h355v-287z" />
    <glyph glyph-name="F" unicode="F" horiz-adv-x="782" 
d="M397 0h-325v1497h669v-287h-344v-327h326l2 -250h-328v-633z" />
    <glyph glyph-name="G" unicode="G" horiz-adv-x="999" 
d="M938 1038v-69h-332v116q0 75 -11.5 114.5t-32 52t-58.5 12.5q-64 0 -88.5 -34.5t-24.5 -144.5v-673q0 -76 12 -114t35 -50t68 -12q30 0 48.5 6t34.5 24t23 54t6 92l-2 110h-108v258h430v-309q0 -99 -10.5 -171.5t-37.5 -133.5t-72.5 -98t-116.5 -57.5t-169 -20.5h-57
q-101 0 -173.5 20.5t-119 57.5t-73.5 98.5t-37.5 133t-10.5 171.5v567q0 97 10.5 167t38 129.5t74 96t119.5 56.5t174 20h55q122 0 202.5 -29.5t124.5 -92t61.5 -144.5t17.5 -203z" />
    <glyph glyph-name="H" unicode="H" horiz-adv-x="1030" 
d="M633 895v602h325v-1497h-325v608h-236v-608h-325v1497h325v-602h236z" />
    <glyph glyph-name="I" unicode="I" horiz-adv-x="468" vert-adv-y="2457" 
d="M397 0h-325v1497h325v-1497z" />
    <glyph glyph-name="J" unicode="J" horiz-adv-x="968" vert-adv-y="2457" 
d="M57 381v182h326v-155q0 -86 21.5 -120t72.5 -34q53 0 74.5 33.5t21.5 120.5v802h-364v287h690l2 -1116q0 -112 -26.5 -188t-81.5 -120.5t-131 -63.5t-183 -19q-213 0 -317.5 87.5t-104.5 303.5z" />
    <glyph glyph-name="K" unicode="K" horiz-adv-x="983" 
d="M623 1497h331l-225 -743l223 -754h-329l-166 545l-23 94h-37v-639h-325v1497h325v-641h41l21 94z" />
    <glyph glyph-name="L" unicode="L" horiz-adv-x="815" vert-adv-y="2457" 
d="M776 0h-704v1497h325v-1210h379v-287z" />
    <glyph glyph-name="M" unicode="M" horiz-adv-x="1277" 
d="M395 0h-323v1497h331l236 -723l246 723h321v-1497h-323v764l-142 -402h-204l-142 402v-764z" />
    <glyph glyph-name="N" unicode="N" horiz-adv-x="1056" 
d="M387 0h-315v1497h301l297 -819v819h315v-1497h-285l-313 770v-770z" />
    <glyph glyph-name="O" unicode="O" horiz-adv-x="999" 
d="M61 471v567q0 97 10.5 167t38 129.5t74 96t119.5 56.5t174 20h55q122 0 202.5 -29.5t124.5 -92t61.5 -144.5t17.5 -203v-567q0 -99 -10.5 -171.5t-37.5 -133.5t-72.5 -98t-116.5 -57.5t-169 -20.5h-57q-101 0 -173.5 20.5t-119 57.5t-73.5 98.5t-37.5 133t-10.5 171.5z
M391 1085v-673q0 -76 12 -114t35 -50t68 -12q39 0 59 11.5t31.5 50t11.5 114.5l-2 673q0 75 -11.5 114.5t-32 52t-58.5 12.5q-64 0 -88.5 -34.5t-24.5 -144.5z" />
    <glyph glyph-name="P" unicode="P" horiz-adv-x="997" 
d="M397 0h-325v1497h417q141 0 232.5 -26t142 -83.5t69.5 -134.5t19 -194q0 -128 -28 -213t-92 -137.5t-159.5 -74.5t-238.5 -22h-37v-612zM397 1253v-407h68q156 0 156 168v82q0 157 -158 157h-66z" />
    <glyph glyph-name="Q" unicode="Q" horiz-adv-x="1001" 
d="M836 84l208 -244h-346l-139 150h-27h-57q-101 0 -173.5 20.5t-119 57.5t-73.5 98.5t-37.5 133t-10.5 171.5v567q0 97 10.5 167t38 129.5t74 96t119.5 56.5t174 20h55q122 0 202.5 -29.5t124.5 -92t61.5 -144.5t17.5 -203v-567q0 -140 -23 -235t-79 -152zM391 1085v-673
q0 -76 12 -114t35 -50t68 -12q39 0 59 11.5t31.5 50t11.5 114.5l-2 673q0 75 -11.5 114.5t-32 52t-58.5 12.5q-64 0 -88.5 -34.5t-24.5 -144.5z" />
    <glyph glyph-name="R" unicode="R" horiz-adv-x="993" vert-adv-y="2457" 
d="M397 0h-325v1497h417q113 0 194.5 -17.5t133 -48.5t82 -81.5t42 -108.5t11.5 -137q0 -149 -51 -224.5t-160 -105.5q59 -10 100 -38.5t62.5 -72t30 -90.5t8.5 -106v-467h-336v440q0 114 -32.5 166.5t-106.5 52.5h-70v-659zM397 1253v-360h68q73 0 114.5 38.5t41.5 115.5
v59q0 147 -158 147h-66z" />
    <glyph glyph-name="S" unicode="S" horiz-adv-x="919" vert-adv-y="2457" 
d="M45 1145v4q0 174 102.5 266t309.5 92q94 0 163.5 -15.5t125.5 -52t85 -104.5t29 -166v-102h-307v55q0 59 -21 89t-73 30q-41 0 -63.5 -21t-22.5 -55v-4q0 -85 147 -221l148 -135q113 -104 159.5 -208t46.5 -251v-6q0 -85 -20 -147t-66 -109t-127 -70.5t-198 -23.5
t-192.5 21t-121 72t-63.5 125.5t-18 190.5v76h292v-96q0 -123 101 -123q88 0 88 102v2q0 55 -26.5 97.5t-98.5 109.5l-168 158q-114 106 -162.5 199t-48.5 221z" />
    <glyph glyph-name="T" unicode="T" horiz-adv-x="874" 
d="M274 1210h-235v287h797v-287h-236v-1210h-326v1210z" />
    <glyph glyph-name="U" unicode="U" horiz-adv-x="1021" 
d="M629 412v1085h325v-1026q0 -125 -18 -209.5t-62.5 -148t-125.5 -93.5t-203 -30h-58q-101 0 -174 20.5t-120.5 57.5t-75 98t-38.5 133.5t-11 171.5v1026h325v-1085q0 -75 14.5 -114t39 -50.5t69.5 -11.5q40 0 62.5 11.5t36.5 51t14 113.5z" />
    <glyph glyph-name="V" unicode="V" horiz-adv-x="964" 
d="M324 0l-306 1497h330l45 -260q21 -127 37.5 -241.5t31 -225.5t21.5 -158q47 378 88 625l43 260h332l-305 -1497h-317z" />
    <glyph glyph-name="W" unicode="W" horiz-adv-x="1619" 
d="M317 0l-288 1497h329l80 -475q34 -200 60 -416q9 68 21 137t29.5 155.5t24.5 127.5l89 471h299l86 -467q60 -312 75 -424q25 215 62 424l76 467h331l-286 -1497h-322l-106 526q-34 166 -68 410q-34 -244 -68 -410l-104 -526h-320z" />
    <glyph glyph-name="X" unicode="X" horiz-adv-x="987" 
d="M360 0h-331l235 754l-233 743h329l134 -514l133 514h331l-235 -754l233 -743h-329l-133 522z" />
    <glyph glyph-name="Y" unicode="Y" horiz-adv-x="964" 
d="M319 477l-301 1020h330l84 -399q46 -220 51 -307q3 97 45 301l86 405h332l-301 -1018v-479h-326v477z" />
    <glyph glyph-name="Z" unicode="Z" horiz-adv-x="862" 
d="M33 0v225l444 985h-442v287h794v-215l-454 -995h454v-287h-796z" />
    <glyph glyph-name="bracketleft" unicode="[" 
d="M1868 1194l141 27v-105l-256 -49v543l256 47v-105l-141 -26v-113l133 27l-2 -94l-131 -25v-127zM1559 1235l-54 -8v-211l-114 -21v543l135 29q87 17 128 -7.5t50 -97.5q8 -99 -24 -154t-121 -73zM924 903l-111 -20v438l-82 -16v102l346 68l88 -224l76 258l123 23
l-137 -397v-172l-115 -21v176l-102 242l-86 -19v-438zM1532 1479l-29 -4v-160l37 6q63 11 49 119q-5 45 -57 39zM1905 637l-9 399l121 25l-8 -406zM1726 453q-62 -11 -99.5 7.5t-45.5 57.5q-3 39 0 84l100 21q0 -42 2 -50q5 -23 39 -20q30 6 27 41q-1 13 -10 28t-17.5 24.5
t-33.5 35.5l-43 39q-40 37 -54.5 70.5t-13.5 82.5q3 109 123 132q58 11 98.5 -4t50.5 -62q4 -40 2 -63l-102 -21q0 32 -8.5 44.5t-30.5 8.5q-25 -5 -22 -35q0 -6 1 -10.5t2 -8.5t4 -8.5t5 -7t8 -8.5l9.5 -9.5l13 -13t16.5 -15.5l37 -39q36 -36 53 -67.5t21 -74.5
q3 -72 -27 -106.5t-105 -52.5zM1415 942l109 21v-89l-109 -24v92zM1241 588l-76 -15v-223l-112 -20v540l112 25l-2 -219l78 16l4 215l111 23v-541l-115 -22v221zM926 743v-438l-113 -20v436l-80 -16v104l273 53v-104zM1415 809l109 18v-405l-109 -23v410zM1905 588l108 22
l-2 -96l-106 -20v94zM1937 262h68v-59h-68v59zM473 156v-121q0 -54 -21.5 -77.5t-82.5 -23.5h-82v318h82q62 0 83 -22t21 -74zM1434 252l-66 -318h-68l-65 318h72l10 -55q7 -44 18 -131q2 29 19 131l10 55h70zM356 201v-215h9q21 0 29 10.5t7 36.5v123q0 25 -7.5 35
t-26.5 10h-11zM602 20h64v-20q0 -35 -19.5 -51.5t-64.5 -16.5q-50 0 -66 19.5t-16 71.5v67q0 55 17 74.5t67 19.5q51 0 66.5 -21t15.5 -77v-43h-99v-35q0 -17 3 -21.5t12 -4.5q20 0 20 22v16zM760 127v-193h-68v248h56l6 -16q34 18 61 18q28 0 37 -18q38 18 63 18
q26 0 36 -13t10 -52v-185h-66v175q0 22 -12 22q-5 0 -21 -4v-193h-65v175q0 22 -15 22q-6 0 -22 -4zM1075 -68q-53 0 -69.5 25.5t-16.5 93.5v19q0 66 17.5 90t68.5 24q53 0 69.5 -24.5t16.5 -89.5v-19q0 -69 -17 -94t-69 -25zM1513 184q53 0 67.5 -20.5t14.5 -77.5v-43h-100
v-35q0 -17 3.5 -21.5t14.5 -4.5q19 0 19 22v16h63v-20q0 -35 -19 -51.5t-65 -16.5q-50 0 -65.5 19.5t-15.5 71.5v67q0 56 16 75t67 19zM1681 182l5 -24q23 26 45 26v-65q-14 0 -41 -10v-175h-66v248h57zM1915 4v-2q0 -34 -22 -52t-62 -18q-42 0 -62 18.5t-20 61.5v8h59v-6
q0 -30 23 -30q20 0 20 18q0 14 -20 23l-37 20q-45 25 -45 68v2q0 69 78 69q84 0 84 -80v-6h-60v2q0 19 -4 26t-16 7q-16 0 -16 -14q0 -20 20 -31l35 -18q45 -22 45 -66zM2120 -68q-55 0 -71.5 25.5t-16.5 93.5v19q0 66 17.5 90t70.5 24t68.5 -24t15.5 -90v-19
q0 -69 -16.5 -94t-67.5 -25zM2300 127v-193h-68v248h58l2 -16q38 18 61 18q25 0 36 -13.5t11 -51.5v-185h-67v175q0 22 -13 22q-4 0 -20 -4zM2005 -66h-68v248h68v-248zM567 115v-29h35v29q0 22 -18 22q-17 0 -17 -22zM1495 86h37v29q0 22 -16 22q-21 0 -21 -22v-29z
M1057 98v-82q0 -17 4 -23.5t14 -6.5q12 0 15.5 6.5t3.5 25.5v80q0 19 -3.5 26t-15.5 7q-10 0 -14 -7t-4 -26zM2099 98v-82q0 -17 4.5 -23.5t16.5 -6.5t15 6t3 26v80q0 20 -3 26.5t-15 6.5t-16.5 -7t-4.5 -26zM1499 -178q16 0 22.5 -9t6.5 -34v-117h-41v111q0 14 -8 14
q-3 0 -7.5 -1t-7.5 -1v-123h-43v209h41v-59q23 10 37 10zM1589 -168h-43v39h43v-39zM2177 -186v57h45v-209h-37l-4 10q-22 -12 -37 -12q-18 0 -25.5 10t-7.5 37v60q0 33 8 44t27 11q11 0 31 -8zM2279 -168h-41v39h41v-39zM893 -158h45v-22h16v-33h-16v-78v-7.5t1 -5t3 -3
t6 -0.5h6v-31h-20q-28 0 -34.5 11t-6.5 46v68h-12v33h12v22zM1348 -158h41v-22h18v-33h-18v-78q0 -16 12 -16h6v-31h-21q-27 0 -32.5 10.5t-5.5 46.5v68h-13v33h13v22zM1913 -158h43v-22h18v-33h-18v-78v-7.5t1 -5t3 -3t6 -0.5h8v-31h-22q-15 0 -22.5 2.5t-11.5 10.5
t-4.5 16t-0.5 28v68h-12v33h12v22zM1167 -178q19 0 26 -10.5t7 -38.5v-56q0 -34 -8 -45.5t-25 -11.5q-19 0 -30 8v-59h-45v211h36l2 -10q22 12 37 12zM1272 -178q33 0 43 -14t10 -52v-26h-63v-23v-7.5t1 -5t3 -3t6 -0.5q10 0 10 12v14h43v-14q0 -23 -12 -33t-41 -10
q-34 0 -44.5 12t-10.5 45v41q0 36 11.5 50t43.5 14zM1661 -242l22 -12q29 -13 29 -43q0 -43 -53 -43q-27 0 -40 11t-13 38v8h36v-4q0 -20 17 -20q12 0 12 10t-12 16l-25 13q-28 12 -28 43q0 47 51 47q53 0 53 -53v-2h-39q0 22 -12 22t-12 -10t14 -21zM1839 -242l23 -12
q28 -12 28 -43q0 -43 -55 -43q-27 0 -38 11t-11 38v8h35v-4q0 -20 14 -20q12 0 12 10t-12 16l-20 13q-31 12 -31 43q0 47 49 47q55 0 55 -53v-2h-37q0 22 -16 22q-12 0 -12 -10t16 -21zM2355 -178q33 0 43 -16t10 -58v-10q0 -45 -10.5 -61.5t-42.5 -16.5q-34 0 -44.5 16.5
t-10.5 59.5v12q0 43 10.5 58.5t44.5 15.5zM395 -180l17 -92l10 92h43l-29 -158h-41l-20 88l-17 -88h-43l-28 158h43l10 -92l18 92h37zM580 -180l16 -92l10 92h43l-31 -158h-40l-21 88l-18 -88h-41l-27 158h43l8 -92l17 92h41zM778 -272l10 92h46l-29 -158h-45l-19 88
l-18 -88h-41l-29 158h43l11 -92l16 92h39zM1024 -244l16 64h41l-59 -211h-39l16 53l-38 158h43l10 -66q4 -15 6 -35q4 36 4 37zM1589 -338h-43v158h43v-158zM2052 -303v123h43v-158h-35l-4 8q-17 -10 -39 -10q-30 0 -30 41v119h43v-113q0 -14 8 -14t14 4zM2279 -338h-41v158
h41v-158zM1262 -244h22v19q0 14 -12 14q-10 0 -10 -14v-19zM2177 -303v88q-1 0 -4 1t-6 1q-10 0 -10 -20v-54q0 -20 10 -20q2 0 10 4zM1157 -287v54q0 12 -2 15t-8 3h-10v-90q1 0 4 -1t6 -1q10 0 10 20zM2365 -285v52v9.5t-1 5t-3 3t-6 0.5q-8 0 -10 -3t-2 -15v-52
q0 -22 12 -22q10 0 10 22zM877 -338h-43v41h43v-41zM1767 -338h-41v41h41v-41z" />
    <glyph glyph-name="backslash" unicode="\" 
d="M1868 1194l141 27v-105l-256 -49v543l256 47v-105l-141 -26v-113l133 27l-2 -94l-131 -25v-127zM1559 1235l-54 -8v-211l-114 -21v543l135 29q87 17 128 -7.5t50 -97.5q8 -99 -24 -154t-121 -73zM924 903l-111 -20v438l-82 -16v102l346 68l88 -224l76 258l123 23
l-137 -397v-172l-115 -21v176l-102 242l-86 -19v-438zM1532 1479l-29 -4v-160l37 6q63 11 49 119q-5 45 -57 39zM1905 637l-9 399l121 25l-8 -406zM1726 453q-62 -11 -99.5 7.5t-45.5 57.5q-3 39 0 84l100 21q0 -42 2 -50q5 -23 39 -20q30 6 27 41q-1 13 -10 28t-17.5 24.5
t-33.5 35.5l-43 39q-40 37 -54.5 70.5t-13.5 82.5q3 109 123 132q58 11 98.5 -4t50.5 -62q4 -40 2 -63l-102 -21q0 32 -8.5 44.5t-30.5 8.5q-25 -5 -22 -35q0 -6 1 -10.5t2 -8.5t4 -8.5t5 -7t8 -8.5l9.5 -9.5l13 -13t16.5 -15.5l37 -39q36 -36 53 -67.5t21 -74.5
q3 -72 -27 -106.5t-105 -52.5zM1415 942l109 21v-89l-109 -24v92zM1241 588l-76 -15v-223l-112 -20v540l112 25l-2 -219l78 16l4 215l111 23v-541l-115 -22v221zM926 743v-438l-113 -20v436l-80 -16v104l273 53v-104zM1415 809l109 18v-405l-109 -23v410zM1905 588l108 22
l-2 -96l-106 -20v94zM1937 262h68v-59h-68v59zM473 156v-121q0 -54 -21.5 -77.5t-82.5 -23.5h-82v318h82q62 0 83 -22t21 -74zM1434 252l-66 -318h-68l-65 318h72l10 -55q7 -44 18 -131q2 29 19 131l10 55h70zM356 201v-215h9q21 0 29 10.5t7 36.5v123q0 25 -7.5 35
t-26.5 10h-11zM602 20h64v-20q0 -35 -19.5 -51.5t-64.5 -16.5q-50 0 -66 19.5t-16 71.5v67q0 55 17 74.5t67 19.5q51 0 66.5 -21t15.5 -77v-43h-99v-35q0 -17 3 -21.5t12 -4.5q20 0 20 22v16zM760 127v-193h-68v248h56l6 -16q34 18 61 18q28 0 37 -18q38 18 63 18
q26 0 36 -13t10 -52v-185h-66v175q0 22 -12 22q-5 0 -21 -4v-193h-65v175q0 22 -15 22q-6 0 -22 -4zM1075 -68q-53 0 -69.5 25.5t-16.5 93.5v19q0 66 17.5 90t68.5 24q53 0 69.5 -24.5t16.5 -89.5v-19q0 -69 -17 -94t-69 -25zM1513 184q53 0 67.5 -20.5t14.5 -77.5v-43h-100
v-35q0 -17 3.5 -21.5t14.5 -4.5q19 0 19 22v16h63v-20q0 -35 -19 -51.5t-65 -16.5q-50 0 -65.5 19.5t-15.5 71.5v67q0 56 16 75t67 19zM1681 182l5 -24q23 26 45 26v-65q-14 0 -41 -10v-175h-66v248h57zM1915 4v-2q0 -34 -22 -52t-62 -18q-42 0 -62 18.5t-20 61.5v8h59v-6
q0 -30 23 -30q20 0 20 18q0 14 -20 23l-37 20q-45 25 -45 68v2q0 69 78 69q84 0 84 -80v-6h-60v2q0 19 -4 26t-16 7q-16 0 -16 -14q0 -20 20 -31l35 -18q45 -22 45 -66zM2120 -68q-55 0 -71.5 25.5t-16.5 93.5v19q0 66 17.5 90t70.5 24t68.5 -24t15.5 -90v-19
q0 -69 -16.5 -94t-67.5 -25zM2300 127v-193h-68v248h58l2 -16q38 18 61 18q25 0 36 -13.5t11 -51.5v-185h-67v175q0 22 -13 22q-4 0 -20 -4zM2005 -66h-68v248h68v-248zM567 115v-29h35v29q0 22 -18 22q-17 0 -17 -22zM1495 86h37v29q0 22 -16 22q-21 0 -21 -22v-29z
M1057 98v-82q0 -17 4 -23.5t14 -6.5q12 0 15.5 6.5t3.5 25.5v80q0 19 -3.5 26t-15.5 7q-10 0 -14 -7t-4 -26zM2099 98v-82q0 -17 4.5 -23.5t16.5 -6.5t15 6t3 26v80q0 20 -3 26.5t-15 6.5t-16.5 -7t-4.5 -26zM1499 -178q16 0 22.5 -9t6.5 -34v-117h-41v111q0 14 -8 14
q-3 0 -7.5 -1t-7.5 -1v-123h-43v209h41v-59q23 10 37 10zM1589 -168h-43v39h43v-39zM2177 -186v57h45v-209h-37l-4 10q-22 -12 -37 -12q-18 0 -25.5 10t-7.5 37v60q0 33 8 44t27 11q11 0 31 -8zM2279 -168h-41v39h41v-39zM893 -158h45v-22h16v-33h-16v-78v-7.5t1 -5t3 -3
t6 -0.5h6v-31h-20q-28 0 -34.5 11t-6.5 46v68h-12v33h12v22zM1348 -158h41v-22h18v-33h-18v-78q0 -16 12 -16h6v-31h-21q-27 0 -32.5 10.5t-5.5 46.5v68h-13v33h13v22zM1913 -158h43v-22h18v-33h-18v-78v-7.5t1 -5t3 -3t6 -0.5h8v-31h-22q-15 0 -22.5 2.5t-11.5 10.5
t-4.5 16t-0.5 28v68h-12v33h12v22zM1167 -178q19 0 26 -10.5t7 -38.5v-56q0 -34 -8 -45.5t-25 -11.5q-19 0 -30 8v-59h-45v211h36l2 -10q22 12 37 12zM1272 -178q33 0 43 -14t10 -52v-26h-63v-23v-7.5t1 -5t3 -3t6 -0.5q10 0 10 12v14h43v-14q0 -23 -12 -33t-41 -10
q-34 0 -44.5 12t-10.5 45v41q0 36 11.5 50t43.5 14zM1661 -242l22 -12q29 -13 29 -43q0 -43 -53 -43q-27 0 -40 11t-13 38v8h36v-4q0 -20 17 -20q12 0 12 10t-12 16l-25 13q-28 12 -28 43q0 47 51 47q53 0 53 -53v-2h-39q0 22 -12 22t-12 -10t14 -21zM1839 -242l23 -12
q28 -12 28 -43q0 -43 -55 -43q-27 0 -38 11t-11 38v8h35v-4q0 -20 14 -20q12 0 12 10t-12 16l-20 13q-31 12 -31 43q0 47 49 47q55 0 55 -53v-2h-37q0 22 -16 22q-12 0 -12 -10t16 -21zM2355 -178q33 0 43 -16t10 -58v-10q0 -45 -10.5 -61.5t-42.5 -16.5q-34 0 -44.5 16.5
t-10.5 59.5v12q0 43 10.5 58.5t44.5 15.5zM395 -180l17 -92l10 92h43l-29 -158h-41l-20 88l-17 -88h-43l-28 158h43l10 -92l18 92h37zM580 -180l16 -92l10 92h43l-31 -158h-40l-21 88l-18 -88h-41l-27 158h43l8 -92l17 92h41zM778 -272l10 92h46l-29 -158h-45l-19 88
l-18 -88h-41l-29 158h43l11 -92l16 92h39zM1024 -244l16 64h41l-59 -211h-39l16 53l-38 158h43l10 -66q4 -15 6 -35q4 36 4 37zM1589 -338h-43v158h43v-158zM2052 -303v123h43v-158h-35l-4 8q-17 -10 -39 -10q-30 0 -30 41v119h43v-113q0 -14 8 -14t14 4zM2279 -338h-41v158
h41v-158zM1262 -244h22v19q0 14 -12 14q-10 0 -10 -14v-19zM2177 -303v88q-1 0 -4 1t-6 1q-10 0 -10 -20v-54q0 -20 10 -20q2 0 10 4zM1157 -287v54q0 12 -2 15t-8 3h-10v-90q1 0 4 -1t6 -1q10 0 10 20zM2365 -285v52v9.5t-1 5t-3 3t-6 0.5q-8 0 -10 -3t-2 -15v-52
q0 -22 12 -22q10 0 10 22zM877 -338h-43v41h43v-41zM1767 -338h-41v41h41v-41z" />
    <glyph glyph-name="bracketright" unicode="]" 
d="M1868 1194l141 27v-105l-256 -49v543l256 47v-105l-141 -26v-113l133 27l-2 -94l-131 -25v-127zM1559 1235l-54 -8v-211l-114 -21v543l135 29q87 17 128 -7.5t50 -97.5q8 -99 -24 -154t-121 -73zM924 903l-111 -20v438l-82 -16v102l346 68l88 -224l76 258l123 23
l-137 -397v-172l-115 -21v176l-102 242l-86 -19v-438zM1532 1479l-29 -4v-160l37 6q63 11 49 119q-5 45 -57 39zM1905 637l-9 399l121 25l-8 -406zM1726 453q-62 -11 -99.5 7.5t-45.5 57.5q-3 39 0 84l100 21q0 -42 2 -50q5 -23 39 -20q30 6 27 41q-1 13 -10 28t-17.5 24.5
t-33.5 35.5l-43 39q-40 37 -54.5 70.5t-13.5 82.5q3 109 123 132q58 11 98.5 -4t50.5 -62q4 -40 2 -63l-102 -21q0 32 -8.5 44.5t-30.5 8.5q-25 -5 -22 -35q0 -6 1 -10.5t2 -8.5t4 -8.5t5 -7t8 -8.5l9.5 -9.5l13 -13t16.5 -15.5l37 -39q36 -36 53 -67.5t21 -74.5
q3 -72 -27 -106.5t-105 -52.5zM1415 942l109 21v-89l-109 -24v92zM1241 588l-76 -15v-223l-112 -20v540l112 25l-2 -219l78 16l4 215l111 23v-541l-115 -22v221zM926 743v-438l-113 -20v436l-80 -16v104l273 53v-104zM1415 809l109 18v-405l-109 -23v410zM1905 588l108 22
l-2 -96l-106 -20v94zM1937 262h68v-59h-68v59zM473 156v-121q0 -54 -21.5 -77.5t-82.5 -23.5h-82v318h82q62 0 83 -22t21 -74zM1434 252l-66 -318h-68l-65 318h72l10 -55q7 -44 18 -131q2 29 19 131l10 55h70zM356 201v-215h9q21 0 29 10.5t7 36.5v123q0 25 -7.5 35
t-26.5 10h-11zM602 20h64v-20q0 -35 -19.5 -51.5t-64.5 -16.5q-50 0 -66 19.5t-16 71.5v67q0 55 17 74.5t67 19.5q51 0 66.5 -21t15.5 -77v-43h-99v-35q0 -17 3 -21.5t12 -4.5q20 0 20 22v16zM760 127v-193h-68v248h56l6 -16q34 18 61 18q28 0 37 -18q38 18 63 18
q26 0 36 -13t10 -52v-185h-66v175q0 22 -12 22q-5 0 -21 -4v-193h-65v175q0 22 -15 22q-6 0 -22 -4zM1075 -68q-53 0 -69.5 25.5t-16.5 93.5v19q0 66 17.5 90t68.5 24q53 0 69.5 -24.5t16.5 -89.5v-19q0 -69 -17 -94t-69 -25zM1513 184q53 0 67.5 -20.5t14.5 -77.5v-43h-100
v-35q0 -17 3.5 -21.5t14.5 -4.5q19 0 19 22v16h63v-20q0 -35 -19 -51.5t-65 -16.5q-50 0 -65.5 19.5t-15.5 71.5v67q0 56 16 75t67 19zM1681 182l5 -24q23 26 45 26v-65q-14 0 -41 -10v-175h-66v248h57zM1915 4v-2q0 -34 -22 -52t-62 -18q-42 0 -62 18.5t-20 61.5v8h59v-6
q0 -30 23 -30q20 0 20 18q0 14 -20 23l-37 20q-45 25 -45 68v2q0 69 78 69q84 0 84 -80v-6h-60v2q0 19 -4 26t-16 7q-16 0 -16 -14q0 -20 20 -31l35 -18q45 -22 45 -66zM2120 -68q-55 0 -71.5 25.5t-16.5 93.5v19q0 66 17.5 90t70.5 24t68.5 -24t15.5 -90v-19
q0 -69 -16.5 -94t-67.5 -25zM2300 127v-193h-68v248h58l2 -16q38 18 61 18q25 0 36 -13.5t11 -51.5v-185h-67v175q0 22 -13 22q-4 0 -20 -4zM2005 -66h-68v248h68v-248zM567 115v-29h35v29q0 22 -18 22q-17 0 -17 -22zM1495 86h37v29q0 22 -16 22q-21 0 -21 -22v-29z
M1057 98v-82q0 -17 4 -23.5t14 -6.5q12 0 15.5 6.5t3.5 25.5v80q0 19 -3.5 26t-15.5 7q-10 0 -14 -7t-4 -26zM2099 98v-82q0 -17 4.5 -23.5t16.5 -6.5t15 6t3 26v80q0 20 -3 26.5t-15 6.5t-16.5 -7t-4.5 -26zM1499 -178q16 0 22.5 -9t6.5 -34v-117h-41v111q0 14 -8 14
q-3 0 -7.5 -1t-7.5 -1v-123h-43v209h41v-59q23 10 37 10zM1589 -168h-43v39h43v-39zM2177 -186v57h45v-209h-37l-4 10q-22 -12 -37 -12q-18 0 -25.5 10t-7.5 37v60q0 33 8 44t27 11q11 0 31 -8zM2279 -168h-41v39h41v-39zM893 -158h45v-22h16v-33h-16v-78v-7.5t1 -5t3 -3
t6 -0.5h6v-31h-20q-28 0 -34.5 11t-6.5 46v68h-12v33h12v22zM1348 -158h41v-22h18v-33h-18v-78q0 -16 12 -16h6v-31h-21q-27 0 -32.5 10.5t-5.5 46.5v68h-13v33h13v22zM1913 -158h43v-22h18v-33h-18v-78v-7.5t1 -5t3 -3t6 -0.5h8v-31h-22q-15 0 -22.5 2.5t-11.5 10.5
t-4.5 16t-0.5 28v68h-12v33h12v22zM1167 -178q19 0 26 -10.5t7 -38.5v-56q0 -34 -8 -45.5t-25 -11.5q-19 0 -30 8v-59h-45v211h36l2 -10q22 12 37 12zM1272 -178q33 0 43 -14t10 -52v-26h-63v-23v-7.5t1 -5t3 -3t6 -0.5q10 0 10 12v14h43v-14q0 -23 -12 -33t-41 -10
q-34 0 -44.5 12t-10.5 45v41q0 36 11.5 50t43.5 14zM1661 -242l22 -12q29 -13 29 -43q0 -43 -53 -43q-27 0 -40 11t-13 38v8h36v-4q0 -20 17 -20q12 0 12 10t-12 16l-25 13q-28 12 -28 43q0 47 51 47q53 0 53 -53v-2h-39q0 22 -12 22t-12 -10t14 -21zM1839 -242l23 -12
q28 -12 28 -43q0 -43 -55 -43q-27 0 -38 11t-11 38v8h35v-4q0 -20 14 -20q12 0 12 10t-12 16l-20 13q-31 12 -31 43q0 47 49 47q55 0 55 -53v-2h-37q0 22 -16 22q-12 0 -12 -10t16 -21zM2355 -178q33 0 43 -16t10 -58v-10q0 -45 -10.5 -61.5t-42.5 -16.5q-34 0 -44.5 16.5
t-10.5 59.5v12q0 43 10.5 58.5t44.5 15.5zM395 -180l17 -92l10 92h43l-29 -158h-41l-20 88l-17 -88h-43l-28 158h43l10 -92l18 92h37zM580 -180l16 -92l10 92h43l-31 -158h-40l-21 88l-18 -88h-41l-27 158h43l8 -92l17 92h41zM778 -272l10 92h46l-29 -158h-45l-19 88
l-18 -88h-41l-29 158h43l11 -92l16 92h39zM1024 -244l16 64h41l-59 -211h-39l16 53l-38 158h43l10 -66q4 -15 6 -35q4 36 4 37zM1589 -338h-43v158h43v-158zM2052 -303v123h43v-158h-35l-4 8q-17 -10 -39 -10q-30 0 -30 41v119h43v-113q0 -14 8 -14t14 4zM2279 -338h-41v158
h41v-158zM1262 -244h22v19q0 14 -12 14q-10 0 -10 -14v-19zM2177 -303v88q-1 0 -4 1t-6 1q-10 0 -10 -20v-54q0 -20 10 -20q2 0 10 4zM1157 -287v54q0 12 -2 15t-8 3h-10v-90q1 0 4 -1t6 -1q10 0 10 20zM2365 -285v52v9.5t-1 5t-3 3t-6 0.5q-8 0 -10 -3t-2 -15v-52
q0 -22 12 -22q10 0 10 22zM877 -338h-43v41h43v-41zM1767 -338h-41v41h41v-41z" />
    <glyph glyph-name="asciicircum" unicode="^" 
d="M1868 1194l141 27v-105l-256 -49v543l256 47v-105l-141 -26v-113l133 27l-2 -94l-131 -25v-127zM1559 1235l-54 -8v-211l-114 -21v543l135 29q87 17 128 -7.5t50 -97.5q8 -99 -24 -154t-121 -73zM924 903l-111 -20v438l-82 -16v102l346 68l88 -224l76 258l123 23
l-137 -397v-172l-115 -21v176l-102 242l-86 -19v-438zM1532 1479l-29 -4v-160l37 6q63 11 49 119q-5 45 -57 39zM1905 637l-9 399l121 25l-8 -406zM1726 453q-62 -11 -99.5 7.5t-45.5 57.5q-3 39 0 84l100 21q0 -42 2 -50q5 -23 39 -20q30 6 27 41q-1 13 -10 28t-17.5 24.5
t-33.5 35.5l-43 39q-40 37 -54.5 70.5t-13.5 82.5q3 109 123 132q58 11 98.5 -4t50.5 -62q4 -40 2 -63l-102 -21q0 32 -8.5 44.5t-30.5 8.5q-25 -5 -22 -35q0 -6 1 -10.5t2 -8.5t4 -8.5t5 -7t8 -8.5l9.5 -9.5l13 -13t16.5 -15.5l37 -39q36 -36 53 -67.5t21 -74.5
q3 -72 -27 -106.5t-105 -52.5zM1415 942l109 21v-89l-109 -24v92zM1241 588l-76 -15v-223l-112 -20v540l112 25l-2 -219l78 16l4 215l111 23v-541l-115 -22v221zM926 743v-438l-113 -20v436l-80 -16v104l273 53v-104zM1415 809l109 18v-405l-109 -23v410zM1905 588l108 22
l-2 -96l-106 -20v94zM1937 262h68v-59h-68v59zM473 156v-121q0 -54 -21.5 -77.5t-82.5 -23.5h-82v318h82q62 0 83 -22t21 -74zM1434 252l-66 -318h-68l-65 318h72l10 -55q7 -44 18 -131q2 29 19 131l10 55h70zM356 201v-215h9q21 0 29 10.5t7 36.5v123q0 25 -7.5 35
t-26.5 10h-11zM602 20h64v-20q0 -35 -19.5 -51.5t-64.5 -16.5q-50 0 -66 19.5t-16 71.5v67q0 55 17 74.5t67 19.5q51 0 66.5 -21t15.5 -77v-43h-99v-35q0 -17 3 -21.5t12 -4.5q20 0 20 22v16zM760 127v-193h-68v248h56l6 -16q34 18 61 18q28 0 37 -18q38 18 63 18
q26 0 36 -13t10 -52v-185h-66v175q0 22 -12 22q-5 0 -21 -4v-193h-65v175q0 22 -15 22q-6 0 -22 -4zM1075 -68q-53 0 -69.5 25.5t-16.5 93.5v19q0 66 17.5 90t68.5 24q53 0 69.5 -24.5t16.5 -89.5v-19q0 -69 -17 -94t-69 -25zM1513 184q53 0 67.5 -20.5t14.5 -77.5v-43h-100
v-35q0 -17 3.5 -21.5t14.5 -4.5q19 0 19 22v16h63v-20q0 -35 -19 -51.5t-65 -16.5q-50 0 -65.5 19.5t-15.5 71.5v67q0 56 16 75t67 19zM1681 182l5 -24q23 26 45 26v-65q-14 0 -41 -10v-175h-66v248h57zM1915 4v-2q0 -34 -22 -52t-62 -18q-42 0 -62 18.5t-20 61.5v8h59v-6
q0 -30 23 -30q20 0 20 18q0 14 -20 23l-37 20q-45 25 -45 68v2q0 69 78 69q84 0 84 -80v-6h-60v2q0 19 -4 26t-16 7q-16 0 -16 -14q0 -20 20 -31l35 -18q45 -22 45 -66zM2120 -68q-55 0 -71.5 25.5t-16.5 93.5v19q0 66 17.5 90t70.5 24t68.5 -24t15.5 -90v-19
q0 -69 -16.5 -94t-67.5 -25zM2300 127v-193h-68v248h58l2 -16q38 18 61 18q25 0 36 -13.5t11 -51.5v-185h-67v175q0 22 -13 22q-4 0 -20 -4zM2005 -66h-68v248h68v-248zM567 115v-29h35v29q0 22 -18 22q-17 0 -17 -22zM1495 86h37v29q0 22 -16 22q-21 0 -21 -22v-29z
M1057 98v-82q0 -17 4 -23.5t14 -6.5q12 0 15.5 6.5t3.5 25.5v80q0 19 -3.5 26t-15.5 7q-10 0 -14 -7t-4 -26zM2099 98v-82q0 -17 4.5 -23.5t16.5 -6.5t15 6t3 26v80q0 20 -3 26.5t-15 6.5t-16.5 -7t-4.5 -26zM1499 -178q16 0 22.5 -9t6.5 -34v-117h-41v111q0 14 -8 14
q-3 0 -7.5 -1t-7.5 -1v-123h-43v209h41v-59q23 10 37 10zM1589 -168h-43v39h43v-39zM2177 -186v57h45v-209h-37l-4 10q-22 -12 -37 -12q-18 0 -25.5 10t-7.5 37v60q0 33 8 44t27 11q11 0 31 -8zM2279 -168h-41v39h41v-39zM893 -158h45v-22h16v-33h-16v-78v-7.5t1 -5t3 -3
t6 -0.5h6v-31h-20q-28 0 -34.5 11t-6.5 46v68h-12v33h12v22zM1348 -158h41v-22h18v-33h-18v-78q0 -16 12 -16h6v-31h-21q-27 0 -32.5 10.5t-5.5 46.5v68h-13v33h13v22zM1913 -158h43v-22h18v-33h-18v-78v-7.5t1 -5t3 -3t6 -0.5h8v-31h-22q-15 0 -22.5 2.5t-11.5 10.5
t-4.5 16t-0.5 28v68h-12v33h12v22zM1167 -178q19 0 26 -10.5t7 -38.5v-56q0 -34 -8 -45.5t-25 -11.5q-19 0 -30 8v-59h-45v211h36l2 -10q22 12 37 12zM1272 -178q33 0 43 -14t10 -52v-26h-63v-23v-7.5t1 -5t3 -3t6 -0.5q10 0 10 12v14h43v-14q0 -23 -12 -33t-41 -10
q-34 0 -44.5 12t-10.5 45v41q0 36 11.5 50t43.5 14zM1661 -242l22 -12q29 -13 29 -43q0 -43 -53 -43q-27 0 -40 11t-13 38v8h36v-4q0 -20 17 -20q12 0 12 10t-12 16l-25 13q-28 12 -28 43q0 47 51 47q53 0 53 -53v-2h-39q0 22 -12 22t-12 -10t14 -21zM1839 -242l23 -12
q28 -12 28 -43q0 -43 -55 -43q-27 0 -38 11t-11 38v8h35v-4q0 -20 14 -20q12 0 12 10t-12 16l-20 13q-31 12 -31 43q0 47 49 47q55 0 55 -53v-2h-37q0 22 -16 22q-12 0 -12 -10t16 -21zM2355 -178q33 0 43 -16t10 -58v-10q0 -45 -10.5 -61.5t-42.5 -16.5q-34 0 -44.5 16.5
t-10.5 59.5v12q0 43 10.5 58.5t44.5 15.5zM395 -180l17 -92l10 92h43l-29 -158h-41l-20 88l-17 -88h-43l-28 158h43l10 -92l18 92h37zM580 -180l16 -92l10 92h43l-31 -158h-40l-21 88l-18 -88h-41l-27 158h43l8 -92l17 92h41zM778 -272l10 92h46l-29 -158h-45l-19 88
l-18 -88h-41l-29 158h43l11 -92l16 92h39zM1024 -244l16 64h41l-59 -211h-39l16 53l-38 158h43l10 -66q4 -15 6 -35q4 36 4 37zM1589 -338h-43v158h43v-158zM2052 -303v123h43v-158h-35l-4 8q-17 -10 -39 -10q-30 0 -30 41v119h43v-113q0 -14 8 -14t14 4zM2279 -338h-41v158
h41v-158zM1262 -244h22v19q0 14 -12 14q-10 0 -10 -14v-19zM2177 -303v88q-1 0 -4 1t-6 1q-10 0 -10 -20v-54q0 -20 10 -20q2 0 10 4zM1157 -287v54q0 12 -2 15t-8 3h-10v-90q1 0 4 -1t6 -1q10 0 10 20zM2365 -285v52v9.5t-1 5t-3 3t-6 0.5q-8 0 -10 -3t-2 -15v-52
q0 -22 12 -22q10 0 10 22zM877 -338h-43v41h43v-41zM1767 -338h-41v41h41v-41z" />
    <glyph glyph-name="underscore" unicode="_" 
d="M1868 1194l141 27v-105l-256 -49v543l256 47v-105l-141 -26v-113l133 27l-2 -94l-131 -25v-127zM1559 1235l-54 -8v-211l-114 -21v543l135 29q87 17 128 -7.5t50 -97.5q8 -99 -24 -154t-121 -73zM924 903l-111 -20v438l-82 -16v102l346 68l88 -224l76 258l123 23
l-137 -397v-172l-115 -21v176l-102 242l-86 -19v-438zM1532 1479l-29 -4v-160l37 6q63 11 49 119q-5 45 -57 39zM1905 637l-9 399l121 25l-8 -406zM1726 453q-62 -11 -99.5 7.5t-45.5 57.5q-3 39 0 84l100 21q0 -42 2 -50q5 -23 39 -20q30 6 27 41q-1 13 -10 28t-17.5 24.5
t-33.5 35.5l-43 39q-40 37 -54.5 70.5t-13.5 82.5q3 109 123 132q58 11 98.5 -4t50.5 -62q4 -40 2 -63l-102 -21q0 32 -8.5 44.5t-30.5 8.5q-25 -5 -22 -35q0 -6 1 -10.5t2 -8.5t4 -8.5t5 -7t8 -8.5l9.5 -9.5l13 -13t16.5 -15.5l37 -39q36 -36 53 -67.5t21 -74.5
q3 -72 -27 -106.5t-105 -52.5zM1415 942l109 21v-89l-109 -24v92zM1241 588l-76 -15v-223l-112 -20v540l112 25l-2 -219l78 16l4 215l111 23v-541l-115 -22v221zM926 743v-438l-113 -20v436l-80 -16v104l273 53v-104zM1415 809l109 18v-405l-109 -23v410zM1905 588l108 22
l-2 -96l-106 -20v94zM1937 262h68v-59h-68v59zM473 156v-121q0 -54 -21.5 -77.5t-82.5 -23.5h-82v318h82q62 0 83 -22t21 -74zM1434 252l-66 -318h-68l-65 318h72l10 -55q7 -44 18 -131q2 29 19 131l10 55h70zM356 201v-215h9q21 0 29 10.5t7 36.5v123q0 25 -7.5 35
t-26.5 10h-11zM602 20h64v-20q0 -35 -19.5 -51.5t-64.5 -16.5q-50 0 -66 19.5t-16 71.5v67q0 55 17 74.5t67 19.5q51 0 66.5 -21t15.5 -77v-43h-99v-35q0 -17 3 -21.5t12 -4.5q20 0 20 22v16zM760 127v-193h-68v248h56l6 -16q34 18 61 18q28 0 37 -18q38 18 63 18
q26 0 36 -13t10 -52v-185h-66v175q0 22 -12 22q-5 0 -21 -4v-193h-65v175q0 22 -15 22q-6 0 -22 -4zM1075 -68q-53 0 -69.5 25.5t-16.5 93.5v19q0 66 17.5 90t68.5 24q53 0 69.5 -24.5t16.5 -89.5v-19q0 -69 -17 -94t-69 -25zM1513 184q53 0 67.5 -20.5t14.5 -77.5v-43h-100
v-35q0 -17 3.5 -21.5t14.5 -4.5q19 0 19 22v16h63v-20q0 -35 -19 -51.5t-65 -16.5q-50 0 -65.5 19.5t-15.5 71.5v67q0 56 16 75t67 19zM1681 182l5 -24q23 26 45 26v-65q-14 0 -41 -10v-175h-66v248h57zM1915 4v-2q0 -34 -22 -52t-62 -18q-42 0 -62 18.5t-20 61.5v8h59v-6
q0 -30 23 -30q20 0 20 18q0 14 -20 23l-37 20q-45 25 -45 68v2q0 69 78 69q84 0 84 -80v-6h-60v2q0 19 -4 26t-16 7q-16 0 -16 -14q0 -20 20 -31l35 -18q45 -22 45 -66zM2120 -68q-55 0 -71.5 25.5t-16.5 93.5v19q0 66 17.5 90t70.5 24t68.5 -24t15.5 -90v-19
q0 -69 -16.5 -94t-67.5 -25zM2300 127v-193h-68v248h58l2 -16q38 18 61 18q25 0 36 -13.5t11 -51.5v-185h-67v175q0 22 -13 22q-4 0 -20 -4zM2005 -66h-68v248h68v-248zM567 115v-29h35v29q0 22 -18 22q-17 0 -17 -22zM1495 86h37v29q0 22 -16 22q-21 0 -21 -22v-29z
M1057 98v-82q0 -17 4 -23.5t14 -6.5q12 0 15.5 6.5t3.5 25.5v80q0 19 -3.5 26t-15.5 7q-10 0 -14 -7t-4 -26zM2099 98v-82q0 -17 4.5 -23.5t16.5 -6.5t15 6t3 26v80q0 20 -3 26.5t-15 6.5t-16.5 -7t-4.5 -26zM1499 -178q16 0 22.5 -9t6.5 -34v-117h-41v111q0 14 -8 14
q-3 0 -7.5 -1t-7.5 -1v-123h-43v209h41v-59q23 10 37 10zM1589 -168h-43v39h43v-39zM2177 -186v57h45v-209h-37l-4 10q-22 -12 -37 -12q-18 0 -25.5 10t-7.5 37v60q0 33 8 44t27 11q11 0 31 -8zM2279 -168h-41v39h41v-39zM893 -158h45v-22h16v-33h-16v-78v-7.5t1 -5t3 -3
t6 -0.5h6v-31h-20q-28 0 -34.5 11t-6.5 46v68h-12v33h12v22zM1348 -158h41v-22h18v-33h-18v-78q0 -16 12 -16h6v-31h-21q-27 0 -32.5 10.5t-5.5 46.5v68h-13v33h13v22zM1913 -158h43v-22h18v-33h-18v-78v-7.5t1 -5t3 -3t6 -0.5h8v-31h-22q-15 0 -22.5 2.5t-11.5 10.5
t-4.5 16t-0.5 28v68h-12v33h12v22zM1167 -178q19 0 26 -10.5t7 -38.5v-56q0 -34 -8 -45.5t-25 -11.5q-19 0 -30 8v-59h-45v211h36l2 -10q22 12 37 12zM1272 -178q33 0 43 -14t10 -52v-26h-63v-23v-7.5t1 -5t3 -3t6 -0.5q10 0 10 12v14h43v-14q0 -23 -12 -33t-41 -10
q-34 0 -44.5 12t-10.5 45v41q0 36 11.5 50t43.5 14zM1661 -242l22 -12q29 -13 29 -43q0 -43 -53 -43q-27 0 -40 11t-13 38v8h36v-4q0 -20 17 -20q12 0 12 10t-12 16l-25 13q-28 12 -28 43q0 47 51 47q53 0 53 -53v-2h-39q0 22 -12 22t-12 -10t14 -21zM1839 -242l23 -12
q28 -12 28 -43q0 -43 -55 -43q-27 0 -38 11t-11 38v8h35v-4q0 -20 14 -20q12 0 12 10t-12 16l-20 13q-31 12 -31 43q0 47 49 47q55 0 55 -53v-2h-37q0 22 -16 22q-12 0 -12 -10t16 -21zM2355 -178q33 0 43 -16t10 -58v-10q0 -45 -10.5 -61.5t-42.5 -16.5q-34 0 -44.5 16.5
t-10.5 59.5v12q0 43 10.5 58.5t44.5 15.5zM395 -180l17 -92l10 92h43l-29 -158h-41l-20 88l-17 -88h-43l-28 158h43l10 -92l18 92h37zM580 -180l16 -92l10 92h43l-31 -158h-40l-21 88l-18 -88h-41l-27 158h43l8 -92l17 92h41zM778 -272l10 92h46l-29 -158h-45l-19 88
l-18 -88h-41l-29 158h43l11 -92l16 92h39zM1024 -244l16 64h41l-59 -211h-39l16 53l-38 158h43l10 -66q4 -15 6 -35q4 36 4 37zM1589 -338h-43v158h43v-158zM2052 -303v123h43v-158h-35l-4 8q-17 -10 -39 -10q-30 0 -30 41v119h43v-113q0 -14 8 -14t14 4zM2279 -338h-41v158
h41v-158zM1262 -244h22v19q0 14 -12 14q-10 0 -10 -14v-19zM2177 -303v88q-1 0 -4 1t-6 1q-10 0 -10 -20v-54q0 -20 10 -20q2 0 10 4zM1157 -287v54q0 12 -2 15t-8 3h-10v-90q1 0 4 -1t6 -1q10 0 10 20zM2365 -285v52v9.5t-1 5t-3 3t-6 0.5q-8 0 -10 -3t-2 -15v-52
q0 -22 12 -22q10 0 10 22zM877 -338h-43v41h43v-41zM1767 -338h-41v41h41v-41z" />
    <glyph glyph-name="grave" unicode="`" 
d="M1868 1194l141 27v-105l-256 -49v543l256 47v-105l-141 -26v-113l133 27l-2 -94l-131 -25v-127zM1559 1235l-54 -8v-211l-114 -21v543l135 29q87 17 128 -7.5t50 -97.5q8 -99 -24 -154t-121 -73zM924 903l-111 -20v438l-82 -16v102l346 68l88 -224l76 258l123 23
l-137 -397v-172l-115 -21v176l-102 242l-86 -19v-438zM1532 1479l-29 -4v-160l37 6q63 11 49 119q-5 45 -57 39zM1905 637l-9 399l121 25l-8 -406zM1726 453q-62 -11 -99.5 7.5t-45.5 57.5q-3 39 0 84l100 21q0 -42 2 -50q5 -23 39 -20q30 6 27 41q-1 13 -10 28t-17.5 24.5
t-33.5 35.5l-43 39q-40 37 -54.5 70.5t-13.5 82.5q3 109 123 132q58 11 98.5 -4t50.5 -62q4 -40 2 -63l-102 -21q0 32 -8.5 44.5t-30.5 8.5q-25 -5 -22 -35q0 -6 1 -10.5t2 -8.5t4 -8.5t5 -7t8 -8.5l9.5 -9.5l13 -13t16.5 -15.5l37 -39q36 -36 53 -67.5t21 -74.5
q3 -72 -27 -106.5t-105 -52.5zM1415 942l109 21v-89l-109 -24v92zM1241 588l-76 -15v-223l-112 -20v540l112 25l-2 -219l78 16l4 215l111 23v-541l-115 -22v221zM926 743v-438l-113 -20v436l-80 -16v104l273 53v-104zM1415 809l109 18v-405l-109 -23v410zM1905 588l108 22
l-2 -96l-106 -20v94zM1937 262h68v-59h-68v59zM473 156v-121q0 -54 -21.5 -77.5t-82.5 -23.5h-82v318h82q62 0 83 -22t21 -74zM1434 252l-66 -318h-68l-65 318h72l10 -55q7 -44 18 -131q2 29 19 131l10 55h70zM356 201v-215h9q21 0 29 10.5t7 36.5v123q0 25 -7.5 35
t-26.5 10h-11zM602 20h64v-20q0 -35 -19.5 -51.5t-64.5 -16.5q-50 0 -66 19.5t-16 71.5v67q0 55 17 74.5t67 19.5q51 0 66.5 -21t15.5 -77v-43h-99v-35q0 -17 3 -21.5t12 -4.5q20 0 20 22v16zM760 127v-193h-68v248h56l6 -16q34 18 61 18q28 0 37 -18q38 18 63 18
q26 0 36 -13t10 -52v-185h-66v175q0 22 -12 22q-5 0 -21 -4v-193h-65v175q0 22 -15 22q-6 0 -22 -4zM1075 -68q-53 0 -69.5 25.5t-16.5 93.5v19q0 66 17.5 90t68.5 24q53 0 69.5 -24.5t16.5 -89.5v-19q0 -69 -17 -94t-69 -25zM1513 184q53 0 67.5 -20.5t14.5 -77.5v-43h-100
v-35q0 -17 3.5 -21.5t14.5 -4.5q19 0 19 22v16h63v-20q0 -35 -19 -51.5t-65 -16.5q-50 0 -65.5 19.5t-15.5 71.5v67q0 56 16 75t67 19zM1681 182l5 -24q23 26 45 26v-65q-14 0 -41 -10v-175h-66v248h57zM1915 4v-2q0 -34 -22 -52t-62 -18q-42 0 -62 18.5t-20 61.5v8h59v-6
q0 -30 23 -30q20 0 20 18q0 14 -20 23l-37 20q-45 25 -45 68v2q0 69 78 69q84 0 84 -80v-6h-60v2q0 19 -4 26t-16 7q-16 0 -16 -14q0 -20 20 -31l35 -18q45 -22 45 -66zM2120 -68q-55 0 -71.5 25.5t-16.5 93.5v19q0 66 17.5 90t70.5 24t68.5 -24t15.5 -90v-19
q0 -69 -16.5 -94t-67.5 -25zM2300 127v-193h-68v248h58l2 -16q38 18 61 18q25 0 36 -13.5t11 -51.5v-185h-67v175q0 22 -13 22q-4 0 -20 -4zM2005 -66h-68v248h68v-248zM567 115v-29h35v29q0 22 -18 22q-17 0 -17 -22zM1495 86h37v29q0 22 -16 22q-21 0 -21 -22v-29z
M1057 98v-82q0 -17 4 -23.5t14 -6.5q12 0 15.5 6.5t3.5 25.5v80q0 19 -3.5 26t-15.5 7q-10 0 -14 -7t-4 -26zM2099 98v-82q0 -17 4.5 -23.5t16.5 -6.5t15 6t3 26v80q0 20 -3 26.5t-15 6.5t-16.5 -7t-4.5 -26zM1499 -178q16 0 22.5 -9t6.5 -34v-117h-41v111q0 14 -8 14
q-3 0 -7.5 -1t-7.5 -1v-123h-43v209h41v-59q23 10 37 10zM1589 -168h-43v39h43v-39zM2177 -186v57h45v-209h-37l-4 10q-22 -12 -37 -12q-18 0 -25.5 10t-7.5 37v60q0 33 8 44t27 11q11 0 31 -8zM2279 -168h-41v39h41v-39zM893 -158h45v-22h16v-33h-16v-78v-7.5t1 -5t3 -3
t6 -0.5h6v-31h-20q-28 0 -34.5 11t-6.5 46v68h-12v33h12v22zM1348 -158h41v-22h18v-33h-18v-78q0 -16 12 -16h6v-31h-21q-27 0 -32.5 10.5t-5.5 46.5v68h-13v33h13v22zM1913 -158h43v-22h18v-33h-18v-78v-7.5t1 -5t3 -3t6 -0.5h8v-31h-22q-15 0 -22.5 2.5t-11.5 10.5
t-4.5 16t-0.5 28v68h-12v33h12v22zM1167 -178q19 0 26 -10.5t7 -38.5v-56q0 -34 -8 -45.5t-25 -11.5q-19 0 -30 8v-59h-45v211h36l2 -10q22 12 37 12zM1272 -178q33 0 43 -14t10 -52v-26h-63v-23v-7.5t1 -5t3 -3t6 -0.5q10 0 10 12v14h43v-14q0 -23 -12 -33t-41 -10
q-34 0 -44.5 12t-10.5 45v41q0 36 11.5 50t43.5 14zM1661 -242l22 -12q29 -13 29 -43q0 -43 -53 -43q-27 0 -40 11t-13 38v8h36v-4q0 -20 17 -20q12 0 12 10t-12 16l-25 13q-28 12 -28 43q0 47 51 47q53 0 53 -53v-2h-39q0 22 -12 22t-12 -10t14 -21zM1839 -242l23 -12
q28 -12 28 -43q0 -43 -55 -43q-27 0 -38 11t-11 38v8h35v-4q0 -20 14 -20q12 0 12 10t-12 16l-20 13q-31 12 -31 43q0 47 49 47q55 0 55 -53v-2h-37q0 22 -16 22q-12 0 -12 -10t16 -21zM2355 -178q33 0 43 -16t10 -58v-10q0 -45 -10.5 -61.5t-42.5 -16.5q-34 0 -44.5 16.5
t-10.5 59.5v12q0 43 10.5 58.5t44.5 15.5zM395 -180l17 -92l10 92h43l-29 -158h-41l-20 88l-17 -88h-43l-28 158h43l10 -92l18 92h37zM580 -180l16 -92l10 92h43l-31 -158h-40l-21 88l-18 -88h-41l-27 158h43l8 -92l17 92h41zM778 -272l10 92h46l-29 -158h-45l-19 88
l-18 -88h-41l-29 158h43l11 -92l16 92h39zM1024 -244l16 64h41l-59 -211h-39l16 53l-38 158h43l10 -66q4 -15 6 -35q4 36 4 37zM1589 -338h-43v158h43v-158zM2052 -303v123h43v-158h-35l-4 8q-17 -10 -39 -10q-30 0 -30 41v119h43v-113q0 -14 8 -14t14 4zM2279 -338h-41v158
h41v-158zM1262 -244h22v19q0 14 -12 14q-10 0 -10 -14v-19zM2177 -303v88q-1 0 -4 1t-6 1q-10 0 -10 -20v-54q0 -20 10 -20q2 0 10 4zM1157 -287v54q0 12 -2 15t-8 3h-10v-90q1 0 4 -1t6 -1q10 0 10 20zM2365 -285v52v9.5t-1 5t-3 3t-6 0.5q-8 0 -10 -3t-2 -15v-52
q0 -22 12 -22q10 0 10 22zM877 -338h-43v41h43v-41zM1767 -338h-41v41h41v-41z" />
    <glyph glyph-name="a" unicode="a" horiz-adv-x="911" vert-adv-y="2457" 
d="M41 248v43q0 112 26 176t90 105t189 73l180 45v174q0 45 -17.5 64.5t-59.5 19.5q-22 0 -35.5 -4t-27.5 -17.5t-21 -44t-7 -79.5v-33h-278v27q0 69 8 120.5t33 103t67.5 84t115 53t171.5 20.5q109 0 181 -20t114 -65t59 -108.5t17 -157.5v-827h-254l-29 76
q-171 -86 -297 -86q-44 0 -79 9.5t-70.5 35t-55.5 80t-20 133.5zM354 336v-4q0 -36 3 -58t18 -40.5t43 -18.5q46 0 108 31v266l-37 -6q-45 -9 -73.5 -24.5t-41 -40t-16.5 -47t-4 -58.5z" />
    <glyph glyph-name="b" unicode="b" horiz-adv-x="925" 
d="M862 766v-426q0 -200 -50.5 -275t-176.5 -75q-112 0 -285 92l-18 -82h-264v1550h315v-436q110 64 233 64q67 0 109.5 -15.5t75 -59t47 -125.5t14.5 -212zM547 391v385q0 91 -19.5 121.5t-68.5 30.5q-17 0 -76 -13v-657q44 -16 76 -16q50 0 69 31.5t19 117.5z" />
    <glyph glyph-name="c" unicode="c" horiz-adv-x="899" 
d="M66 420v330q0 125 15 201t58 130t120 75.5t202 21.5q207 0 291 -74t84 -240v-166h-291v154q0 52 -17 74t-67 22q-49 -1 -64.5 -25t-15.5 -96v-485q0 -72 15.5 -96t64.5 -25q50 0 67 21.5t17 74.5v181h291v-193q0 -166 -84 -240.5t-291 -74.5q-84 0 -144.5 9.5t-105 32.5
t-72.5 54.5t-44.5 82.5t-22.5 109.5t-6 141.5z" />
    <glyph glyph-name="d" unicode="d" horiz-adv-x="927" vert-adv-y="2457" 
d="M66 340v426q0 104 10 177t28 119t49.5 71.5t68 35t89.5 9.5q124 0 234 -64v436h315v-1550h-264l-18 82q-173 -92 -285 -92q-126 0 -176.5 75t-50.5 275zM381 776v-385q0 -86 19 -117.5t69 -31.5q32 0 76 16v657q-59 13 -76 13q-49 0 -68.5 -30.5t-19.5 -121.5z" />
    <glyph glyph-name="e" unicode="e" horiz-adv-x="915" vert-adv-y="2457" 
d="M66 420v305q0 134 16.5 216t62 138t121.5 77.5t199 21.5q86 0 148 -11t105 -37t69.5 -60t40.5 -91t19 -117.5t5 -150.5v-199h-471v-170q0 -72 16 -95.5t66 -25.5q51 0 69.5 22t18.5 74v86h301v-98q0 -165 -88 -240t-303 -75q-84 0 -144.5 9.5t-105 32.5t-72.5 54.5
t-44.5 82.5t-22.5 109.5t-6 141.5zM381 844v-133h172v133q0 59 -19 81.5t-63 22.5q-50 0 -70 -22.5t-20 -81.5z" />
    <glyph glyph-name="f" unicode="f" horiz-adv-x="565" 
d="M561 1319h-57q-44 0 -63 -25t-19 -94v-33h139v-233h-139v-934h-316v934h-96v233h96q2 110 18 178.5t58 116.5t113.5 68t185.5 20h80v-231z" />
    <glyph glyph-name="g" unicode="g" horiz-adv-x="927" 
d="M57 496v333q0 188 54 268.5t180 80.5q68 0 130.5 -18t158.5 -70l18 77h264v-1144q0 -83 -6 -140.5t-23 -107.5t-45 -80t-74 -51.5t-108.5 -30t-150.5 -8.5q-144 0 -227.5 34.5t-117.5 101t-34 177.5v86h301v-74q0 -52 18.5 -74t67.5 -22q50 2 67 26t17 95v223
q-52 -30 -119.5 -46.5t-124.5 -16.5q-87 0 -138.5 32.5t-79.5 117t-28 231.5zM383 776v-291q0 -69 20 -94.5t68 -25.5q22 0 76 12v534q-47 17 -76 17q-50 0 -69 -32.5t-19 -119.5z" />
    <glyph glyph-name="h" unicode="h" horiz-adv-x="923" 
d="M383 0h-315v1550h313v-444q146 75 256 72q114 0 167.5 -67.5t53.5 -240.5v-870h-315v823q0 61 -11 83t-47 22t-102 -17v-911z" />
    <glyph glyph-name="i" unicode="i" horiz-adv-x="450" vert-adv-y="2457" 
d="M383 1266l-315 -2v278h315v-276zM383 0h-315v1167h315v-1167z" />
    <glyph glyph-name="j" unicode="j" horiz-adv-x="450" 
d="M383 1266l-315 -2v278h315v-276zM383 -385l-315 2v1550h315v-1552z" />
    <glyph glyph-name="k" unicode="k" horiz-adv-x="864" 
d="M856 1167l-188 -573l198 -594h-336l-133 512h-14v-512h-315v1550h315v-874h14l133 491h326z" />
    <glyph glyph-name="l" unicode="l" horiz-adv-x="450" 
d="M68 0v1550h315v-1550h-315z" />
    <glyph glyph-name="m" unicode="m" horiz-adv-x="1398" 
d="M383 0h-315v1167h264l18 -77q171 91 287 88q132 0 182 -91q173 94 293 91q114 0 167.5 -67.5t53.5 -240.5v-870h-315v823q0 61 -11 83t-46 22q-37 0 -103 -17v-43v-868h-315v823q0 61 -11 83t-47 22t-102 -17v-911z" />
    <glyph glyph-name="n" unicode="n" horiz-adv-x="923" vert-adv-y="2457" 
d="M383 0h-315v1167h264l18 -77q171 91 287 88q114 0 167.5 -67.5t53.5 -240.5v-870h-315v823q0 61 -11 83t-47 22t-102 -17v-911z" />
    <glyph glyph-name="o" unicode="o" horiz-adv-x="931" vert-adv-y="2457" 
d="M471 -10q-77 0 -135 10.5t-101 30t-73 54.5t-49 75.5t-29 102.5t-14 126.5t-4 155.5v96q0 105 6 178.5t23 137.5t45 103t74 67t108.5 39.5t148.5 11.5q87 0 150 -12.5t107.5 -42t71.5 -68.5t42.5 -103.5t20.5 -133.5t5 -171v-98q0 -110 -7 -189t-24.5 -144t-45.5 -106
t-73 -69t-105 -39.5t-142 -11.5zM469 242q52 0 68 30.5t16 122.5v377q0 92 -15.5 123t-70.5 31t-70.5 -30.5t-15.5 -125.5v-377q0 -88 16 -119.5t72 -31.5z" />
    <glyph glyph-name="p" unicode="p" horiz-adv-x="925" 
d="M862 827v-426q0 -104 -10 -177t-28 -119t-50 -71.5t-68.5 -34.5t-89.5 -9q-125 0 -233 63v-436h-315v1550h264l18 -82q175 93 285 93q85 0 133 -31t71 -107.5t23 -212.5zM547 391v385q0 86 -19 118t-69 32q-29 0 -76 -17v-657q54 -12 76 -12q49 0 68.5 30.5t19.5 120.5z
" />
    <glyph glyph-name="q" unicode="q" horiz-adv-x="927" 
d="M66 401v426q0 136 23 212.5t71 107.5t133 31q110 0 285 -93l18 82h264v-1550h-315v436q-108 -63 -234 -63q-67 0 -109 15t-75 59t-47 125.5t-14 211.5zM381 776v-385q0 -90 19.5 -120.5t68.5 -30.5q22 0 76 12v657q-47 17 -76 17q-50 0 -69 -32t-19 -118z" />
    <glyph glyph-name="r" unicode="r" horiz-adv-x="593" vert-adv-y="2457" 
d="M383 0h-315v1167h268l22 -114q60 69 110.5 97t104.5 28v-318q-92 -4 -190 -37v-823z" />
    <glyph glyph-name="s" unicode="s" horiz-adv-x="880" vert-adv-y="2457" 
d="M51 840v2q0 160 93 248t280 88q197 2 296 -91t99 -286v-29h-278v8q0 90 -23 124t-82 34q-37 0 -60.5 -18.5t-23.5 -55.5v-2q0 -81 109 -139l162 -84q106 -56 156 -133t50 -189v-2q0 -159 -99.5 -241t-293.5 -84q-200 0 -289.5 83t-89.5 289v41h273v-18q0 -87 24.5 -120.5
t81.5 -33.5q45 0 69.5 20.5t24.5 57.5v2q0 74 -92 121l-168 86q-111 57 -165 131.5t-54 190.5z" />
    <glyph glyph-name="t" unicode="t" horiz-adv-x="606" 
d="M575 1167v-233h-139v-582q0 -71 17 -95t67 -26h55v-231h-159q-48 0 -85 5t-66.5 12.5t-51 24t-37 32.5t-25.5 46t-16 56.5t-9 71t-4 82t-1 98.5v506h-90v233h90v174h315v-174h139z" />
    <glyph glyph-name="u" unicode="u" horiz-adv-x="925" 
d="M68 297v870h315v-825q0 -60 11 -81t46 -21q51 0 103 16v911h315v-1167h-264l-19 76q-170 -91 -286 -88q-115 0 -168 67.5t-53 241.5z" />
    <glyph glyph-name="v" unicode="v" horiz-adv-x="876" 
d="M285 0l-275 1167h318l114 -688l115 688h315l-274 -1167h-313z" />
    <glyph glyph-name="w" unicode="w" horiz-adv-x="1331" 
d="M213 0l-203 1167h318l75 -690l123 690h285l115 -690l84 690h317l-213 -1167h-315l-137 662l-136 -662h-313z" />
    <glyph glyph-name="x" unicode="x" horiz-adv-x="870" 
d="M547 1167h325l-208 -583l208 -584h-325l-107 342l-102 -342h-328l209 584l-209 583h328l102 -342z" />
    <glyph glyph-name="y" unicode="y" horiz-adv-x="911" 
d="M301 4l-291 1163h318l84 -479q21 -121 32 -260q17 153 41 264l105 475h317l-446 -1552h-281z" />
    <glyph glyph-name="z" unicode="z" horiz-adv-x="708" 
d="M676 0h-643v225l315 709h-303v233h621v-215l-328 -719h338v-233z" />
    <glyph glyph-name="braceleft" unicode="{" horiz-adv-x="546" 
d="M20 502v211q80 23 110 66t30 106q0 29 -37 358q-4 58 -4 80q0 122 65.5 175.5t225.5 53.5h86v-258h-19q-31 0 -47 -19.5t-16 -68.5q0 -29 2 -45q41 -327 41 -342q0 -62 -35 -114.5t-129 -104.5q94 -49 128 -99t34 -110q0 -31 -39 -366q-4 -46 -4 -58q0 -94 61 -94h23
v-258h-86q-156 0 -223.5 67.5t-67.5 192.5q0 37 2 57q39 407 39 412q0 60 -29.5 99.5t-110.5 58.5z" />
    <glyph glyph-name="bar" unicode="|" 
d="M1868 1194l141 27v-105l-256 -49v543l256 47v-105l-141 -26v-113l133 27l-2 -94l-131 -25v-127zM1559 1235l-54 -8v-211l-114 -21v543l135 29q87 17 128 -7.5t50 -97.5q8 -99 -24 -154t-121 -73zM924 903l-111 -20v438l-82 -16v102l346 68l88 -224l76 258l123 23
l-137 -397v-172l-115 -21v176l-102 242l-86 -19v-438zM1532 1479l-29 -4v-160l37 6q63 11 49 119q-5 45 -57 39zM1905 637l-9 399l121 25l-8 -406zM1726 453q-62 -11 -99.5 7.5t-45.5 57.5q-3 39 0 84l100 21q0 -42 2 -50q5 -23 39 -20q30 6 27 41q-1 13 -10 28t-17.5 24.5
t-33.5 35.5l-43 39q-40 37 -54.5 70.5t-13.5 82.5q3 109 123 132q58 11 98.5 -4t50.5 -62q4 -40 2 -63l-102 -21q0 32 -8.5 44.5t-30.5 8.5q-25 -5 -22 -35q0 -6 1 -10.5t2 -8.5t4 -8.5t5 -7t8 -8.5l9.5 -9.5l13 -13t16.5 -15.5l37 -39q36 -36 53 -67.5t21 -74.5
q3 -72 -27 -106.5t-105 -52.5zM1415 942l109 21v-89l-109 -24v92zM1241 588l-76 -15v-223l-112 -20v540l112 25l-2 -219l78 16l4 215l111 23v-541l-115 -22v221zM926 743v-438l-113 -20v436l-80 -16v104l273 53v-104zM1415 809l109 18v-405l-109 -23v410zM1905 588l108 22
l-2 -96l-106 -20v94zM1937 262h68v-59h-68v59zM473 156v-121q0 -54 -21.5 -77.5t-82.5 -23.5h-82v318h82q62 0 83 -22t21 -74zM1434 252l-66 -318h-68l-65 318h72l10 -55q7 -44 18 -131q2 29 19 131l10 55h70zM356 201v-215h9q21 0 29 10.5t7 36.5v123q0 25 -7.5 35
t-26.5 10h-11zM602 20h64v-20q0 -35 -19.5 -51.5t-64.5 -16.5q-50 0 -66 19.5t-16 71.5v67q0 55 17 74.5t67 19.5q51 0 66.5 -21t15.5 -77v-43h-99v-35q0 -17 3 -21.5t12 -4.5q20 0 20 22v16zM760 127v-193h-68v248h56l6 -16q34 18 61 18q28 0 37 -18q38 18 63 18
q26 0 36 -13t10 -52v-185h-66v175q0 22 -12 22q-5 0 -21 -4v-193h-65v175q0 22 -15 22q-6 0 -22 -4zM1075 -68q-53 0 -69.5 25.5t-16.5 93.5v19q0 66 17.5 90t68.5 24q53 0 69.5 -24.5t16.5 -89.5v-19q0 -69 -17 -94t-69 -25zM1513 184q53 0 67.5 -20.5t14.5 -77.5v-43h-100
v-35q0 -17 3.5 -21.5t14.5 -4.5q19 0 19 22v16h63v-20q0 -35 -19 -51.5t-65 -16.5q-50 0 -65.5 19.5t-15.5 71.5v67q0 56 16 75t67 19zM1681 182l5 -24q23 26 45 26v-65q-14 0 -41 -10v-175h-66v248h57zM1915 4v-2q0 -34 -22 -52t-62 -18q-42 0 -62 18.5t-20 61.5v8h59v-6
q0 -30 23 -30q20 0 20 18q0 14 -20 23l-37 20q-45 25 -45 68v2q0 69 78 69q84 0 84 -80v-6h-60v2q0 19 -4 26t-16 7q-16 0 -16 -14q0 -20 20 -31l35 -18q45 -22 45 -66zM2120 -68q-55 0 -71.5 25.5t-16.5 93.5v19q0 66 17.5 90t70.5 24t68.5 -24t15.5 -90v-19
q0 -69 -16.5 -94t-67.5 -25zM2300 127v-193h-68v248h58l2 -16q38 18 61 18q25 0 36 -13.5t11 -51.5v-185h-67v175q0 22 -13 22q-4 0 -20 -4zM2005 -66h-68v248h68v-248zM567 115v-29h35v29q0 22 -18 22q-17 0 -17 -22zM1495 86h37v29q0 22 -16 22q-21 0 -21 -22v-29z
M1057 98v-82q0 -17 4 -23.5t14 -6.5q12 0 15.5 6.5t3.5 25.5v80q0 19 -3.5 26t-15.5 7q-10 0 -14 -7t-4 -26zM2099 98v-82q0 -17 4.5 -23.5t16.5 -6.5t15 6t3 26v80q0 20 -3 26.5t-15 6.5t-16.5 -7t-4.5 -26zM1499 -178q16 0 22.5 -9t6.5 -34v-117h-41v111q0 14 -8 14
q-3 0 -7.5 -1t-7.5 -1v-123h-43v209h41v-59q23 10 37 10zM1589 -168h-43v39h43v-39zM2177 -186v57h45v-209h-37l-4 10q-22 -12 -37 -12q-18 0 -25.5 10t-7.5 37v60q0 33 8 44t27 11q11 0 31 -8zM2279 -168h-41v39h41v-39zM893 -158h45v-22h16v-33h-16v-78v-7.5t1 -5t3 -3
t6 -0.5h6v-31h-20q-28 0 -34.5 11t-6.5 46v68h-12v33h12v22zM1348 -158h41v-22h18v-33h-18v-78q0 -16 12 -16h6v-31h-21q-27 0 -32.5 10.5t-5.5 46.5v68h-13v33h13v22zM1913 -158h43v-22h18v-33h-18v-78v-7.5t1 -5t3 -3t6 -0.5h8v-31h-22q-15 0 -22.5 2.5t-11.5 10.5
t-4.5 16t-0.5 28v68h-12v33h12v22zM1167 -178q19 0 26 -10.5t7 -38.5v-56q0 -34 -8 -45.5t-25 -11.5q-19 0 -30 8v-59h-45v211h36l2 -10q22 12 37 12zM1272 -178q33 0 43 -14t10 -52v-26h-63v-23v-7.5t1 -5t3 -3t6 -0.5q10 0 10 12v14h43v-14q0 -23 -12 -33t-41 -10
q-34 0 -44.5 12t-10.5 45v41q0 36 11.5 50t43.5 14zM1661 -242l22 -12q29 -13 29 -43q0 -43 -53 -43q-27 0 -40 11t-13 38v8h36v-4q0 -20 17 -20q12 0 12 10t-12 16l-25 13q-28 12 -28 43q0 47 51 47q53 0 53 -53v-2h-39q0 22 -12 22t-12 -10t14 -21zM1839 -242l23 -12
q28 -12 28 -43q0 -43 -55 -43q-27 0 -38 11t-11 38v8h35v-4q0 -20 14 -20q12 0 12 10t-12 16l-20 13q-31 12 -31 43q0 47 49 47q55 0 55 -53v-2h-37q0 22 -16 22q-12 0 -12 -10t16 -21zM2355 -178q33 0 43 -16t10 -58v-10q0 -45 -10.5 -61.5t-42.5 -16.5q-34 0 -44.5 16.5
t-10.5 59.5v12q0 43 10.5 58.5t44.5 15.5zM395 -180l17 -92l10 92h43l-29 -158h-41l-20 88l-17 -88h-43l-28 158h43l10 -92l18 92h37zM580 -180l16 -92l10 92h43l-31 -158h-40l-21 88l-18 -88h-41l-27 158h43l8 -92l17 92h41zM778 -272l10 92h46l-29 -158h-45l-19 88
l-18 -88h-41l-29 158h43l11 -92l16 92h39zM1024 -244l16 64h41l-59 -211h-39l16 53l-38 158h43l10 -66q4 -15 6 -35q4 36 4 37zM1589 -338h-43v158h43v-158zM2052 -303v123h43v-158h-35l-4 8q-17 -10 -39 -10q-30 0 -30 41v119h43v-113q0 -14 8 -14t14 4zM2279 -338h-41v158
h41v-158zM1262 -244h22v19q0 14 -12 14q-10 0 -10 -14v-19zM2177 -303v88q-1 0 -4 1t-6 1q-10 0 -10 -20v-54q0 -20 10 -20q2 0 10 4zM1157 -287v54q0 12 -2 15t-8 3h-10v-90q1 0 4 -1t6 -1q10 0 10 20zM2365 -285v52v9.5t-1 5t-3 3t-6 0.5q-8 0 -10 -3t-2 -15v-52
q0 -22 12 -22q10 0 10 22zM877 -338h-43v41h43v-41zM1767 -338h-41v41h41v-41z" />
    <glyph glyph-name="braceright" unicode="}" horiz-adv-x="546" 
d="M506 713v-211q-81 -19 -110 -58.5t-29 -99.5q0 -5 39 -412q2 -20 2 -57q0 -125 -67.5 -192.5t-223.5 -67.5h-86v258h22q62 0 62 94q0 12 -4 58q-39 335 -39 366q0 60 34 110.5t127 98.5q-94 51 -128.5 103.5t-34.5 115.5q0 15 41 342q2 16 2 45q0 48 -16.5 68t-47.5 20
h-18v258h86q160 0 225.5 -53.5t65.5 -175.5q0 -7 -5 -80q-36 -320 -36 -358q0 -63 29.5 -106t109.5 -66z" />
    <glyph glyph-name="asciitilde" unicode="~" 
d="M1868 1194l141 27v-105l-256 -49v543l256 47v-105l-141 -26v-113l133 27l-2 -94l-131 -25v-127zM1559 1235l-54 -8v-211l-114 -21v543l135 29q87 17 128 -7.5t50 -97.5q8 -99 -24 -154t-121 -73zM924 903l-111 -20v438l-82 -16v102l346 68l88 -224l76 258l123 23
l-137 -397v-172l-115 -21v176l-102 242l-86 -19v-438zM1532 1479l-29 -4v-160l37 6q63 11 49 119q-5 45 -57 39zM1905 637l-9 399l121 25l-8 -406zM1726 453q-62 -11 -99.5 7.5t-45.5 57.5q-3 39 0 84l100 21q0 -42 2 -50q5 -23 39 -20q30 6 27 41q-1 13 -10 28t-17.5 24.5
t-33.5 35.5l-43 39q-40 37 -54.5 70.5t-13.5 82.5q3 109 123 132q58 11 98.5 -4t50.5 -62q4 -40 2 -63l-102 -21q0 32 -8.5 44.5t-30.5 8.5q-25 -5 -22 -35q0 -6 1 -10.5t2 -8.5t4 -8.5t5 -7t8 -8.5l9.5 -9.5l13 -13t16.5 -15.5l37 -39q36 -36 53 -67.5t21 -74.5
q3 -72 -27 -106.5t-105 -52.5zM1415 942l109 21v-89l-109 -24v92zM1241 588l-76 -15v-223l-112 -20v540l112 25l-2 -219l78 16l4 215l111 23v-541l-115 -22v221zM926 743v-438l-113 -20v436l-80 -16v104l273 53v-104zM1415 809l109 18v-405l-109 -23v410zM1905 588l108 22
l-2 -96l-106 -20v94zM1937 262h68v-59h-68v59zM473 156v-121q0 -54 -21.5 -77.5t-82.5 -23.5h-82v318h82q62 0 83 -22t21 -74zM1434 252l-66 -318h-68l-65 318h72l10 -55q7 -44 18 -131q2 29 19 131l10 55h70zM356 201v-215h9q21 0 29 10.5t7 36.5v123q0 25 -7.5 35
t-26.5 10h-11zM602 20h64v-20q0 -35 -19.5 -51.5t-64.5 -16.5q-50 0 -66 19.5t-16 71.5v67q0 55 17 74.5t67 19.5q51 0 66.5 -21t15.5 -77v-43h-99v-35q0 -17 3 -21.5t12 -4.5q20 0 20 22v16zM760 127v-193h-68v248h56l6 -16q34 18 61 18q28 0 37 -18q38 18 63 18
q26 0 36 -13t10 -52v-185h-66v175q0 22 -12 22q-5 0 -21 -4v-193h-65v175q0 22 -15 22q-6 0 -22 -4zM1075 -68q-53 0 -69.5 25.5t-16.5 93.5v19q0 66 17.5 90t68.5 24q53 0 69.5 -24.5t16.5 -89.5v-19q0 -69 -17 -94t-69 -25zM1513 184q53 0 67.5 -20.5t14.5 -77.5v-43h-100
v-35q0 -17 3.5 -21.5t14.5 -4.5q19 0 19 22v16h63v-20q0 -35 -19 -51.5t-65 -16.5q-50 0 -65.5 19.5t-15.5 71.5v67q0 56 16 75t67 19zM1681 182l5 -24q23 26 45 26v-65q-14 0 -41 -10v-175h-66v248h57zM1915 4v-2q0 -34 -22 -52t-62 -18q-42 0 -62 18.5t-20 61.5v8h59v-6
q0 -30 23 -30q20 0 20 18q0 14 -20 23l-37 20q-45 25 -45 68v2q0 69 78 69q84 0 84 -80v-6h-60v2q0 19 -4 26t-16 7q-16 0 -16 -14q0 -20 20 -31l35 -18q45 -22 45 -66zM2120 -68q-55 0 -71.5 25.5t-16.5 93.5v19q0 66 17.5 90t70.5 24t68.5 -24t15.5 -90v-19
q0 -69 -16.5 -94t-67.5 -25zM2300 127v-193h-68v248h58l2 -16q38 18 61 18q25 0 36 -13.5t11 -51.5v-185h-67v175q0 22 -13 22q-4 0 -20 -4zM2005 -66h-68v248h68v-248zM567 115v-29h35v29q0 22 -18 22q-17 0 -17 -22zM1495 86h37v29q0 22 -16 22q-21 0 -21 -22v-29z
M1057 98v-82q0 -17 4 -23.5t14 -6.5q12 0 15.5 6.5t3.5 25.5v80q0 19 -3.5 26t-15.5 7q-10 0 -14 -7t-4 -26zM2099 98v-82q0 -17 4.5 -23.5t16.5 -6.5t15 6t3 26v80q0 20 -3 26.5t-15 6.5t-16.5 -7t-4.5 -26zM1499 -178q16 0 22.5 -9t6.5 -34v-117h-41v111q0 14 -8 14
q-3 0 -7.5 -1t-7.5 -1v-123h-43v209h41v-59q23 10 37 10zM1589 -168h-43v39h43v-39zM2177 -186v57h45v-209h-37l-4 10q-22 -12 -37 -12q-18 0 -25.5 10t-7.5 37v60q0 33 8 44t27 11q11 0 31 -8zM2279 -168h-41v39h41v-39zM893 -158h45v-22h16v-33h-16v-78v-7.5t1 -5t3 -3
t6 -0.5h6v-31h-20q-28 0 -34.5 11t-6.5 46v68h-12v33h12v22zM1348 -158h41v-22h18v-33h-18v-78q0 -16 12 -16h6v-31h-21q-27 0 -32.5 10.5t-5.5 46.5v68h-13v33h13v22zM1913 -158h43v-22h18v-33h-18v-78v-7.5t1 -5t3 -3t6 -0.5h8v-31h-22q-15 0 -22.5 2.5t-11.5 10.5
t-4.5 16t-0.5 28v68h-12v33h12v22zM1167 -178q19 0 26 -10.5t7 -38.5v-56q0 -34 -8 -45.5t-25 -11.5q-19 0 -30 8v-59h-45v211h36l2 -10q22 12 37 12zM1272 -178q33 0 43 -14t10 -52v-26h-63v-23v-7.5t1 -5t3 -3t6 -0.5q10 0 10 12v14h43v-14q0 -23 -12 -33t-41 -10
q-34 0 -44.5 12t-10.5 45v41q0 36 11.5 50t43.5 14zM1661 -242l22 -12q29 -13 29 -43q0 -43 -53 -43q-27 0 -40 11t-13 38v8h36v-4q0 -20 17 -20q12 0 12 10t-12 16l-25 13q-28 12 -28 43q0 47 51 47q53 0 53 -53v-2h-39q0 22 -12 22t-12 -10t14 -21zM1839 -242l23 -12
q28 -12 28 -43q0 -43 -55 -43q-27 0 -38 11t-11 38v8h35v-4q0 -20 14 -20q12 0 12 10t-12 16l-20 13q-31 12 -31 43q0 47 49 47q55 0 55 -53v-2h-37q0 22 -16 22q-12 0 -12 -10t16 -21zM2355 -178q33 0 43 -16t10 -58v-10q0 -45 -10.5 -61.5t-42.5 -16.5q-34 0 -44.5 16.5
t-10.5 59.5v12q0 43 10.5 58.5t44.5 15.5zM395 -180l17 -92l10 92h43l-29 -158h-41l-20 88l-17 -88h-43l-28 158h43l10 -92l18 92h37zM580 -180l16 -92l10 92h43l-31 -158h-40l-21 88l-18 -88h-41l-27 158h43l8 -92l17 92h41zM778 -272l10 92h46l-29 -158h-45l-19 88
l-18 -88h-41l-29 158h43l11 -92l16 92h39zM1024 -244l16 64h41l-59 -211h-39l16 53l-38 158h43l10 -66q4 -15 6 -35q4 36 4 37zM1589 -338h-43v158h43v-158zM2052 -303v123h43v-158h-35l-4 8q-17 -10 -39 -10q-30 0 -30 41v119h43v-113q0 -14 8 -14t14 4zM2279 -338h-41v158
h41v-158zM1262 -244h22v19q0 14 -12 14q-10 0 -10 -14v-19zM2177 -303v88q-1 0 -4 1t-6 1q-10 0 -10 -20v-54q0 -20 10 -20q2 0 10 4zM1157 -287v54q0 12 -2 15t-8 3h-10v-90q1 0 4 -1t6 -1q10 0 10 20zM2365 -285v52v9.5t-1 5t-3 3t-6 0.5q-8 0 -10 -3t-2 -15v-52
q0 -22 12 -22q10 0 10 22zM877 -338h-43v41h43v-41zM1767 -338h-41v41h41v-41z" />
    <glyph glyph-name="exclamdown" unicode="&#xa1;" 
d="M1868 1194l141 27v-105l-256 -49v543l256 47v-105l-141 -26v-113l133 27l-2 -94l-131 -25v-127zM1559 1235l-54 -8v-211l-114 -21v543l135 29q87 17 128 -7.5t50 -97.5q8 -99 -24 -154t-121 -73zM924 903l-111 -20v438l-82 -16v102l346 68l88 -224l76 258l123 23
l-137 -397v-172l-115 -21v176l-102 242l-86 -19v-438zM1532 1479l-29 -4v-160l37 6q63 11 49 119q-5 45 -57 39zM1905 637l-9 399l121 25l-8 -406zM1726 453q-62 -11 -99.5 7.5t-45.5 57.5q-3 39 0 84l100 21q0 -42 2 -50q5 -23 39 -20q30 6 27 41q-1 13 -10 28t-17.5 24.5
t-33.5 35.5l-43 39q-40 37 -54.5 70.5t-13.5 82.5q3 109 123 132q58 11 98.5 -4t50.5 -62q4 -40 2 -63l-102 -21q0 32 -8.5 44.5t-30.5 8.5q-25 -5 -22 -35q0 -6 1 -10.5t2 -8.5t4 -8.5t5 -7t8 -8.5l9.5 -9.5l13 -13t16.5 -15.5l37 -39q36 -36 53 -67.5t21 -74.5
q3 -72 -27 -106.5t-105 -52.5zM1415 942l109 21v-89l-109 -24v92zM1241 588l-76 -15v-223l-112 -20v540l112 25l-2 -219l78 16l4 215l111 23v-541l-115 -22v221zM926 743v-438l-113 -20v436l-80 -16v104l273 53v-104zM1415 809l109 18v-405l-109 -23v410zM1905 588l108 22
l-2 -96l-106 -20v94zM1937 262h68v-59h-68v59zM473 156v-121q0 -54 -21.5 -77.5t-82.5 -23.5h-82v318h82q62 0 83 -22t21 -74zM1434 252l-66 -318h-68l-65 318h72l10 -55q7 -44 18 -131q2 29 19 131l10 55h70zM356 201v-215h9q21 0 29 10.5t7 36.5v123q0 25 -7.5 35
t-26.5 10h-11zM602 20h64v-20q0 -35 -19.5 -51.5t-64.5 -16.5q-50 0 -66 19.5t-16 71.5v67q0 55 17 74.5t67 19.5q51 0 66.5 -21t15.5 -77v-43h-99v-35q0 -17 3 -21.5t12 -4.5q20 0 20 22v16zM760 127v-193h-68v248h56l6 -16q34 18 61 18q28 0 37 -18q38 18 63 18
q26 0 36 -13t10 -52v-185h-66v175q0 22 -12 22q-5 0 -21 -4v-193h-65v175q0 22 -15 22q-6 0 -22 -4zM1075 -68q-53 0 -69.5 25.5t-16.5 93.5v19q0 66 17.5 90t68.5 24q53 0 69.5 -24.5t16.5 -89.5v-19q0 -69 -17 -94t-69 -25zM1513 184q53 0 67.5 -20.5t14.5 -77.5v-43h-100
v-35q0 -17 3.5 -21.5t14.5 -4.5q19 0 19 22v16h63v-20q0 -35 -19 -51.5t-65 -16.5q-50 0 -65.5 19.5t-15.5 71.5v67q0 56 16 75t67 19zM1681 182l5 -24q23 26 45 26v-65q-14 0 -41 -10v-175h-66v248h57zM1915 4v-2q0 -34 -22 -52t-62 -18q-42 0 -62 18.5t-20 61.5v8h59v-6
q0 -30 23 -30q20 0 20 18q0 14 -20 23l-37 20q-45 25 -45 68v2q0 69 78 69q84 0 84 -80v-6h-60v2q0 19 -4 26t-16 7q-16 0 -16 -14q0 -20 20 -31l35 -18q45 -22 45 -66zM2120 -68q-55 0 -71.5 25.5t-16.5 93.5v19q0 66 17.5 90t70.5 24t68.5 -24t15.5 -90v-19
q0 -69 -16.5 -94t-67.5 -25zM2300 127v-193h-68v248h58l2 -16q38 18 61 18q25 0 36 -13.5t11 -51.5v-185h-67v175q0 22 -13 22q-4 0 -20 -4zM2005 -66h-68v248h68v-248zM567 115v-29h35v29q0 22 -18 22q-17 0 -17 -22zM1495 86h37v29q0 22 -16 22q-21 0 -21 -22v-29z
M1057 98v-82q0 -17 4 -23.5t14 -6.5q12 0 15.5 6.5t3.5 25.5v80q0 19 -3.5 26t-15.5 7q-10 0 -14 -7t-4 -26zM2099 98v-82q0 -17 4.5 -23.5t16.5 -6.5t15 6t3 26v80q0 20 -3 26.5t-15 6.5t-16.5 -7t-4.5 -26zM1499 -178q16 0 22.5 -9t6.5 -34v-117h-41v111q0 14 -8 14
q-3 0 -7.5 -1t-7.5 -1v-123h-43v209h41v-59q23 10 37 10zM1589 -168h-43v39h43v-39zM2177 -186v57h45v-209h-37l-4 10q-22 -12 -37 -12q-18 0 -25.5 10t-7.5 37v60q0 33 8 44t27 11q11 0 31 -8zM2279 -168h-41v39h41v-39zM893 -158h45v-22h16v-33h-16v-78v-7.5t1 -5t3 -3
t6 -0.5h6v-31h-20q-28 0 -34.5 11t-6.5 46v68h-12v33h12v22zM1348 -158h41v-22h18v-33h-18v-78q0 -16 12 -16h6v-31h-21q-27 0 -32.5 10.5t-5.5 46.5v68h-13v33h13v22zM1913 -158h43v-22h18v-33h-18v-78v-7.5t1 -5t3 -3t6 -0.5h8v-31h-22q-15 0 -22.5 2.5t-11.5 10.5
t-4.5 16t-0.5 28v68h-12v33h12v22zM1167 -178q19 0 26 -10.5t7 -38.5v-56q0 -34 -8 -45.5t-25 -11.5q-19 0 -30 8v-59h-45v211h36l2 -10q22 12 37 12zM1272 -178q33 0 43 -14t10 -52v-26h-63v-23v-7.5t1 -5t3 -3t6 -0.5q10 0 10 12v14h43v-14q0 -23 -12 -33t-41 -10
q-34 0 -44.5 12t-10.5 45v41q0 36 11.5 50t43.5 14zM1661 -242l22 -12q29 -13 29 -43q0 -43 -53 -43q-27 0 -40 11t-13 38v8h36v-4q0 -20 17 -20q12 0 12 10t-12 16l-25 13q-28 12 -28 43q0 47 51 47q53 0 53 -53v-2h-39q0 22 -12 22t-12 -10t14 -21zM1839 -242l23 -12
q28 -12 28 -43q0 -43 -55 -43q-27 0 -38 11t-11 38v8h35v-4q0 -20 14 -20q12 0 12 10t-12 16l-20 13q-31 12 -31 43q0 47 49 47q55 0 55 -53v-2h-37q0 22 -16 22q-12 0 -12 -10t16 -21zM2355 -178q33 0 43 -16t10 -58v-10q0 -45 -10.5 -61.5t-42.5 -16.5q-34 0 -44.5 16.5
t-10.5 59.5v12q0 43 10.5 58.5t44.5 15.5zM395 -180l17 -92l10 92h43l-29 -158h-41l-20 88l-17 -88h-43l-28 158h43l10 -92l18 92h37zM580 -180l16 -92l10 92h43l-31 -158h-40l-21 88l-18 -88h-41l-27 158h43l8 -92l17 92h41zM778 -272l10 92h46l-29 -158h-45l-19 88
l-18 -88h-41l-29 158h43l11 -92l16 92h39zM1024 -244l16 64h41l-59 -211h-39l16 53l-38 158h43l10 -66q4 -15 6 -35q4 36 4 37zM1589 -338h-43v158h43v-158zM2052 -303v123h43v-158h-35l-4 8q-17 -10 -39 -10q-30 0 -30 41v119h43v-113q0 -14 8 -14t14 4zM2279 -338h-41v158
h41v-158zM1262 -244h22v19q0 14 -12 14q-10 0 -10 -14v-19zM2177 -303v88q-1 0 -4 1t-6 1q-10 0 -10 -20v-54q0 -20 10 -20q2 0 10 4zM1157 -287v54q0 12 -2 15t-8 3h-10v-90q1 0 4 -1t6 -1q10 0 10 20zM2365 -285v52v9.5t-1 5t-3 3t-6 0.5q-8 0 -10 -3t-2 -15v-52
q0 -22 12 -22q10 0 10 22zM877 -338h-43v41h43v-41zM1767 -338h-41v41h41v-41z" />
    <glyph glyph-name="cent" unicode="&#xa2;" 
d="M1868 1194l141 27v-105l-256 -49v543l256 47v-105l-141 -26v-113l133 27l-2 -94l-131 -25v-127zM1559 1235l-54 -8v-211l-114 -21v543l135 29q87 17 128 -7.5t50 -97.5q8 -99 -24 -154t-121 -73zM924 903l-111 -20v438l-82 -16v102l346 68l88 -224l76 258l123 23
l-137 -397v-172l-115 -21v176l-102 242l-86 -19v-438zM1532 1479l-29 -4v-160l37 6q63 11 49 119q-5 45 -57 39zM1905 637l-9 399l121 25l-8 -406zM1726 453q-62 -11 -99.5 7.5t-45.5 57.5q-3 39 0 84l100 21q0 -42 2 -50q5 -23 39 -20q30 6 27 41q-1 13 -10 28t-17.5 24.5
t-33.5 35.5l-43 39q-40 37 -54.5 70.5t-13.5 82.5q3 109 123 132q58 11 98.5 -4t50.5 -62q4 -40 2 -63l-102 -21q0 32 -8.5 44.5t-30.5 8.5q-25 -5 -22 -35q0 -6 1 -10.5t2 -8.5t4 -8.5t5 -7t8 -8.5l9.5 -9.5l13 -13t16.5 -15.5l37 -39q36 -36 53 -67.5t21 -74.5
q3 -72 -27 -106.5t-105 -52.5zM1415 942l109 21v-89l-109 -24v92zM1241 588l-76 -15v-223l-112 -20v540l112 25l-2 -219l78 16l4 215l111 23v-541l-115 -22v221zM926 743v-438l-113 -20v436l-80 -16v104l273 53v-104zM1415 809l109 18v-405l-109 -23v410zM1905 588l108 22
l-2 -96l-106 -20v94zM1937 262h68v-59h-68v59zM473 156v-121q0 -54 -21.5 -77.5t-82.5 -23.5h-82v318h82q62 0 83 -22t21 -74zM1434 252l-66 -318h-68l-65 318h72l10 -55q7 -44 18 -131q2 29 19 131l10 55h70zM356 201v-215h9q21 0 29 10.5t7 36.5v123q0 25 -7.5 35
t-26.5 10h-11zM602 20h64v-20q0 -35 -19.5 -51.5t-64.5 -16.5q-50 0 -66 19.5t-16 71.5v67q0 55 17 74.5t67 19.5q51 0 66.5 -21t15.5 -77v-43h-99v-35q0 -17 3 -21.5t12 -4.5q20 0 20 22v16zM760 127v-193h-68v248h56l6 -16q34 18 61 18q28 0 37 -18q38 18 63 18
q26 0 36 -13t10 -52v-185h-66v175q0 22 -12 22q-5 0 -21 -4v-193h-65v175q0 22 -15 22q-6 0 -22 -4zM1075 -68q-53 0 -69.5 25.5t-16.5 93.5v19q0 66 17.5 90t68.5 24q53 0 69.5 -24.5t16.5 -89.5v-19q0 -69 -17 -94t-69 -25zM1513 184q53 0 67.5 -20.5t14.5 -77.5v-43h-100
v-35q0 -17 3.5 -21.5t14.5 -4.5q19 0 19 22v16h63v-20q0 -35 -19 -51.5t-65 -16.5q-50 0 -65.5 19.5t-15.5 71.5v67q0 56 16 75t67 19zM1681 182l5 -24q23 26 45 26v-65q-14 0 -41 -10v-175h-66v248h57zM1915 4v-2q0 -34 -22 -52t-62 -18q-42 0 -62 18.5t-20 61.5v8h59v-6
q0 -30 23 -30q20 0 20 18q0 14 -20 23l-37 20q-45 25 -45 68v2q0 69 78 69q84 0 84 -80v-6h-60v2q0 19 -4 26t-16 7q-16 0 -16 -14q0 -20 20 -31l35 -18q45 -22 45 -66zM2120 -68q-55 0 -71.5 25.5t-16.5 93.5v19q0 66 17.5 90t70.5 24t68.5 -24t15.5 -90v-19
q0 -69 -16.5 -94t-67.5 -25zM2300 127v-193h-68v248h58l2 -16q38 18 61 18q25 0 36 -13.5t11 -51.5v-185h-67v175q0 22 -13 22q-4 0 -20 -4zM2005 -66h-68v248h68v-248zM567 115v-29h35v29q0 22 -18 22q-17 0 -17 -22zM1495 86h37v29q0 22 -16 22q-21 0 -21 -22v-29z
M1057 98v-82q0 -17 4 -23.5t14 -6.5q12 0 15.5 6.5t3.5 25.5v80q0 19 -3.5 26t-15.5 7q-10 0 -14 -7t-4 -26zM2099 98v-82q0 -17 4.5 -23.5t16.5 -6.5t15 6t3 26v80q0 20 -3 26.5t-15 6.5t-16.5 -7t-4.5 -26zM1499 -178q16 0 22.5 -9t6.5 -34v-117h-41v111q0 14 -8 14
q-3 0 -7.5 -1t-7.5 -1v-123h-43v209h41v-59q23 10 37 10zM1589 -168h-43v39h43v-39zM2177 -186v57h45v-209h-37l-4 10q-22 -12 -37 -12q-18 0 -25.5 10t-7.5 37v60q0 33 8 44t27 11q11 0 31 -8zM2279 -168h-41v39h41v-39zM893 -158h45v-22h16v-33h-16v-78v-7.5t1 -5t3 -3
t6 -0.5h6v-31h-20q-28 0 -34.5 11t-6.5 46v68h-12v33h12v22zM1348 -158h41v-22h18v-33h-18v-78q0 -16 12 -16h6v-31h-21q-27 0 -32.5 10.5t-5.5 46.5v68h-13v33h13v22zM1913 -158h43v-22h18v-33h-18v-78v-7.5t1 -5t3 -3t6 -0.5h8v-31h-22q-15 0 -22.5 2.5t-11.5 10.5
t-4.5 16t-0.5 28v68h-12v33h12v22zM1167 -178q19 0 26 -10.5t7 -38.5v-56q0 -34 -8 -45.5t-25 -11.5q-19 0 -30 8v-59h-45v211h36l2 -10q22 12 37 12zM1272 -178q33 0 43 -14t10 -52v-26h-63v-23v-7.5t1 -5t3 -3t6 -0.5q10 0 10 12v14h43v-14q0 -23 -12 -33t-41 -10
q-34 0 -44.5 12t-10.5 45v41q0 36 11.5 50t43.5 14zM1661 -242l22 -12q29 -13 29 -43q0 -43 -53 -43q-27 0 -40 11t-13 38v8h36v-4q0 -20 17 -20q12 0 12 10t-12 16l-25 13q-28 12 -28 43q0 47 51 47q53 0 53 -53v-2h-39q0 22 -12 22t-12 -10t14 -21zM1839 -242l23 -12
q28 -12 28 -43q0 -43 -55 -43q-27 0 -38 11t-11 38v8h35v-4q0 -20 14 -20q12 0 12 10t-12 16l-20 13q-31 12 -31 43q0 47 49 47q55 0 55 -53v-2h-37q0 22 -16 22q-12 0 -12 -10t16 -21zM2355 -178q33 0 43 -16t10 -58v-10q0 -45 -10.5 -61.5t-42.5 -16.5q-34 0 -44.5 16.5
t-10.5 59.5v12q0 43 10.5 58.5t44.5 15.5zM395 -180l17 -92l10 92h43l-29 -158h-41l-20 88l-17 -88h-43l-28 158h43l10 -92l18 92h37zM580 -180l16 -92l10 92h43l-31 -158h-40l-21 88l-18 -88h-41l-27 158h43l8 -92l17 92h41zM778 -272l10 92h46l-29 -158h-45l-19 88
l-18 -88h-41l-29 158h43l11 -92l16 92h39zM1024 -244l16 64h41l-59 -211h-39l16 53l-38 158h43l10 -66q4 -15 6 -35q4 36 4 37zM1589 -338h-43v158h43v-158zM2052 -303v123h43v-158h-35l-4 8q-17 -10 -39 -10q-30 0 -30 41v119h43v-113q0 -14 8 -14t14 4zM2279 -338h-41v158
h41v-158zM1262 -244h22v19q0 14 -12 14q-10 0 -10 -14v-19zM2177 -303v88q-1 0 -4 1t-6 1q-10 0 -10 -20v-54q0 -20 10 -20q2 0 10 4zM1157 -287v54q0 12 -2 15t-8 3h-10v-90q1 0 4 -1t6 -1q10 0 10 20zM2365 -285v52v9.5t-1 5t-3 3t-6 0.5q-8 0 -10 -3t-2 -15v-52
q0 -22 12 -22q10 0 10 22zM877 -338h-43v41h43v-41zM1767 -338h-41v41h41v-41z" />
    <glyph glyph-name="sterling" unicode="&#xa3;" 
d="M1868 1194l141 27v-105l-256 -49v543l256 47v-105l-141 -26v-113l133 27l-2 -94l-131 -25v-127zM1559 1235l-54 -8v-211l-114 -21v543l135 29q87 17 128 -7.5t50 -97.5q8 -99 -24 -154t-121 -73zM924 903l-111 -20v438l-82 -16v102l346 68l88 -224l76 258l123 23
l-137 -397v-172l-115 -21v176l-102 242l-86 -19v-438zM1532 1479l-29 -4v-160l37 6q63 11 49 119q-5 45 -57 39zM1905 637l-9 399l121 25l-8 -406zM1726 453q-62 -11 -99.5 7.5t-45.5 57.5q-3 39 0 84l100 21q0 -42 2 -50q5 -23 39 -20q30 6 27 41q-1 13 -10 28t-17.5 24.5
t-33.5 35.5l-43 39q-40 37 -54.5 70.5t-13.5 82.5q3 109 123 132q58 11 98.5 -4t50.5 -62q4 -40 2 -63l-102 -21q0 32 -8.5 44.5t-30.5 8.5q-25 -5 -22 -35q0 -6 1 -10.5t2 -8.5t4 -8.5t5 -7t8 -8.5l9.5 -9.5l13 -13t16.5 -15.5l37 -39q36 -36 53 -67.5t21 -74.5
q3 -72 -27 -106.5t-105 -52.5zM1415 942l109 21v-89l-109 -24v92zM1241 588l-76 -15v-223l-112 -20v540l112 25l-2 -219l78 16l4 215l111 23v-541l-115 -22v221zM926 743v-438l-113 -20v436l-80 -16v104l273 53v-104zM1415 809l109 18v-405l-109 -23v410zM1905 588l108 22
l-2 -96l-106 -20v94zM1937 262h68v-59h-68v59zM473 156v-121q0 -54 -21.5 -77.5t-82.5 -23.5h-82v318h82q62 0 83 -22t21 -74zM1434 252l-66 -318h-68l-65 318h72l10 -55q7 -44 18 -131q2 29 19 131l10 55h70zM356 201v-215h9q21 0 29 10.5t7 36.5v123q0 25 -7.5 35
t-26.5 10h-11zM602 20h64v-20q0 -35 -19.5 -51.5t-64.5 -16.5q-50 0 -66 19.5t-16 71.5v67q0 55 17 74.5t67 19.5q51 0 66.5 -21t15.5 -77v-43h-99v-35q0 -17 3 -21.5t12 -4.5q20 0 20 22v16zM760 127v-193h-68v248h56l6 -16q34 18 61 18q28 0 37 -18q38 18 63 18
q26 0 36 -13t10 -52v-185h-66v175q0 22 -12 22q-5 0 -21 -4v-193h-65v175q0 22 -15 22q-6 0 -22 -4zM1075 -68q-53 0 -69.5 25.5t-16.5 93.5v19q0 66 17.5 90t68.5 24q53 0 69.5 -24.5t16.5 -89.5v-19q0 -69 -17 -94t-69 -25zM1513 184q53 0 67.5 -20.5t14.5 -77.5v-43h-100
v-35q0 -17 3.5 -21.5t14.5 -4.5q19 0 19 22v16h63v-20q0 -35 -19 -51.5t-65 -16.5q-50 0 -65.5 19.5t-15.5 71.5v67q0 56 16 75t67 19zM1681 182l5 -24q23 26 45 26v-65q-14 0 -41 -10v-175h-66v248h57zM1915 4v-2q0 -34 -22 -52t-62 -18q-42 0 -62 18.5t-20 61.5v8h59v-6
q0 -30 23 -30q20 0 20 18q0 14 -20 23l-37 20q-45 25 -45 68v2q0 69 78 69q84 0 84 -80v-6h-60v2q0 19 -4 26t-16 7q-16 0 -16 -14q0 -20 20 -31l35 -18q45 -22 45 -66zM2120 -68q-55 0 -71.5 25.5t-16.5 93.5v19q0 66 17.5 90t70.5 24t68.5 -24t15.5 -90v-19
q0 -69 -16.5 -94t-67.5 -25zM2300 127v-193h-68v248h58l2 -16q38 18 61 18q25 0 36 -13.5t11 -51.5v-185h-67v175q0 22 -13 22q-4 0 -20 -4zM2005 -66h-68v248h68v-248zM567 115v-29h35v29q0 22 -18 22q-17 0 -17 -22zM1495 86h37v29q0 22 -16 22q-21 0 -21 -22v-29z
M1057 98v-82q0 -17 4 -23.5t14 -6.5q12 0 15.5 6.5t3.5 25.5v80q0 19 -3.5 26t-15.5 7q-10 0 -14 -7t-4 -26zM2099 98v-82q0 -17 4.5 -23.5t16.5 -6.5t15 6t3 26v80q0 20 -3 26.5t-15 6.5t-16.5 -7t-4.5 -26zM1499 -178q16 0 22.5 -9t6.5 -34v-117h-41v111q0 14 -8 14
q-3 0 -7.5 -1t-7.5 -1v-123h-43v209h41v-59q23 10 37 10zM1589 -168h-43v39h43v-39zM2177 -186v57h45v-209h-37l-4 10q-22 -12 -37 -12q-18 0 -25.5 10t-7.5 37v60q0 33 8 44t27 11q11 0 31 -8zM2279 -168h-41v39h41v-39zM893 -158h45v-22h16v-33h-16v-78v-7.5t1 -5t3 -3
t6 -0.5h6v-31h-20q-28 0 -34.5 11t-6.5 46v68h-12v33h12v22zM1348 -158h41v-22h18v-33h-18v-78q0 -16 12 -16h6v-31h-21q-27 0 -32.5 10.5t-5.5 46.5v68h-13v33h13v22zM1913 -158h43v-22h18v-33h-18v-78v-7.5t1 -5t3 -3t6 -0.5h8v-31h-22q-15 0 -22.5 2.5t-11.5 10.5
t-4.5 16t-0.5 28v68h-12v33h12v22zM1167 -178q19 0 26 -10.5t7 -38.5v-56q0 -34 -8 -45.5t-25 -11.5q-19 0 -30 8v-59h-45v211h36l2 -10q22 12 37 12zM1272 -178q33 0 43 -14t10 -52v-26h-63v-23v-7.5t1 -5t3 -3t6 -0.5q10 0 10 12v14h43v-14q0 -23 -12 -33t-41 -10
q-34 0 -44.5 12t-10.5 45v41q0 36 11.5 50t43.5 14zM1661 -242l22 -12q29 -13 29 -43q0 -43 -53 -43q-27 0 -40 11t-13 38v8h36v-4q0 -20 17 -20q12 0 12 10t-12 16l-25 13q-28 12 -28 43q0 47 51 47q53 0 53 -53v-2h-39q0 22 -12 22t-12 -10t14 -21zM1839 -242l23 -12
q28 -12 28 -43q0 -43 -55 -43q-27 0 -38 11t-11 38v8h35v-4q0 -20 14 -20q12 0 12 10t-12 16l-20 13q-31 12 -31 43q0 47 49 47q55 0 55 -53v-2h-37q0 22 -16 22q-12 0 -12 -10t16 -21zM2355 -178q33 0 43 -16t10 -58v-10q0 -45 -10.5 -61.5t-42.5 -16.5q-34 0 -44.5 16.5
t-10.5 59.5v12q0 43 10.5 58.5t44.5 15.5zM395 -180l17 -92l10 92h43l-29 -158h-41l-20 88l-17 -88h-43l-28 158h43l10 -92l18 92h37zM580 -180l16 -92l10 92h43l-31 -158h-40l-21 88l-18 -88h-41l-27 158h43l8 -92l17 92h41zM778 -272l10 92h46l-29 -158h-45l-19 88
l-18 -88h-41l-29 158h43l11 -92l16 92h39zM1024 -244l16 64h41l-59 -211h-39l16 53l-38 158h43l10 -66q4 -15 6 -35q4 36 4 37zM1589 -338h-43v158h43v-158zM2052 -303v123h43v-158h-35l-4 8q-17 -10 -39 -10q-30 0 -30 41v119h43v-113q0 -14 8 -14t14 4zM2279 -338h-41v158
h41v-158zM1262 -244h22v19q0 14 -12 14q-10 0 -10 -14v-19zM2177 -303v88q-1 0 -4 1t-6 1q-10 0 -10 -20v-54q0 -20 10 -20q2 0 10 4zM1157 -287v54q0 12 -2 15t-8 3h-10v-90q1 0 4 -1t6 -1q10 0 10 20zM2365 -285v52v9.5t-1 5t-3 3t-6 0.5q-8 0 -10 -3t-2 -15v-52
q0 -22 12 -22q10 0 10 22zM877 -338h-43v41h43v-41zM1767 -338h-41v41h41v-41z" />
    <glyph glyph-name="currency" unicode="&#xa4;" 
d="M1868 1194l141 27v-105l-256 -49v543l256 47v-105l-141 -26v-113l133 27l-2 -94l-131 -25v-127zM1559 1235l-54 -8v-211l-114 -21v543l135 29q87 17 128 -7.5t50 -97.5q8 -99 -24 -154t-121 -73zM924 903l-111 -20v438l-82 -16v102l346 68l88 -224l76 258l123 23
l-137 -397v-172l-115 -21v176l-102 242l-86 -19v-438zM1532 1479l-29 -4v-160l37 6q63 11 49 119q-5 45 -57 39zM1905 637l-9 399l121 25l-8 -406zM1726 453q-62 -11 -99.5 7.5t-45.5 57.5q-3 39 0 84l100 21q0 -42 2 -50q5 -23 39 -20q30 6 27 41q-1 13 -10 28t-17.5 24.5
t-33.5 35.5l-43 39q-40 37 -54.5 70.5t-13.5 82.5q3 109 123 132q58 11 98.5 -4t50.5 -62q4 -40 2 -63l-102 -21q0 32 -8.5 44.5t-30.5 8.5q-25 -5 -22 -35q0 -6 1 -10.5t2 -8.5t4 -8.5t5 -7t8 -8.5l9.5 -9.5l13 -13t16.5 -15.5l37 -39q36 -36 53 -67.5t21 -74.5
q3 -72 -27 -106.5t-105 -52.5zM1415 942l109 21v-89l-109 -24v92zM1241 588l-76 -15v-223l-112 -20v540l112 25l-2 -219l78 16l4 215l111 23v-541l-115 -22v221zM926 743v-438l-113 -20v436l-80 -16v104l273 53v-104zM1415 809l109 18v-405l-109 -23v410zM1905 588l108 22
l-2 -96l-106 -20v94zM1937 262h68v-59h-68v59zM473 156v-121q0 -54 -21.5 -77.5t-82.5 -23.5h-82v318h82q62 0 83 -22t21 -74zM1434 252l-66 -318h-68l-65 318h72l10 -55q7 -44 18 -131q2 29 19 131l10 55h70zM356 201v-215h9q21 0 29 10.5t7 36.5v123q0 25 -7.5 35
t-26.5 10h-11zM602 20h64v-20q0 -35 -19.5 -51.5t-64.5 -16.5q-50 0 -66 19.5t-16 71.5v67q0 55 17 74.5t67 19.5q51 0 66.5 -21t15.5 -77v-43h-99v-35q0 -17 3 -21.5t12 -4.5q20 0 20 22v16zM760 127v-193h-68v248h56l6 -16q34 18 61 18q28 0 37 -18q38 18 63 18
q26 0 36 -13t10 -52v-185h-66v175q0 22 -12 22q-5 0 -21 -4v-193h-65v175q0 22 -15 22q-6 0 -22 -4zM1075 -68q-53 0 -69.5 25.5t-16.5 93.5v19q0 66 17.5 90t68.5 24q53 0 69.5 -24.5t16.5 -89.5v-19q0 -69 -17 -94t-69 -25zM1513 184q53 0 67.5 -20.5t14.5 -77.5v-43h-100
v-35q0 -17 3.5 -21.5t14.5 -4.5q19 0 19 22v16h63v-20q0 -35 -19 -51.5t-65 -16.5q-50 0 -65.5 19.5t-15.5 71.5v67q0 56 16 75t67 19zM1681 182l5 -24q23 26 45 26v-65q-14 0 -41 -10v-175h-66v248h57zM1915 4v-2q0 -34 -22 -52t-62 -18q-42 0 -62 18.5t-20 61.5v8h59v-6
q0 -30 23 -30q20 0 20 18q0 14 -20 23l-37 20q-45 25 -45 68v2q0 69 78 69q84 0 84 -80v-6h-60v2q0 19 -4 26t-16 7q-16 0 -16 -14q0 -20 20 -31l35 -18q45 -22 45 -66zM2120 -68q-55 0 -71.5 25.5t-16.5 93.5v19q0 66 17.5 90t70.5 24t68.5 -24t15.5 -90v-19
q0 -69 -16.5 -94t-67.5 -25zM2300 127v-193h-68v248h58l2 -16q38 18 61 18q25 0 36 -13.5t11 -51.5v-185h-67v175q0 22 -13 22q-4 0 -20 -4zM2005 -66h-68v248h68v-248zM567 115v-29h35v29q0 22 -18 22q-17 0 -17 -22zM1495 86h37v29q0 22 -16 22q-21 0 -21 -22v-29z
M1057 98v-82q0 -17 4 -23.5t14 -6.5q12 0 15.5 6.5t3.5 25.5v80q0 19 -3.5 26t-15.5 7q-10 0 -14 -7t-4 -26zM2099 98v-82q0 -17 4.5 -23.5t16.5 -6.5t15 6t3 26v80q0 20 -3 26.5t-15 6.5t-16.5 -7t-4.5 -26zM1499 -178q16 0 22.5 -9t6.5 -34v-117h-41v111q0 14 -8 14
q-3 0 -7.5 -1t-7.5 -1v-123h-43v209h41v-59q23 10 37 10zM1589 -168h-43v39h43v-39zM2177 -186v57h45v-209h-37l-4 10q-22 -12 -37 -12q-18 0 -25.5 10t-7.5 37v60q0 33 8 44t27 11q11 0 31 -8zM2279 -168h-41v39h41v-39zM893 -158h45v-22h16v-33h-16v-78v-7.5t1 -5t3 -3
t6 -0.5h6v-31h-20q-28 0 -34.5 11t-6.5 46v68h-12v33h12v22zM1348 -158h41v-22h18v-33h-18v-78q0 -16 12 -16h6v-31h-21q-27 0 -32.5 10.5t-5.5 46.5v68h-13v33h13v22zM1913 -158h43v-22h18v-33h-18v-78v-7.5t1 -5t3 -3t6 -0.5h8v-31h-22q-15 0 -22.5 2.5t-11.5 10.5
t-4.5 16t-0.5 28v68h-12v33h12v22zM1167 -178q19 0 26 -10.5t7 -38.5v-56q0 -34 -8 -45.5t-25 -11.5q-19 0 -30 8v-59h-45v211h36l2 -10q22 12 37 12zM1272 -178q33 0 43 -14t10 -52v-26h-63v-23v-7.5t1 -5t3 -3t6 -0.5q10 0 10 12v14h43v-14q0 -23 -12 -33t-41 -10
q-34 0 -44.5 12t-10.5 45v41q0 36 11.5 50t43.5 14zM1661 -242l22 -12q29 -13 29 -43q0 -43 -53 -43q-27 0 -40 11t-13 38v8h36v-4q0 -20 17 -20q12 0 12 10t-12 16l-25 13q-28 12 -28 43q0 47 51 47q53 0 53 -53v-2h-39q0 22 -12 22t-12 -10t14 -21zM1839 -242l23 -12
q28 -12 28 -43q0 -43 -55 -43q-27 0 -38 11t-11 38v8h35v-4q0 -20 14 -20q12 0 12 10t-12 16l-20 13q-31 12 -31 43q0 47 49 47q55 0 55 -53v-2h-37q0 22 -16 22q-12 0 -12 -10t16 -21zM2355 -178q33 0 43 -16t10 -58v-10q0 -45 -10.5 -61.5t-42.5 -16.5q-34 0 -44.5 16.5
t-10.5 59.5v12q0 43 10.5 58.5t44.5 15.5zM395 -180l17 -92l10 92h43l-29 -158h-41l-20 88l-17 -88h-43l-28 158h43l10 -92l18 92h37zM580 -180l16 -92l10 92h43l-31 -158h-40l-21 88l-18 -88h-41l-27 158h43l8 -92l17 92h41zM778 -272l10 92h46l-29 -158h-45l-19 88
l-18 -88h-41l-29 158h43l11 -92l16 92h39zM1024 -244l16 64h41l-59 -211h-39l16 53l-38 158h43l10 -66q4 -15 6 -35q4 36 4 37zM1589 -338h-43v158h43v-158zM2052 -303v123h43v-158h-35l-4 8q-17 -10 -39 -10q-30 0 -30 41v119h43v-113q0 -14 8 -14t14 4zM2279 -338h-41v158
h41v-158zM1262 -244h22v19q0 14 -12 14q-10 0 -10 -14v-19zM2177 -303v88q-1 0 -4 1t-6 1q-10 0 -10 -20v-54q0 -20 10 -20q2 0 10 4zM1157 -287v54q0 12 -2 15t-8 3h-10v-90q1 0 4 -1t6 -1q10 0 10 20zM2365 -285v52v9.5t-1 5t-3 3t-6 0.5q-8 0 -10 -3t-2 -15v-52
q0 -22 12 -22q10 0 10 22zM877 -338h-43v41h43v-41zM1767 -338h-41v41h41v-41z" />
    <glyph glyph-name="yen" unicode="&#xa5;" 
d="M1868 1194l141 27v-105l-256 -49v543l256 47v-105l-141 -26v-113l133 27l-2 -94l-131 -25v-127zM1559 1235l-54 -8v-211l-114 -21v543l135 29q87 17 128 -7.5t50 -97.5q8 -99 -24 -154t-121 -73zM924 903l-111 -20v438l-82 -16v102l346 68l88 -224l76 258l123 23
l-137 -397v-172l-115 -21v176l-102 242l-86 -19v-438zM1532 1479l-29 -4v-160l37 6q63 11 49 119q-5 45 -57 39zM1905 637l-9 399l121 25l-8 -406zM1726 453q-62 -11 -99.5 7.5t-45.5 57.5q-3 39 0 84l100 21q0 -42 2 -50q5 -23 39 -20q30 6 27 41q-1 13 -10 28t-17.5 24.5
t-33.5 35.5l-43 39q-40 37 -54.5 70.5t-13.5 82.5q3 109 123 132q58 11 98.5 -4t50.5 -62q4 -40 2 -63l-102 -21q0 32 -8.5 44.5t-30.5 8.5q-25 -5 -22 -35q0 -6 1 -10.5t2 -8.5t4 -8.5t5 -7t8 -8.5l9.5 -9.5l13 -13t16.5 -15.5l37 -39q36 -36 53 -67.5t21 -74.5
q3 -72 -27 -106.5t-105 -52.5zM1415 942l109 21v-89l-109 -24v92zM1241 588l-76 -15v-223l-112 -20v540l112 25l-2 -219l78 16l4 215l111 23v-541l-115 -22v221zM926 743v-438l-113 -20v436l-80 -16v104l273 53v-104zM1415 809l109 18v-405l-109 -23v410zM1905 588l108 22
l-2 -96l-106 -20v94zM1937 262h68v-59h-68v59zM473 156v-121q0 -54 -21.5 -77.5t-82.5 -23.5h-82v318h82q62 0 83 -22t21 -74zM1434 252l-66 -318h-68l-65 318h72l10 -55q7 -44 18 -131q2 29 19 131l10 55h70zM356 201v-215h9q21 0 29 10.5t7 36.5v123q0 25 -7.5 35
t-26.5 10h-11zM602 20h64v-20q0 -35 -19.5 -51.5t-64.5 -16.5q-50 0 -66 19.5t-16 71.5v67q0 55 17 74.5t67 19.5q51 0 66.5 -21t15.5 -77v-43h-99v-35q0 -17 3 -21.5t12 -4.5q20 0 20 22v16zM760 127v-193h-68v248h56l6 -16q34 18 61 18q28 0 37 -18q38 18 63 18
q26 0 36 -13t10 -52v-185h-66v175q0 22 -12 22q-5 0 -21 -4v-193h-65v175q0 22 -15 22q-6 0 -22 -4zM1075 -68q-53 0 -69.5 25.5t-16.5 93.5v19q0 66 17.5 90t68.5 24q53 0 69.5 -24.5t16.5 -89.5v-19q0 -69 -17 -94t-69 -25zM1513 184q53 0 67.5 -20.5t14.5 -77.5v-43h-100
v-35q0 -17 3.5 -21.5t14.5 -4.5q19 0 19 22v16h63v-20q0 -35 -19 -51.5t-65 -16.5q-50 0 -65.5 19.5t-15.5 71.5v67q0 56 16 75t67 19zM1681 182l5 -24q23 26 45 26v-65q-14 0 -41 -10v-175h-66v248h57zM1915 4v-2q0 -34 -22 -52t-62 -18q-42 0 -62 18.5t-20 61.5v8h59v-6
q0 -30 23 -30q20 0 20 18q0 14 -20 23l-37 20q-45 25 -45 68v2q0 69 78 69q84 0 84 -80v-6h-60v2q0 19 -4 26t-16 7q-16 0 -16 -14q0 -20 20 -31l35 -18q45 -22 45 -66zM2120 -68q-55 0 -71.5 25.5t-16.5 93.5v19q0 66 17.5 90t70.5 24t68.5 -24t15.5 -90v-19
q0 -69 -16.5 -94t-67.5 -25zM2300 127v-193h-68v248h58l2 -16q38 18 61 18q25 0 36 -13.5t11 -51.5v-185h-67v175q0 22 -13 22q-4 0 -20 -4zM2005 -66h-68v248h68v-248zM567 115v-29h35v29q0 22 -18 22q-17 0 -17 -22zM1495 86h37v29q0 22 -16 22q-21 0 -21 -22v-29z
M1057 98v-82q0 -17 4 -23.5t14 -6.5q12 0 15.5 6.5t3.5 25.5v80q0 19 -3.5 26t-15.5 7q-10 0 -14 -7t-4 -26zM2099 98v-82q0 -17 4.5 -23.5t16.5 -6.5t15 6t3 26v80q0 20 -3 26.5t-15 6.5t-16.5 -7t-4.5 -26zM1499 -178q16 0 22.5 -9t6.5 -34v-117h-41v111q0 14 -8 14
q-3 0 -7.5 -1t-7.5 -1v-123h-43v209h41v-59q23 10 37 10zM1589 -168h-43v39h43v-39zM2177 -186v57h45v-209h-37l-4 10q-22 -12 -37 -12q-18 0 -25.5 10t-7.5 37v60q0 33 8 44t27 11q11 0 31 -8zM2279 -168h-41v39h41v-39zM893 -158h45v-22h16v-33h-16v-78v-7.5t1 -5t3 -3
t6 -0.5h6v-31h-20q-28 0 -34.5 11t-6.5 46v68h-12v33h12v22zM1348 -158h41v-22h18v-33h-18v-78q0 -16 12 -16h6v-31h-21q-27 0 -32.5 10.5t-5.5 46.5v68h-13v33h13v22zM1913 -158h43v-22h18v-33h-18v-78v-7.5t1 -5t3 -3t6 -0.5h8v-31h-22q-15 0 -22.5 2.5t-11.5 10.5
t-4.5 16t-0.5 28v68h-12v33h12v22zM1167 -178q19 0 26 -10.5t7 -38.5v-56q0 -34 -8 -45.5t-25 -11.5q-19 0 -30 8v-59h-45v211h36l2 -10q22 12 37 12zM1272 -178q33 0 43 -14t10 -52v-26h-63v-23v-7.5t1 -5t3 -3t6 -0.5q10 0 10 12v14h43v-14q0 -23 -12 -33t-41 -10
q-34 0 -44.5 12t-10.5 45v41q0 36 11.5 50t43.5 14zM1661 -242l22 -12q29 -13 29 -43q0 -43 -53 -43q-27 0 -40 11t-13 38v8h36v-4q0 -20 17 -20q12 0 12 10t-12 16l-25 13q-28 12 -28 43q0 47 51 47q53 0 53 -53v-2h-39q0 22 -12 22t-12 -10t14 -21zM1839 -242l23 -12
q28 -12 28 -43q0 -43 -55 -43q-27 0 -38 11t-11 38v8h35v-4q0 -20 14 -20q12 0 12 10t-12 16l-20 13q-31 12 -31 43q0 47 49 47q55 0 55 -53v-2h-37q0 22 -16 22q-12 0 -12 -10t16 -21zM2355 -178q33 0 43 -16t10 -58v-10q0 -45 -10.5 -61.5t-42.5 -16.5q-34 0 -44.5 16.5
t-10.5 59.5v12q0 43 10.5 58.5t44.5 15.5zM395 -180l17 -92l10 92h43l-29 -158h-41l-20 88l-17 -88h-43l-28 158h43l10 -92l18 92h37zM580 -180l16 -92l10 92h43l-31 -158h-40l-21 88l-18 -88h-41l-27 158h43l8 -92l17 92h41zM778 -272l10 92h46l-29 -158h-45l-19 88
l-18 -88h-41l-29 158h43l11 -92l16 92h39zM1024 -244l16 64h41l-59 -211h-39l16 53l-38 158h43l10 -66q4 -15 6 -35q4 36 4 37zM1589 -338h-43v158h43v-158zM2052 -303v123h43v-158h-35l-4 8q-17 -10 -39 -10q-30 0 -30 41v119h43v-113q0 -14 8 -14t14 4zM2279 -338h-41v158
h41v-158zM1262 -244h22v19q0 14 -12 14q-10 0 -10 -14v-19zM2177 -303v88q-1 0 -4 1t-6 1q-10 0 -10 -20v-54q0 -20 10 -20q2 0 10 4zM1157 -287v54q0 12 -2 15t-8 3h-10v-90q1 0 4 -1t6 -1q10 0 10 20zM2365 -285v52v9.5t-1 5t-3 3t-6 0.5q-8 0 -10 -3t-2 -15v-52
q0 -22 12 -22q10 0 10 22zM877 -338h-43v41h43v-41zM1767 -338h-41v41h41v-41z" />
    <glyph glyph-name="section" unicode="&#xa7;" 
d="M1868 1194l141 27v-105l-256 -49v543l256 47v-105l-141 -26v-113l133 27l-2 -94l-131 -25v-127zM1559 1235l-54 -8v-211l-114 -21v543l135 29q87 17 128 -7.5t50 -97.5q8 -99 -24 -154t-121 -73zM924 903l-111 -20v438l-82 -16v102l346 68l88 -224l76 258l123 23
l-137 -397v-172l-115 -21v176l-102 242l-86 -19v-438zM1532 1479l-29 -4v-160l37 6q63 11 49 119q-5 45 -57 39zM1905 637l-9 399l121 25l-8 -406zM1726 453q-62 -11 -99.5 7.5t-45.5 57.5q-3 39 0 84l100 21q0 -42 2 -50q5 -23 39 -20q30 6 27 41q-1 13 -10 28t-17.5 24.5
t-33.5 35.5l-43 39q-40 37 -54.5 70.5t-13.5 82.5q3 109 123 132q58 11 98.5 -4t50.5 -62q4 -40 2 -63l-102 -21q0 32 -8.5 44.5t-30.5 8.5q-25 -5 -22 -35q0 -6 1 -10.5t2 -8.5t4 -8.5t5 -7t8 -8.5l9.5 -9.5l13 -13t16.5 -15.5l37 -39q36 -36 53 -67.5t21 -74.5
q3 -72 -27 -106.5t-105 -52.5zM1415 942l109 21v-89l-109 -24v92zM1241 588l-76 -15v-223l-112 -20v540l112 25l-2 -219l78 16l4 215l111 23v-541l-115 -22v221zM926 743v-438l-113 -20v436l-80 -16v104l273 53v-104zM1415 809l109 18v-405l-109 -23v410zM1905 588l108 22
l-2 -96l-106 -20v94zM1937 262h68v-59h-68v59zM473 156v-121q0 -54 -21.5 -77.5t-82.5 -23.5h-82v318h82q62 0 83 -22t21 -74zM1434 252l-66 -318h-68l-65 318h72l10 -55q7 -44 18 -131q2 29 19 131l10 55h70zM356 201v-215h9q21 0 29 10.5t7 36.5v123q0 25 -7.5 35
t-26.5 10h-11zM602 20h64v-20q0 -35 -19.5 -51.5t-64.5 -16.5q-50 0 -66 19.5t-16 71.5v67q0 55 17 74.5t67 19.5q51 0 66.5 -21t15.5 -77v-43h-99v-35q0 -17 3 -21.5t12 -4.5q20 0 20 22v16zM760 127v-193h-68v248h56l6 -16q34 18 61 18q28 0 37 -18q38 18 63 18
q26 0 36 -13t10 -52v-185h-66v175q0 22 -12 22q-5 0 -21 -4v-193h-65v175q0 22 -15 22q-6 0 -22 -4zM1075 -68q-53 0 -69.5 25.5t-16.5 93.5v19q0 66 17.5 90t68.5 24q53 0 69.5 -24.5t16.5 -89.5v-19q0 -69 -17 -94t-69 -25zM1513 184q53 0 67.5 -20.5t14.5 -77.5v-43h-100
v-35q0 -17 3.5 -21.5t14.5 -4.5q19 0 19 22v16h63v-20q0 -35 -19 -51.5t-65 -16.5q-50 0 -65.5 19.5t-15.5 71.5v67q0 56 16 75t67 19zM1681 182l5 -24q23 26 45 26v-65q-14 0 -41 -10v-175h-66v248h57zM1915 4v-2q0 -34 -22 -52t-62 -18q-42 0 -62 18.5t-20 61.5v8h59v-6
q0 -30 23 -30q20 0 20 18q0 14 -20 23l-37 20q-45 25 -45 68v2q0 69 78 69q84 0 84 -80v-6h-60v2q0 19 -4 26t-16 7q-16 0 -16 -14q0 -20 20 -31l35 -18q45 -22 45 -66zM2120 -68q-55 0 -71.5 25.5t-16.5 93.5v19q0 66 17.5 90t70.5 24t68.5 -24t15.5 -90v-19
q0 -69 -16.5 -94t-67.5 -25zM2300 127v-193h-68v248h58l2 -16q38 18 61 18q25 0 36 -13.5t11 -51.5v-185h-67v175q0 22 -13 22q-4 0 -20 -4zM2005 -66h-68v248h68v-248zM567 115v-29h35v29q0 22 -18 22q-17 0 -17 -22zM1495 86h37v29q0 22 -16 22q-21 0 -21 -22v-29z
M1057 98v-82q0 -17 4 -23.5t14 -6.5q12 0 15.5 6.5t3.5 25.5v80q0 19 -3.5 26t-15.5 7q-10 0 -14 -7t-4 -26zM2099 98v-82q0 -17 4.5 -23.5t16.5 -6.5t15 6t3 26v80q0 20 -3 26.5t-15 6.5t-16.5 -7t-4.5 -26zM1499 -178q16 0 22.5 -9t6.5 -34v-117h-41v111q0 14 -8 14
q-3 0 -7.5 -1t-7.5 -1v-123h-43v209h41v-59q23 10 37 10zM1589 -168h-43v39h43v-39zM2177 -186v57h45v-209h-37l-4 10q-22 -12 -37 -12q-18 0 -25.5 10t-7.5 37v60q0 33 8 44t27 11q11 0 31 -8zM2279 -168h-41v39h41v-39zM893 -158h45v-22h16v-33h-16v-78v-7.5t1 -5t3 -3
t6 -0.5h6v-31h-20q-28 0 -34.5 11t-6.5 46v68h-12v33h12v22zM1348 -158h41v-22h18v-33h-18v-78q0 -16 12 -16h6v-31h-21q-27 0 -32.5 10.5t-5.5 46.5v68h-13v33h13v22zM1913 -158h43v-22h18v-33h-18v-78v-7.5t1 -5t3 -3t6 -0.5h8v-31h-22q-15 0 -22.5 2.5t-11.5 10.5
t-4.5 16t-0.5 28v68h-12v33h12v22zM1167 -178q19 0 26 -10.5t7 -38.5v-56q0 -34 -8 -45.5t-25 -11.5q-19 0 -30 8v-59h-45v211h36l2 -10q22 12 37 12zM1272 -178q33 0 43 -14t10 -52v-26h-63v-23v-7.5t1 -5t3 -3t6 -0.5q10 0 10 12v14h43v-14q0 -23 -12 -33t-41 -10
q-34 0 -44.5 12t-10.5 45v41q0 36 11.5 50t43.5 14zM1661 -242l22 -12q29 -13 29 -43q0 -43 -53 -43q-27 0 -40 11t-13 38v8h36v-4q0 -20 17 -20q12 0 12 10t-12 16l-25 13q-28 12 -28 43q0 47 51 47q53 0 53 -53v-2h-39q0 22 -12 22t-12 -10t14 -21zM1839 -242l23 -12
q28 -12 28 -43q0 -43 -55 -43q-27 0 -38 11t-11 38v8h35v-4q0 -20 14 -20q12 0 12 10t-12 16l-20 13q-31 12 -31 43q0 47 49 47q55 0 55 -53v-2h-37q0 22 -16 22q-12 0 -12 -10t16 -21zM2355 -178q33 0 43 -16t10 -58v-10q0 -45 -10.5 -61.5t-42.5 -16.5q-34 0 -44.5 16.5
t-10.5 59.5v12q0 43 10.5 58.5t44.5 15.5zM395 -180l17 -92l10 92h43l-29 -158h-41l-20 88l-17 -88h-43l-28 158h43l10 -92l18 92h37zM580 -180l16 -92l10 92h43l-31 -158h-40l-21 88l-18 -88h-41l-27 158h43l8 -92l17 92h41zM778 -272l10 92h46l-29 -158h-45l-19 88
l-18 -88h-41l-29 158h43l11 -92l16 92h39zM1024 -244l16 64h41l-59 -211h-39l16 53l-38 158h43l10 -66q4 -15 6 -35q4 36 4 37zM1589 -338h-43v158h43v-158zM2052 -303v123h43v-158h-35l-4 8q-17 -10 -39 -10q-30 0 -30 41v119h43v-113q0 -14 8 -14t14 4zM2279 -338h-41v158
h41v-158zM1262 -244h22v19q0 14 -12 14q-10 0 -10 -14v-19zM2177 -303v88q-1 0 -4 1t-6 1q-10 0 -10 -20v-54q0 -20 10 -20q2 0 10 4zM1157 -287v54q0 12 -2 15t-8 3h-10v-90q1 0 4 -1t6 -1q10 0 10 20zM2365 -285v52v9.5t-1 5t-3 3t-6 0.5q-8 0 -10 -3t-2 -15v-52
q0 -22 12 -22q10 0 10 22zM877 -338h-43v41h43v-41zM1767 -338h-41v41h41v-41z" />
    <glyph glyph-name="copyright" unicode="&#xa9;" 
d="M1868 1194l141 27v-105l-256 -49v543l256 47v-105l-141 -26v-113l133 27l-2 -94l-131 -25v-127zM1559 1235l-54 -8v-211l-114 -21v543l135 29q87 17 128 -7.5t50 -97.5q8 -99 -24 -154t-121 -73zM924 903l-111 -20v438l-82 -16v102l346 68l88 -224l76 258l123 23
l-137 -397v-172l-115 -21v176l-102 242l-86 -19v-438zM1532 1479l-29 -4v-160l37 6q63 11 49 119q-5 45 -57 39zM1905 637l-9 399l121 25l-8 -406zM1726 453q-62 -11 -99.5 7.5t-45.5 57.5q-3 39 0 84l100 21q0 -42 2 -50q5 -23 39 -20q30 6 27 41q-1 13 -10 28t-17.5 24.5
t-33.5 35.5l-43 39q-40 37 -54.5 70.5t-13.5 82.5q3 109 123 132q58 11 98.5 -4t50.5 -62q4 -40 2 -63l-102 -21q0 32 -8.5 44.5t-30.5 8.5q-25 -5 -22 -35q0 -6 1 -10.5t2 -8.5t4 -8.5t5 -7t8 -8.5l9.5 -9.5l13 -13t16.5 -15.5l37 -39q36 -36 53 -67.5t21 -74.5
q3 -72 -27 -106.5t-105 -52.5zM1415 942l109 21v-89l-109 -24v92zM1241 588l-76 -15v-223l-112 -20v540l112 25l-2 -219l78 16l4 215l111 23v-541l-115 -22v221zM926 743v-438l-113 -20v436l-80 -16v104l273 53v-104zM1415 809l109 18v-405l-109 -23v410zM1905 588l108 22
l-2 -96l-106 -20v94zM1937 262h68v-59h-68v59zM473 156v-121q0 -54 -21.5 -77.5t-82.5 -23.5h-82v318h82q62 0 83 -22t21 -74zM1434 252l-66 -318h-68l-65 318h72l10 -55q7 -44 18 -131q2 29 19 131l10 55h70zM356 201v-215h9q21 0 29 10.5t7 36.5v123q0 25 -7.5 35
t-26.5 10h-11zM602 20h64v-20q0 -35 -19.5 -51.5t-64.5 -16.5q-50 0 -66 19.5t-16 71.5v67q0 55 17 74.5t67 19.5q51 0 66.5 -21t15.5 -77v-43h-99v-35q0 -17 3 -21.5t12 -4.5q20 0 20 22v16zM760 127v-193h-68v248h56l6 -16q34 18 61 18q28 0 37 -18q38 18 63 18
q26 0 36 -13t10 -52v-185h-66v175q0 22 -12 22q-5 0 -21 -4v-193h-65v175q0 22 -15 22q-6 0 -22 -4zM1075 -68q-53 0 -69.5 25.5t-16.5 93.5v19q0 66 17.5 90t68.5 24q53 0 69.5 -24.5t16.5 -89.5v-19q0 -69 -17 -94t-69 -25zM1513 184q53 0 67.5 -20.5t14.5 -77.5v-43h-100
v-35q0 -17 3.5 -21.5t14.5 -4.5q19 0 19 22v16h63v-20q0 -35 -19 -51.5t-65 -16.5q-50 0 -65.5 19.5t-15.5 71.5v67q0 56 16 75t67 19zM1681 182l5 -24q23 26 45 26v-65q-14 0 -41 -10v-175h-66v248h57zM1915 4v-2q0 -34 -22 -52t-62 -18q-42 0 -62 18.5t-20 61.5v8h59v-6
q0 -30 23 -30q20 0 20 18q0 14 -20 23l-37 20q-45 25 -45 68v2q0 69 78 69q84 0 84 -80v-6h-60v2q0 19 -4 26t-16 7q-16 0 -16 -14q0 -20 20 -31l35 -18q45 -22 45 -66zM2120 -68q-55 0 -71.5 25.5t-16.5 93.5v19q0 66 17.5 90t70.5 24t68.5 -24t15.5 -90v-19
q0 -69 -16.5 -94t-67.5 -25zM2300 127v-193h-68v248h58l2 -16q38 18 61 18q25 0 36 -13.5t11 -51.5v-185h-67v175q0 22 -13 22q-4 0 -20 -4zM2005 -66h-68v248h68v-248zM567 115v-29h35v29q0 22 -18 22q-17 0 -17 -22zM1495 86h37v29q0 22 -16 22q-21 0 -21 -22v-29z
M1057 98v-82q0 -17 4 -23.5t14 -6.5q12 0 15.5 6.5t3.5 25.5v80q0 19 -3.5 26t-15.5 7q-10 0 -14 -7t-4 -26zM2099 98v-82q0 -17 4.5 -23.5t16.5 -6.5t15 6t3 26v80q0 20 -3 26.5t-15 6.5t-16.5 -7t-4.5 -26zM1499 -178q16 0 22.5 -9t6.5 -34v-117h-41v111q0 14 -8 14
q-3 0 -7.5 -1t-7.5 -1v-123h-43v209h41v-59q23 10 37 10zM1589 -168h-43v39h43v-39zM2177 -186v57h45v-209h-37l-4 10q-22 -12 -37 -12q-18 0 -25.5 10t-7.5 37v60q0 33 8 44t27 11q11 0 31 -8zM2279 -168h-41v39h41v-39zM893 -158h45v-22h16v-33h-16v-78v-7.5t1 -5t3 -3
t6 -0.5h6v-31h-20q-28 0 -34.5 11t-6.5 46v68h-12v33h12v22zM1348 -158h41v-22h18v-33h-18v-78q0 -16 12 -16h6v-31h-21q-27 0 -32.5 10.5t-5.5 46.5v68h-13v33h13v22zM1913 -158h43v-22h18v-33h-18v-78v-7.5t1 -5t3 -3t6 -0.5h8v-31h-22q-15 0 -22.5 2.5t-11.5 10.5
t-4.5 16t-0.5 28v68h-12v33h12v22zM1167 -178q19 0 26 -10.5t7 -38.5v-56q0 -34 -8 -45.5t-25 -11.5q-19 0 -30 8v-59h-45v211h36l2 -10q22 12 37 12zM1272 -178q33 0 43 -14t10 -52v-26h-63v-23v-7.5t1 -5t3 -3t6 -0.5q10 0 10 12v14h43v-14q0 -23 -12 -33t-41 -10
q-34 0 -44.5 12t-10.5 45v41q0 36 11.5 50t43.5 14zM1661 -242l22 -12q29 -13 29 -43q0 -43 -53 -43q-27 0 -40 11t-13 38v8h36v-4q0 -20 17 -20q12 0 12 10t-12 16l-25 13q-28 12 -28 43q0 47 51 47q53 0 53 -53v-2h-39q0 22 -12 22t-12 -10t14 -21zM1839 -242l23 -12
q28 -12 28 -43q0 -43 -55 -43q-27 0 -38 11t-11 38v8h35v-4q0 -20 14 -20q12 0 12 10t-12 16l-20 13q-31 12 -31 43q0 47 49 47q55 0 55 -53v-2h-37q0 22 -16 22q-12 0 -12 -10t16 -21zM2355 -178q33 0 43 -16t10 -58v-10q0 -45 -10.5 -61.5t-42.5 -16.5q-34 0 -44.5 16.5
t-10.5 59.5v12q0 43 10.5 58.5t44.5 15.5zM395 -180l17 -92l10 92h43l-29 -158h-41l-20 88l-17 -88h-43l-28 158h43l10 -92l18 92h37zM580 -180l16 -92l10 92h43l-31 -158h-40l-21 88l-18 -88h-41l-27 158h43l8 -92l17 92h41zM778 -272l10 92h46l-29 -158h-45l-19 88
l-18 -88h-41l-29 158h43l11 -92l16 92h39zM1024 -244l16 64h41l-59 -211h-39l16 53l-38 158h43l10 -66q4 -15 6 -35q4 36 4 37zM1589 -338h-43v158h43v-158zM2052 -303v123h43v-158h-35l-4 8q-17 -10 -39 -10q-30 0 -30 41v119h43v-113q0 -14 8 -14t14 4zM2279 -338h-41v158
h41v-158zM1262 -244h22v19q0 14 -12 14q-10 0 -10 -14v-19zM2177 -303v88q-1 0 -4 1t-6 1q-10 0 -10 -20v-54q0 -20 10 -20q2 0 10 4zM1157 -287v54q0 12 -2 15t-8 3h-10v-90q1 0 4 -1t6 -1q10 0 10 20zM2365 -285v52v9.5t-1 5t-3 3t-6 0.5q-8 0 -10 -3t-2 -15v-52
q0 -22 12 -22q10 0 10 22zM877 -338h-43v41h43v-41zM1767 -338h-41v41h41v-41z" />
    <glyph glyph-name="logicalnot" unicode="&#xac;" 
d="M1868 1194l141 27v-105l-256 -49v543l256 47v-105l-141 -26v-113l133 27l-2 -94l-131 -25v-127zM1559 1235l-54 -8v-211l-114 -21v543l135 29q87 17 128 -7.5t50 -97.5q8 -99 -24 -154t-121 -73zM924 903l-111 -20v438l-82 -16v102l346 68l88 -224l76 258l123 23
l-137 -397v-172l-115 -21v176l-102 242l-86 -19v-438zM1532 1479l-29 -4v-160l37 6q63 11 49 119q-5 45 -57 39zM1905 637l-9 399l121 25l-8 -406zM1726 453q-62 -11 -99.5 7.5t-45.5 57.5q-3 39 0 84l100 21q0 -42 2 -50q5 -23 39 -20q30 6 27 41q-1 13 -10 28t-17.5 24.5
t-33.5 35.5l-43 39q-40 37 -54.5 70.5t-13.5 82.5q3 109 123 132q58 11 98.5 -4t50.5 -62q4 -40 2 -63l-102 -21q0 32 -8.5 44.5t-30.5 8.5q-25 -5 -22 -35q0 -6 1 -10.5t2 -8.5t4 -8.5t5 -7t8 -8.5l9.5 -9.5l13 -13t16.5 -15.5l37 -39q36 -36 53 -67.5t21 -74.5
q3 -72 -27 -106.5t-105 -52.5zM1415 942l109 21v-89l-109 -24v92zM1241 588l-76 -15v-223l-112 -20v540l112 25l-2 -219l78 16l4 215l111 23v-541l-115 -22v221zM926 743v-438l-113 -20v436l-80 -16v104l273 53v-104zM1415 809l109 18v-405l-109 -23v410zM1905 588l108 22
l-2 -96l-106 -20v94zM1937 262h68v-59h-68v59zM473 156v-121q0 -54 -21.5 -77.5t-82.5 -23.5h-82v318h82q62 0 83 -22t21 -74zM1434 252l-66 -318h-68l-65 318h72l10 -55q7 -44 18 -131q2 29 19 131l10 55h70zM356 201v-215h9q21 0 29 10.5t7 36.5v123q0 25 -7.5 35
t-26.5 10h-11zM602 20h64v-20q0 -35 -19.5 -51.5t-64.5 -16.5q-50 0 -66 19.5t-16 71.5v67q0 55 17 74.5t67 19.5q51 0 66.5 -21t15.5 -77v-43h-99v-35q0 -17 3 -21.5t12 -4.5q20 0 20 22v16zM760 127v-193h-68v248h56l6 -16q34 18 61 18q28 0 37 -18q38 18 63 18
q26 0 36 -13t10 -52v-185h-66v175q0 22 -12 22q-5 0 -21 -4v-193h-65v175q0 22 -15 22q-6 0 -22 -4zM1075 -68q-53 0 -69.5 25.5t-16.5 93.5v19q0 66 17.5 90t68.5 24q53 0 69.5 -24.5t16.5 -89.5v-19q0 -69 -17 -94t-69 -25zM1513 184q53 0 67.5 -20.5t14.5 -77.5v-43h-100
v-35q0 -17 3.5 -21.5t14.5 -4.5q19 0 19 22v16h63v-20q0 -35 -19 -51.5t-65 -16.5q-50 0 -65.5 19.5t-15.5 71.5v67q0 56 16 75t67 19zM1681 182l5 -24q23 26 45 26v-65q-14 0 -41 -10v-175h-66v248h57zM1915 4v-2q0 -34 -22 -52t-62 -18q-42 0 -62 18.5t-20 61.5v8h59v-6
q0 -30 23 -30q20 0 20 18q0 14 -20 23l-37 20q-45 25 -45 68v2q0 69 78 69q84 0 84 -80v-6h-60v2q0 19 -4 26t-16 7q-16 0 -16 -14q0 -20 20 -31l35 -18q45 -22 45 -66zM2120 -68q-55 0 -71.5 25.5t-16.5 93.5v19q0 66 17.5 90t70.5 24t68.5 -24t15.5 -90v-19
q0 -69 -16.5 -94t-67.5 -25zM2300 127v-193h-68v248h58l2 -16q38 18 61 18q25 0 36 -13.5t11 -51.5v-185h-67v175q0 22 -13 22q-4 0 -20 -4zM2005 -66h-68v248h68v-248zM567 115v-29h35v29q0 22 -18 22q-17 0 -17 -22zM1495 86h37v29q0 22 -16 22q-21 0 -21 -22v-29z
M1057 98v-82q0 -17 4 -23.5t14 -6.5q12 0 15.5 6.5t3.5 25.5v80q0 19 -3.5 26t-15.5 7q-10 0 -14 -7t-4 -26zM2099 98v-82q0 -17 4.5 -23.5t16.5 -6.5t15 6t3 26v80q0 20 -3 26.5t-15 6.5t-16.5 -7t-4.5 -26zM1499 -178q16 0 22.5 -9t6.5 -34v-117h-41v111q0 14 -8 14
q-3 0 -7.5 -1t-7.5 -1v-123h-43v209h41v-59q23 10 37 10zM1589 -168h-43v39h43v-39zM2177 -186v57h45v-209h-37l-4 10q-22 -12 -37 -12q-18 0 -25.5 10t-7.5 37v60q0 33 8 44t27 11q11 0 31 -8zM2279 -168h-41v39h41v-39zM893 -158h45v-22h16v-33h-16v-78v-7.5t1 -5t3 -3
t6 -0.5h6v-31h-20q-28 0 -34.5 11t-6.5 46v68h-12v33h12v22zM1348 -158h41v-22h18v-33h-18v-78q0 -16 12 -16h6v-31h-21q-27 0 -32.5 10.5t-5.5 46.5v68h-13v33h13v22zM1913 -158h43v-22h18v-33h-18v-78v-7.5t1 -5t3 -3t6 -0.5h8v-31h-22q-15 0 -22.5 2.5t-11.5 10.5
t-4.5 16t-0.5 28v68h-12v33h12v22zM1167 -178q19 0 26 -10.5t7 -38.5v-56q0 -34 -8 -45.5t-25 -11.5q-19 0 -30 8v-59h-45v211h36l2 -10q22 12 37 12zM1272 -178q33 0 43 -14t10 -52v-26h-63v-23v-7.5t1 -5t3 -3t6 -0.5q10 0 10 12v14h43v-14q0 -23 -12 -33t-41 -10
q-34 0 -44.5 12t-10.5 45v41q0 36 11.5 50t43.5 14zM1661 -242l22 -12q29 -13 29 -43q0 -43 -53 -43q-27 0 -40 11t-13 38v8h36v-4q0 -20 17 -20q12 0 12 10t-12 16l-25 13q-28 12 -28 43q0 47 51 47q53 0 53 -53v-2h-39q0 22 -12 22t-12 -10t14 -21zM1839 -242l23 -12
q28 -12 28 -43q0 -43 -55 -43q-27 0 -38 11t-11 38v8h35v-4q0 -20 14 -20q12 0 12 10t-12 16l-20 13q-31 12 -31 43q0 47 49 47q55 0 55 -53v-2h-37q0 22 -16 22q-12 0 -12 -10t16 -21zM2355 -178q33 0 43 -16t10 -58v-10q0 -45 -10.5 -61.5t-42.5 -16.5q-34 0 -44.5 16.5
t-10.5 59.5v12q0 43 10.5 58.5t44.5 15.5zM395 -180l17 -92l10 92h43l-29 -158h-41l-20 88l-17 -88h-43l-28 158h43l10 -92l18 92h37zM580 -180l16 -92l10 92h43l-31 -158h-40l-21 88l-18 -88h-41l-27 158h43l8 -92l17 92h41zM778 -272l10 92h46l-29 -158h-45l-19 88
l-18 -88h-41l-29 158h43l11 -92l16 92h39zM1024 -244l16 64h41l-59 -211h-39l16 53l-38 158h43l10 -66q4 -15 6 -35q4 36 4 37zM1589 -338h-43v158h43v-158zM2052 -303v123h43v-158h-35l-4 8q-17 -10 -39 -10q-30 0 -30 41v119h43v-113q0 -14 8 -14t14 4zM2279 -338h-41v158
h41v-158zM1262 -244h22v19q0 14 -12 14q-10 0 -10 -14v-19zM2177 -303v88q-1 0 -4 1t-6 1q-10 0 -10 -20v-54q0 -20 10 -20q2 0 10 4zM1157 -287v54q0 12 -2 15t-8 3h-10v-90q1 0 4 -1t6 -1q10 0 10 20zM2365 -285v52v9.5t-1 5t-3 3t-6 0.5q-8 0 -10 -3t-2 -15v-52
q0 -22 12 -22q10 0 10 22zM877 -338h-43v41h43v-41zM1767 -338h-41v41h41v-41z" />
    <glyph glyph-name="registered" unicode="&#xae;" 
d="M1868 1194l141 27v-105l-256 -49v543l256 47v-105l-141 -26v-113l133 27l-2 -94l-131 -25v-127zM1559 1235l-54 -8v-211l-114 -21v543l135 29q87 17 128 -7.5t50 -97.5q8 -99 -24 -154t-121 -73zM924 903l-111 -20v438l-82 -16v102l346 68l88 -224l76 258l123 23
l-137 -397v-172l-115 -21v176l-102 242l-86 -19v-438zM1532 1479l-29 -4v-160l37 6q63 11 49 119q-5 45 -57 39zM1905 637l-9 399l121 25l-8 -406zM1726 453q-62 -11 -99.5 7.5t-45.5 57.5q-3 39 0 84l100 21q0 -42 2 -50q5 -23 39 -20q30 6 27 41q-1 13 -10 28t-17.5 24.5
t-33.5 35.5l-43 39q-40 37 -54.5 70.5t-13.5 82.5q3 109 123 132q58 11 98.5 -4t50.5 -62q4 -40 2 -63l-102 -21q0 32 -8.5 44.5t-30.5 8.5q-25 -5 -22 -35q0 -6 1 -10.5t2 -8.5t4 -8.5t5 -7t8 -8.5l9.5 -9.5l13 -13t16.5 -15.5l37 -39q36 -36 53 -67.5t21 -74.5
q3 -72 -27 -106.5t-105 -52.5zM1415 942l109 21v-89l-109 -24v92zM1241 588l-76 -15v-223l-112 -20v540l112 25l-2 -219l78 16l4 215l111 23v-541l-115 -22v221zM926 743v-438l-113 -20v436l-80 -16v104l273 53v-104zM1415 809l109 18v-405l-109 -23v410zM1905 588l108 22
l-2 -96l-106 -20v94zM1937 262h68v-59h-68v59zM473 156v-121q0 -54 -21.5 -77.5t-82.5 -23.5h-82v318h82q62 0 83 -22t21 -74zM1434 252l-66 -318h-68l-65 318h72l10 -55q7 -44 18 -131q2 29 19 131l10 55h70zM356 201v-215h9q21 0 29 10.5t7 36.5v123q0 25 -7.5 35
t-26.5 10h-11zM602 20h64v-20q0 -35 -19.5 -51.5t-64.5 -16.5q-50 0 -66 19.5t-16 71.5v67q0 55 17 74.5t67 19.5q51 0 66.5 -21t15.5 -77v-43h-99v-35q0 -17 3 -21.5t12 -4.5q20 0 20 22v16zM760 127v-193h-68v248h56l6 -16q34 18 61 18q28 0 37 -18q38 18 63 18
q26 0 36 -13t10 -52v-185h-66v175q0 22 -12 22q-5 0 -21 -4v-193h-65v175q0 22 -15 22q-6 0 -22 -4zM1075 -68q-53 0 -69.5 25.5t-16.5 93.5v19q0 66 17.5 90t68.5 24q53 0 69.5 -24.5t16.5 -89.5v-19q0 -69 -17 -94t-69 -25zM1513 184q53 0 67.5 -20.5t14.5 -77.5v-43h-100
v-35q0 -17 3.5 -21.5t14.5 -4.5q19 0 19 22v16h63v-20q0 -35 -19 -51.5t-65 -16.5q-50 0 -65.5 19.5t-15.5 71.5v67q0 56 16 75t67 19zM1681 182l5 -24q23 26 45 26v-65q-14 0 -41 -10v-175h-66v248h57zM1915 4v-2q0 -34 -22 -52t-62 -18q-42 0 -62 18.5t-20 61.5v8h59v-6
q0 -30 23 -30q20 0 20 18q0 14 -20 23l-37 20q-45 25 -45 68v2q0 69 78 69q84 0 84 -80v-6h-60v2q0 19 -4 26t-16 7q-16 0 -16 -14q0 -20 20 -31l35 -18q45 -22 45 -66zM2120 -68q-55 0 -71.5 25.5t-16.5 93.5v19q0 66 17.5 90t70.5 24t68.5 -24t15.5 -90v-19
q0 -69 -16.5 -94t-67.5 -25zM2300 127v-193h-68v248h58l2 -16q38 18 61 18q25 0 36 -13.5t11 -51.5v-185h-67v175q0 22 -13 22q-4 0 -20 -4zM2005 -66h-68v248h68v-248zM567 115v-29h35v29q0 22 -18 22q-17 0 -17 -22zM1495 86h37v29q0 22 -16 22q-21 0 -21 -22v-29z
M1057 98v-82q0 -17 4 -23.5t14 -6.5q12 0 15.5 6.5t3.5 25.5v80q0 19 -3.5 26t-15.5 7q-10 0 -14 -7t-4 -26zM2099 98v-82q0 -17 4.5 -23.5t16.5 -6.5t15 6t3 26v80q0 20 -3 26.5t-15 6.5t-16.5 -7t-4.5 -26zM1499 -178q16 0 22.5 -9t6.5 -34v-117h-41v111q0 14 -8 14
q-3 0 -7.5 -1t-7.5 -1v-123h-43v209h41v-59q23 10 37 10zM1589 -168h-43v39h43v-39zM2177 -186v57h45v-209h-37l-4 10q-22 -12 -37 -12q-18 0 -25.5 10t-7.5 37v60q0 33 8 44t27 11q11 0 31 -8zM2279 -168h-41v39h41v-39zM893 -158h45v-22h16v-33h-16v-78v-7.5t1 -5t3 -3
t6 -0.5h6v-31h-20q-28 0 -34.5 11t-6.5 46v68h-12v33h12v22zM1348 -158h41v-22h18v-33h-18v-78q0 -16 12 -16h6v-31h-21q-27 0 -32.5 10.5t-5.5 46.5v68h-13v33h13v22zM1913 -158h43v-22h18v-33h-18v-78v-7.5t1 -5t3 -3t6 -0.5h8v-31h-22q-15 0 -22.5 2.5t-11.5 10.5
t-4.5 16t-0.5 28v68h-12v33h12v22zM1167 -178q19 0 26 -10.5t7 -38.5v-56q0 -34 -8 -45.5t-25 -11.5q-19 0 -30 8v-59h-45v211h36l2 -10q22 12 37 12zM1272 -178q33 0 43 -14t10 -52v-26h-63v-23v-7.5t1 -5t3 -3t6 -0.5q10 0 10 12v14h43v-14q0 -23 -12 -33t-41 -10
q-34 0 -44.5 12t-10.5 45v41q0 36 11.5 50t43.5 14zM1661 -242l22 -12q29 -13 29 -43q0 -43 -53 -43q-27 0 -40 11t-13 38v8h36v-4q0 -20 17 -20q12 0 12 10t-12 16l-25 13q-28 12 -28 43q0 47 51 47q53 0 53 -53v-2h-39q0 22 -12 22t-12 -10t14 -21zM1839 -242l23 -12
q28 -12 28 -43q0 -43 -55 -43q-27 0 -38 11t-11 38v8h35v-4q0 -20 14 -20q12 0 12 10t-12 16l-20 13q-31 12 -31 43q0 47 49 47q55 0 55 -53v-2h-37q0 22 -16 22q-12 0 -12 -10t16 -21zM2355 -178q33 0 43 -16t10 -58v-10q0 -45 -10.5 -61.5t-42.5 -16.5q-34 0 -44.5 16.5
t-10.5 59.5v12q0 43 10.5 58.5t44.5 15.5zM395 -180l17 -92l10 92h43l-29 -158h-41l-20 88l-17 -88h-43l-28 158h43l10 -92l18 92h37zM580 -180l16 -92l10 92h43l-31 -158h-40l-21 88l-18 -88h-41l-27 158h43l8 -92l17 92h41zM778 -272l10 92h46l-29 -158h-45l-19 88
l-18 -88h-41l-29 158h43l11 -92l16 92h39zM1024 -244l16 64h41l-59 -211h-39l16 53l-38 158h43l10 -66q4 -15 6 -35q4 36 4 37zM1589 -338h-43v158h43v-158zM2052 -303v123h43v-158h-35l-4 8q-17 -10 -39 -10q-30 0 -30 41v119h43v-113q0 -14 8 -14t14 4zM2279 -338h-41v158
h41v-158zM1262 -244h22v19q0 14 -12 14q-10 0 -10 -14v-19zM2177 -303v88q-1 0 -4 1t-6 1q-10 0 -10 -20v-54q0 -20 10 -20q2 0 10 4zM1157 -287v54q0 12 -2 15t-8 3h-10v-90q1 0 4 -1t6 -1q10 0 10 20zM2365 -285v52v9.5t-1 5t-3 3t-6 0.5q-8 0 -10 -3t-2 -15v-52
q0 -22 12 -22q10 0 10 22zM877 -338h-43v41h43v-41zM1767 -338h-41v41h41v-41z" />
    <glyph glyph-name="plusminus" unicode="&#xb1;" 
d="M1868 1194l141 27v-105l-256 -49v543l256 47v-105l-141 -26v-113l133 27l-2 -94l-131 -25v-127zM1559 1235l-54 -8v-211l-114 -21v543l135 29q87 17 128 -7.5t50 -97.5q8 -99 -24 -154t-121 -73zM924 903l-111 -20v438l-82 -16v102l346 68l88 -224l76 258l123 23
l-137 -397v-172l-115 -21v176l-102 242l-86 -19v-438zM1532 1479l-29 -4v-160l37 6q63 11 49 119q-5 45 -57 39zM1905 637l-9 399l121 25l-8 -406zM1726 453q-62 -11 -99.5 7.5t-45.5 57.5q-3 39 0 84l100 21q0 -42 2 -50q5 -23 39 -20q30 6 27 41q-1 13 -10 28t-17.5 24.5
t-33.5 35.5l-43 39q-40 37 -54.5 70.5t-13.5 82.5q3 109 123 132q58 11 98.5 -4t50.5 -62q4 -40 2 -63l-102 -21q0 32 -8.5 44.5t-30.5 8.5q-25 -5 -22 -35q0 -6 1 -10.5t2 -8.5t4 -8.5t5 -7t8 -8.5l9.5 -9.5l13 -13t16.5 -15.5l37 -39q36 -36 53 -67.5t21 -74.5
q3 -72 -27 -106.5t-105 -52.5zM1415 942l109 21v-89l-109 -24v92zM1241 588l-76 -15v-223l-112 -20v540l112 25l-2 -219l78 16l4 215l111 23v-541l-115 -22v221zM926 743v-438l-113 -20v436l-80 -16v104l273 53v-104zM1415 809l109 18v-405l-109 -23v410zM1905 588l108 22
l-2 -96l-106 -20v94zM1937 262h68v-59h-68v59zM473 156v-121q0 -54 -21.5 -77.5t-82.5 -23.5h-82v318h82q62 0 83 -22t21 -74zM1434 252l-66 -318h-68l-65 318h72l10 -55q7 -44 18 -131q2 29 19 131l10 55h70zM356 201v-215h9q21 0 29 10.5t7 36.5v123q0 25 -7.5 35
t-26.5 10h-11zM602 20h64v-20q0 -35 -19.5 -51.5t-64.5 -16.5q-50 0 -66 19.5t-16 71.5v67q0 55 17 74.5t67 19.5q51 0 66.5 -21t15.5 -77v-43h-99v-35q0 -17 3 -21.5t12 -4.5q20 0 20 22v16zM760 127v-193h-68v248h56l6 -16q34 18 61 18q28 0 37 -18q38 18 63 18
q26 0 36 -13t10 -52v-185h-66v175q0 22 -12 22q-5 0 -21 -4v-193h-65v175q0 22 -15 22q-6 0 -22 -4zM1075 -68q-53 0 -69.5 25.5t-16.5 93.5v19q0 66 17.5 90t68.5 24q53 0 69.5 -24.5t16.5 -89.5v-19q0 -69 -17 -94t-69 -25zM1513 184q53 0 67.5 -20.5t14.5 -77.5v-43h-100
v-35q0 -17 3.5 -21.5t14.5 -4.5q19 0 19 22v16h63v-20q0 -35 -19 -51.5t-65 -16.5q-50 0 -65.5 19.5t-15.5 71.5v67q0 56 16 75t67 19zM1681 182l5 -24q23 26 45 26v-65q-14 0 -41 -10v-175h-66v248h57zM1915 4v-2q0 -34 -22 -52t-62 -18q-42 0 -62 18.5t-20 61.5v8h59v-6
q0 -30 23 -30q20 0 20 18q0 14 -20 23l-37 20q-45 25 -45 68v2q0 69 78 69q84 0 84 -80v-6h-60v2q0 19 -4 26t-16 7q-16 0 -16 -14q0 -20 20 -31l35 -18q45 -22 45 -66zM2120 -68q-55 0 -71.5 25.5t-16.5 93.5v19q0 66 17.5 90t70.5 24t68.5 -24t15.5 -90v-19
q0 -69 -16.5 -94t-67.5 -25zM2300 127v-193h-68v248h58l2 -16q38 18 61 18q25 0 36 -13.5t11 -51.5v-185h-67v175q0 22 -13 22q-4 0 -20 -4zM2005 -66h-68v248h68v-248zM567 115v-29h35v29q0 22 -18 22q-17 0 -17 -22zM1495 86h37v29q0 22 -16 22q-21 0 -21 -22v-29z
M1057 98v-82q0 -17 4 -23.5t14 -6.5q12 0 15.5 6.5t3.5 25.5v80q0 19 -3.5 26t-15.5 7q-10 0 -14 -7t-4 -26zM2099 98v-82q0 -17 4.5 -23.5t16.5 -6.5t15 6t3 26v80q0 20 -3 26.5t-15 6.5t-16.5 -7t-4.5 -26zM1499 -178q16 0 22.5 -9t6.5 -34v-117h-41v111q0 14 -8 14
q-3 0 -7.5 -1t-7.5 -1v-123h-43v209h41v-59q23 10 37 10zM1589 -168h-43v39h43v-39zM2177 -186v57h45v-209h-37l-4 10q-22 -12 -37 -12q-18 0 -25.5 10t-7.5 37v60q0 33 8 44t27 11q11 0 31 -8zM2279 -168h-41v39h41v-39zM893 -158h45v-22h16v-33h-16v-78v-7.5t1 -5t3 -3
t6 -0.5h6v-31h-20q-28 0 -34.5 11t-6.5 46v68h-12v33h12v22zM1348 -158h41v-22h18v-33h-18v-78q0 -16 12 -16h6v-31h-21q-27 0 -32.5 10.5t-5.5 46.5v68h-13v33h13v22zM1913 -158h43v-22h18v-33h-18v-78v-7.5t1 -5t3 -3t6 -0.5h8v-31h-22q-15 0 -22.5 2.5t-11.5 10.5
t-4.5 16t-0.5 28v68h-12v33h12v22zM1167 -178q19 0 26 -10.5t7 -38.5v-56q0 -34 -8 -45.5t-25 -11.5q-19 0 -30 8v-59h-45v211h36l2 -10q22 12 37 12zM1272 -178q33 0 43 -14t10 -52v-26h-63v-23v-7.5t1 -5t3 -3t6 -0.5q10 0 10 12v14h43v-14q0 -23 -12 -33t-41 -10
q-34 0 -44.5 12t-10.5 45v41q0 36 11.5 50t43.5 14zM1661 -242l22 -12q29 -13 29 -43q0 -43 -53 -43q-27 0 -40 11t-13 38v8h36v-4q0 -20 17 -20q12 0 12 10t-12 16l-25 13q-28 12 -28 43q0 47 51 47q53 0 53 -53v-2h-39q0 22 -12 22t-12 -10t14 -21zM1839 -242l23 -12
q28 -12 28 -43q0 -43 -55 -43q-27 0 -38 11t-11 38v8h35v-4q0 -20 14 -20q12 0 12 10t-12 16l-20 13q-31 12 -31 43q0 47 49 47q55 0 55 -53v-2h-37q0 22 -16 22q-12 0 -12 -10t16 -21zM2355 -178q33 0 43 -16t10 -58v-10q0 -45 -10.5 -61.5t-42.5 -16.5q-34 0 -44.5 16.5
t-10.5 59.5v12q0 43 10.5 58.5t44.5 15.5zM395 -180l17 -92l10 92h43l-29 -158h-41l-20 88l-17 -88h-43l-28 158h43l10 -92l18 92h37zM580 -180l16 -92l10 92h43l-31 -158h-40l-21 88l-18 -88h-41l-27 158h43l8 -92l17 92h41zM778 -272l10 92h46l-29 -158h-45l-19 88
l-18 -88h-41l-29 158h43l11 -92l16 92h39zM1024 -244l16 64h41l-59 -211h-39l16 53l-38 158h43l10 -66q4 -15 6 -35q4 36 4 37zM1589 -338h-43v158h43v-158zM2052 -303v123h43v-158h-35l-4 8q-17 -10 -39 -10q-30 0 -30 41v119h43v-113q0 -14 8 -14t14 4zM2279 -338h-41v158
h41v-158zM1262 -244h22v19q0 14 -12 14q-10 0 -10 -14v-19zM2177 -303v88q-1 0 -4 1t-6 1q-10 0 -10 -20v-54q0 -20 10 -20q2 0 10 4zM1157 -287v54q0 12 -2 15t-8 3h-10v-90q1 0 4 -1t6 -1q10 0 10 20zM2365 -285v52v9.5t-1 5t-3 3t-6 0.5q-8 0 -10 -3t-2 -15v-52
q0 -22 12 -22q10 0 10 22zM877 -338h-43v41h43v-41zM1767 -338h-41v41h41v-41z" />
    <glyph glyph-name="uni00B5" unicode="&#xb5;" 
d="M1868 1194l141 27v-105l-256 -49v543l256 47v-105l-141 -26v-113l133 27l-2 -94l-131 -25v-127zM1559 1235l-54 -8v-211l-114 -21v543l135 29q87 17 128 -7.5t50 -97.5q8 -99 -24 -154t-121 -73zM924 903l-111 -20v438l-82 -16v102l346 68l88 -224l76 258l123 23
l-137 -397v-172l-115 -21v176l-102 242l-86 -19v-438zM1532 1479l-29 -4v-160l37 6q63 11 49 119q-5 45 -57 39zM1905 637l-9 399l121 25l-8 -406zM1726 453q-62 -11 -99.5 7.5t-45.5 57.5q-3 39 0 84l100 21q0 -42 2 -50q5 -23 39 -20q30 6 27 41q-1 13 -10 28t-17.5 24.5
t-33.5 35.5l-43 39q-40 37 -54.5 70.5t-13.5 82.5q3 109 123 132q58 11 98.5 -4t50.5 -62q4 -40 2 -63l-102 -21q0 32 -8.5 44.5t-30.5 8.5q-25 -5 -22 -35q0 -6 1 -10.5t2 -8.5t4 -8.5t5 -7t8 -8.5l9.5 -9.5l13 -13t16.5 -15.5l37 -39q36 -36 53 -67.5t21 -74.5
q3 -72 -27 -106.5t-105 -52.5zM1415 942l109 21v-89l-109 -24v92zM1241 588l-76 -15v-223l-112 -20v540l112 25l-2 -219l78 16l4 215l111 23v-541l-115 -22v221zM926 743v-438l-113 -20v436l-80 -16v104l273 53v-104zM1415 809l109 18v-405l-109 -23v410zM1905 588l108 22
l-2 -96l-106 -20v94zM1937 262h68v-59h-68v59zM473 156v-121q0 -54 -21.5 -77.5t-82.5 -23.5h-82v318h82q62 0 83 -22t21 -74zM1434 252l-66 -318h-68l-65 318h72l10 -55q7 -44 18 -131q2 29 19 131l10 55h70zM356 201v-215h9q21 0 29 10.5t7 36.5v123q0 25 -7.5 35
t-26.5 10h-11zM602 20h64v-20q0 -35 -19.5 -51.5t-64.5 -16.5q-50 0 -66 19.5t-16 71.5v67q0 55 17 74.5t67 19.5q51 0 66.5 -21t15.5 -77v-43h-99v-35q0 -17 3 -21.5t12 -4.5q20 0 20 22v16zM760 127v-193h-68v248h56l6 -16q34 18 61 18q28 0 37 -18q38 18 63 18
q26 0 36 -13t10 -52v-185h-66v175q0 22 -12 22q-5 0 -21 -4v-193h-65v175q0 22 -15 22q-6 0 -22 -4zM1075 -68q-53 0 -69.5 25.5t-16.5 93.5v19q0 66 17.5 90t68.5 24q53 0 69.5 -24.5t16.5 -89.5v-19q0 -69 -17 -94t-69 -25zM1513 184q53 0 67.5 -20.5t14.5 -77.5v-43h-100
v-35q0 -17 3.5 -21.5t14.5 -4.5q19 0 19 22v16h63v-20q0 -35 -19 -51.5t-65 -16.5q-50 0 -65.5 19.5t-15.5 71.5v67q0 56 16 75t67 19zM1681 182l5 -24q23 26 45 26v-65q-14 0 -41 -10v-175h-66v248h57zM1915 4v-2q0 -34 -22 -52t-62 -18q-42 0 -62 18.5t-20 61.5v8h59v-6
q0 -30 23 -30q20 0 20 18q0 14 -20 23l-37 20q-45 25 -45 68v2q0 69 78 69q84 0 84 -80v-6h-60v2q0 19 -4 26t-16 7q-16 0 -16 -14q0 -20 20 -31l35 -18q45 -22 45 -66zM2120 -68q-55 0 -71.5 25.5t-16.5 93.5v19q0 66 17.5 90t70.5 24t68.5 -24t15.5 -90v-19
q0 -69 -16.5 -94t-67.5 -25zM2300 127v-193h-68v248h58l2 -16q38 18 61 18q25 0 36 -13.5t11 -51.5v-185h-67v175q0 22 -13 22q-4 0 -20 -4zM2005 -66h-68v248h68v-248zM567 115v-29h35v29q0 22 -18 22q-17 0 -17 -22zM1495 86h37v29q0 22 -16 22q-21 0 -21 -22v-29z
M1057 98v-82q0 -17 4 -23.5t14 -6.5q12 0 15.5 6.5t3.5 25.5v80q0 19 -3.5 26t-15.5 7q-10 0 -14 -7t-4 -26zM2099 98v-82q0 -17 4.5 -23.5t16.5 -6.5t15 6t3 26v80q0 20 -3 26.5t-15 6.5t-16.5 -7t-4.5 -26zM1499 -178q16 0 22.5 -9t6.5 -34v-117h-41v111q0 14 -8 14
q-3 0 -7.5 -1t-7.5 -1v-123h-43v209h41v-59q23 10 37 10zM1589 -168h-43v39h43v-39zM2177 -186v57h45v-209h-37l-4 10q-22 -12 -37 -12q-18 0 -25.5 10t-7.5 37v60q0 33 8 44t27 11q11 0 31 -8zM2279 -168h-41v39h41v-39zM893 -158h45v-22h16v-33h-16v-78v-7.5t1 -5t3 -3
t6 -0.5h6v-31h-20q-28 0 -34.5 11t-6.5 46v68h-12v33h12v22zM1348 -158h41v-22h18v-33h-18v-78q0 -16 12 -16h6v-31h-21q-27 0 -32.5 10.5t-5.5 46.5v68h-13v33h13v22zM1913 -158h43v-22h18v-33h-18v-78v-7.5t1 -5t3 -3t6 -0.5h8v-31h-22q-15 0 -22.5 2.5t-11.5 10.5
t-4.5 16t-0.5 28v68h-12v33h12v22zM1167 -178q19 0 26 -10.5t7 -38.5v-56q0 -34 -8 -45.5t-25 -11.5q-19 0 -30 8v-59h-45v211h36l2 -10q22 12 37 12zM1272 -178q33 0 43 -14t10 -52v-26h-63v-23v-7.5t1 -5t3 -3t6 -0.5q10 0 10 12v14h43v-14q0 -23 -12 -33t-41 -10
q-34 0 -44.5 12t-10.5 45v41q0 36 11.5 50t43.5 14zM1661 -242l22 -12q29 -13 29 -43q0 -43 -53 -43q-27 0 -40 11t-13 38v8h36v-4q0 -20 17 -20q12 0 12 10t-12 16l-25 13q-28 12 -28 43q0 47 51 47q53 0 53 -53v-2h-39q0 22 -12 22t-12 -10t14 -21zM1839 -242l23 -12
q28 -12 28 -43q0 -43 -55 -43q-27 0 -38 11t-11 38v8h35v-4q0 -20 14 -20q12 0 12 10t-12 16l-20 13q-31 12 -31 43q0 47 49 47q55 0 55 -53v-2h-37q0 22 -16 22q-12 0 -12 -10t16 -21zM2355 -178q33 0 43 -16t10 -58v-10q0 -45 -10.5 -61.5t-42.5 -16.5q-34 0 -44.5 16.5
t-10.5 59.5v12q0 43 10.5 58.5t44.5 15.5zM395 -180l17 -92l10 92h43l-29 -158h-41l-20 88l-17 -88h-43l-28 158h43l10 -92l18 92h37zM580 -180l16 -92l10 92h43l-31 -158h-40l-21 88l-18 -88h-41l-27 158h43l8 -92l17 92h41zM778 -272l10 92h46l-29 -158h-45l-19 88
l-18 -88h-41l-29 158h43l11 -92l16 92h39zM1024 -244l16 64h41l-59 -211h-39l16 53l-38 158h43l10 -66q4 -15 6 -35q4 36 4 37zM1589 -338h-43v158h43v-158zM2052 -303v123h43v-158h-35l-4 8q-17 -10 -39 -10q-30 0 -30 41v119h43v-113q0 -14 8 -14t14 4zM2279 -338h-41v158
h41v-158zM1262 -244h22v19q0 14 -12 14q-10 0 -10 -14v-19zM2177 -303v88q-1 0 -4 1t-6 1q-10 0 -10 -20v-54q0 -20 10 -20q2 0 10 4zM1157 -287v54q0 12 -2 15t-8 3h-10v-90q1 0 4 -1t6 -1q10 0 10 20zM2365 -285v52v9.5t-1 5t-3 3t-6 0.5q-8 0 -10 -3t-2 -15v-52
q0 -22 12 -22q10 0 10 22zM877 -338h-43v41h43v-41zM1767 -338h-41v41h41v-41z" />
    <glyph glyph-name="paragraph" unicode="&#xb6;" 
d="M1868 1194l141 27v-105l-256 -49v543l256 47v-105l-141 -26v-113l133 27l-2 -94l-131 -25v-127zM1559 1235l-54 -8v-211l-114 -21v543l135 29q87 17 128 -7.5t50 -97.5q8 -99 -24 -154t-121 -73zM924 903l-111 -20v438l-82 -16v102l346 68l88 -224l76 258l123 23
l-137 -397v-172l-115 -21v176l-102 242l-86 -19v-438zM1532 1479l-29 -4v-160l37 6q63 11 49 119q-5 45 -57 39zM1905 637l-9 399l121 25l-8 -406zM1726 453q-62 -11 -99.5 7.5t-45.5 57.5q-3 39 0 84l100 21q0 -42 2 -50q5 -23 39 -20q30 6 27 41q-1 13 -10 28t-17.5 24.5
t-33.5 35.5l-43 39q-40 37 -54.5 70.5t-13.5 82.5q3 109 123 132q58 11 98.5 -4t50.5 -62q4 -40 2 -63l-102 -21q0 32 -8.5 44.5t-30.5 8.5q-25 -5 -22 -35q0 -6 1 -10.5t2 -8.5t4 -8.5t5 -7t8 -8.5l9.5 -9.5l13 -13t16.5 -15.5l37 -39q36 -36 53 -67.5t21 -74.5
q3 -72 -27 -106.5t-105 -52.5zM1415 942l109 21v-89l-109 -24v92zM1241 588l-76 -15v-223l-112 -20v540l112 25l-2 -219l78 16l4 215l111 23v-541l-115 -22v221zM926 743v-438l-113 -20v436l-80 -16v104l273 53v-104zM1415 809l109 18v-405l-109 -23v410zM1905 588l108 22
l-2 -96l-106 -20v94zM1937 262h68v-59h-68v59zM473 156v-121q0 -54 -21.5 -77.5t-82.5 -23.5h-82v318h82q62 0 83 -22t21 -74zM1434 252l-66 -318h-68l-65 318h72l10 -55q7 -44 18 -131q2 29 19 131l10 55h70zM356 201v-215h9q21 0 29 10.5t7 36.5v123q0 25 -7.5 35
t-26.5 10h-11zM602 20h64v-20q0 -35 -19.5 -51.5t-64.5 -16.5q-50 0 -66 19.5t-16 71.5v67q0 55 17 74.5t67 19.5q51 0 66.5 -21t15.5 -77v-43h-99v-35q0 -17 3 -21.5t12 -4.5q20 0 20 22v16zM760 127v-193h-68v248h56l6 -16q34 18 61 18q28 0 37 -18q38 18 63 18
q26 0 36 -13t10 -52v-185h-66v175q0 22 -12 22q-5 0 -21 -4v-193h-65v175q0 22 -15 22q-6 0 -22 -4zM1075 -68q-53 0 -69.5 25.5t-16.5 93.5v19q0 66 17.5 90t68.5 24q53 0 69.5 -24.5t16.5 -89.5v-19q0 -69 -17 -94t-69 -25zM1513 184q53 0 67.5 -20.5t14.5 -77.5v-43h-100
v-35q0 -17 3.5 -21.5t14.5 -4.5q19 0 19 22v16h63v-20q0 -35 -19 -51.5t-65 -16.5q-50 0 -65.5 19.5t-15.5 71.5v67q0 56 16 75t67 19zM1681 182l5 -24q23 26 45 26v-65q-14 0 -41 -10v-175h-66v248h57zM1915 4v-2q0 -34 -22 -52t-62 -18q-42 0 -62 18.5t-20 61.5v8h59v-6
q0 -30 23 -30q20 0 20 18q0 14 -20 23l-37 20q-45 25 -45 68v2q0 69 78 69q84 0 84 -80v-6h-60v2q0 19 -4 26t-16 7q-16 0 -16 -14q0 -20 20 -31l35 -18q45 -22 45 -66zM2120 -68q-55 0 -71.5 25.5t-16.5 93.5v19q0 66 17.5 90t70.5 24t68.5 -24t15.5 -90v-19
q0 -69 -16.5 -94t-67.5 -25zM2300 127v-193h-68v248h58l2 -16q38 18 61 18q25 0 36 -13.5t11 -51.5v-185h-67v175q0 22 -13 22q-4 0 -20 -4zM2005 -66h-68v248h68v-248zM567 115v-29h35v29q0 22 -18 22q-17 0 -17 -22zM1495 86h37v29q0 22 -16 22q-21 0 -21 -22v-29z
M1057 98v-82q0 -17 4 -23.5t14 -6.5q12 0 15.5 6.5t3.5 25.5v80q0 19 -3.5 26t-15.5 7q-10 0 -14 -7t-4 -26zM2099 98v-82q0 -17 4.5 -23.5t16.5 -6.5t15 6t3 26v80q0 20 -3 26.5t-15 6.5t-16.5 -7t-4.5 -26zM1499 -178q16 0 22.5 -9t6.5 -34v-117h-41v111q0 14 -8 14
q-3 0 -7.5 -1t-7.5 -1v-123h-43v209h41v-59q23 10 37 10zM1589 -168h-43v39h43v-39zM2177 -186v57h45v-209h-37l-4 10q-22 -12 -37 -12q-18 0 -25.5 10t-7.5 37v60q0 33 8 44t27 11q11 0 31 -8zM2279 -168h-41v39h41v-39zM893 -158h45v-22h16v-33h-16v-78v-7.5t1 -5t3 -3
t6 -0.5h6v-31h-20q-28 0 -34.5 11t-6.5 46v68h-12v33h12v22zM1348 -158h41v-22h18v-33h-18v-78q0 -16 12 -16h6v-31h-21q-27 0 -32.5 10.5t-5.5 46.5v68h-13v33h13v22zM1913 -158h43v-22h18v-33h-18v-78v-7.5t1 -5t3 -3t6 -0.5h8v-31h-22q-15 0 -22.5 2.5t-11.5 10.5
t-4.5 16t-0.5 28v68h-12v33h12v22zM1167 -178q19 0 26 -10.5t7 -38.5v-56q0 -34 -8 -45.5t-25 -11.5q-19 0 -30 8v-59h-45v211h36l2 -10q22 12 37 12zM1272 -178q33 0 43 -14t10 -52v-26h-63v-23v-7.5t1 -5t3 -3t6 -0.5q10 0 10 12v14h43v-14q0 -23 -12 -33t-41 -10
q-34 0 -44.5 12t-10.5 45v41q0 36 11.5 50t43.5 14zM1661 -242l22 -12q29 -13 29 -43q0 -43 -53 -43q-27 0 -40 11t-13 38v8h36v-4q0 -20 17 -20q12 0 12 10t-12 16l-25 13q-28 12 -28 43q0 47 51 47q53 0 53 -53v-2h-39q0 22 -12 22t-12 -10t14 -21zM1839 -242l23 -12
q28 -12 28 -43q0 -43 -55 -43q-27 0 -38 11t-11 38v8h35v-4q0 -20 14 -20q12 0 12 10t-12 16l-20 13q-31 12 -31 43q0 47 49 47q55 0 55 -53v-2h-37q0 22 -16 22q-12 0 -12 -10t16 -21zM2355 -178q33 0 43 -16t10 -58v-10q0 -45 -10.5 -61.5t-42.5 -16.5q-34 0 -44.5 16.5
t-10.5 59.5v12q0 43 10.5 58.5t44.5 15.5zM395 -180l17 -92l10 92h43l-29 -158h-41l-20 88l-17 -88h-43l-28 158h43l10 -92l18 92h37zM580 -180l16 -92l10 92h43l-31 -158h-40l-21 88l-18 -88h-41l-27 158h43l8 -92l17 92h41zM778 -272l10 92h46l-29 -158h-45l-19 88
l-18 -88h-41l-29 158h43l11 -92l16 92h39zM1024 -244l16 64h41l-59 -211h-39l16 53l-38 158h43l10 -66q4 -15 6 -35q4 36 4 37zM1589 -338h-43v158h43v-158zM2052 -303v123h43v-158h-35l-4 8q-17 -10 -39 -10q-30 0 -30 41v119h43v-113q0 -14 8 -14t14 4zM2279 -338h-41v158
h41v-158zM1262 -244h22v19q0 14 -12 14q-10 0 -10 -14v-19zM2177 -303v88q-1 0 -4 1t-6 1q-10 0 -10 -20v-54q0 -20 10 -20q2 0 10 4zM1157 -287v54q0 12 -2 15t-8 3h-10v-90q1 0 4 -1t6 -1q10 0 10 20zM2365 -285v52v9.5t-1 5t-3 3t-6 0.5q-8 0 -10 -3t-2 -15v-52
q0 -22 12 -22q10 0 10 22zM877 -338h-43v41h43v-41zM1767 -338h-41v41h41v-41z" />
    <glyph glyph-name="periodcentered" unicode="&#xb7;" 
d="M1868 1194l141 27v-105l-256 -49v543l256 47v-105l-141 -26v-113l133 27l-2 -94l-131 -25v-127zM1559 1235l-54 -8v-211l-114 -21v543l135 29q87 17 128 -7.5t50 -97.5q8 -99 -24 -154t-121 -73zM924 903l-111 -20v438l-82 -16v102l346 68l88 -224l76 258l123 23
l-137 -397v-172l-115 -21v176l-102 242l-86 -19v-438zM1532 1479l-29 -4v-160l37 6q63 11 49 119q-5 45 -57 39zM1905 637l-9 399l121 25l-8 -406zM1726 453q-62 -11 -99.5 7.5t-45.5 57.5q-3 39 0 84l100 21q0 -42 2 -50q5 -23 39 -20q30 6 27 41q-1 13 -10 28t-17.5 24.5
t-33.5 35.5l-43 39q-40 37 -54.5 70.5t-13.5 82.5q3 109 123 132q58 11 98.5 -4t50.5 -62q4 -40 2 -63l-102 -21q0 32 -8.5 44.5t-30.5 8.5q-25 -5 -22 -35q0 -6 1 -10.5t2 -8.5t4 -8.5t5 -7t8 -8.5l9.5 -9.5l13 -13t16.5 -15.5l37 -39q36 -36 53 -67.5t21 -74.5
q3 -72 -27 -106.5t-105 -52.5zM1415 942l109 21v-89l-109 -24v92zM1241 588l-76 -15v-223l-112 -20v540l112 25l-2 -219l78 16l4 215l111 23v-541l-115 -22v221zM926 743v-438l-113 -20v436l-80 -16v104l273 53v-104zM1415 809l109 18v-405l-109 -23v410zM1905 588l108 22
l-2 -96l-106 -20v94zM1937 262h68v-59h-68v59zM473 156v-121q0 -54 -21.5 -77.5t-82.5 -23.5h-82v318h82q62 0 83 -22t21 -74zM1434 252l-66 -318h-68l-65 318h72l10 -55q7 -44 18 -131q2 29 19 131l10 55h70zM356 201v-215h9q21 0 29 10.5t7 36.5v123q0 25 -7.5 35
t-26.5 10h-11zM602 20h64v-20q0 -35 -19.5 -51.5t-64.5 -16.5q-50 0 -66 19.5t-16 71.5v67q0 55 17 74.5t67 19.5q51 0 66.5 -21t15.5 -77v-43h-99v-35q0 -17 3 -21.5t12 -4.5q20 0 20 22v16zM760 127v-193h-68v248h56l6 -16q34 18 61 18q28 0 37 -18q38 18 63 18
q26 0 36 -13t10 -52v-185h-66v175q0 22 -12 22q-5 0 -21 -4v-193h-65v175q0 22 -15 22q-6 0 -22 -4zM1075 -68q-53 0 -69.5 25.5t-16.5 93.5v19q0 66 17.5 90t68.5 24q53 0 69.5 -24.5t16.5 -89.5v-19q0 -69 -17 -94t-69 -25zM1513 184q53 0 67.5 -20.5t14.5 -77.5v-43h-100
v-35q0 -17 3.5 -21.5t14.5 -4.5q19 0 19 22v16h63v-20q0 -35 -19 -51.5t-65 -16.5q-50 0 -65.5 19.5t-15.5 71.5v67q0 56 16 75t67 19zM1681 182l5 -24q23 26 45 26v-65q-14 0 -41 -10v-175h-66v248h57zM1915 4v-2q0 -34 -22 -52t-62 -18q-42 0 -62 18.5t-20 61.5v8h59v-6
q0 -30 23 -30q20 0 20 18q0 14 -20 23l-37 20q-45 25 -45 68v2q0 69 78 69q84 0 84 -80v-6h-60v2q0 19 -4 26t-16 7q-16 0 -16 -14q0 -20 20 -31l35 -18q45 -22 45 -66zM2120 -68q-55 0 -71.5 25.5t-16.5 93.5v19q0 66 17.5 90t70.5 24t68.5 -24t15.5 -90v-19
q0 -69 -16.5 -94t-67.5 -25zM2300 127v-193h-68v248h58l2 -16q38 18 61 18q25 0 36 -13.5t11 -51.5v-185h-67v175q0 22 -13 22q-4 0 -20 -4zM2005 -66h-68v248h68v-248zM567 115v-29h35v29q0 22 -18 22q-17 0 -17 -22zM1495 86h37v29q0 22 -16 22q-21 0 -21 -22v-29z
M1057 98v-82q0 -17 4 -23.5t14 -6.5q12 0 15.5 6.5t3.5 25.5v80q0 19 -3.5 26t-15.5 7q-10 0 -14 -7t-4 -26zM2099 98v-82q0 -17 4.5 -23.5t16.5 -6.5t15 6t3 26v80q0 20 -3 26.5t-15 6.5t-16.5 -7t-4.5 -26zM1499 -178q16 0 22.5 -9t6.5 -34v-117h-41v111q0 14 -8 14
q-3 0 -7.5 -1t-7.5 -1v-123h-43v209h41v-59q23 10 37 10zM1589 -168h-43v39h43v-39zM2177 -186v57h45v-209h-37l-4 10q-22 -12 -37 -12q-18 0 -25.5 10t-7.5 37v60q0 33 8 44t27 11q11 0 31 -8zM2279 -168h-41v39h41v-39zM893 -158h45v-22h16v-33h-16v-78v-7.5t1 -5t3 -3
t6 -0.5h6v-31h-20q-28 0 -34.5 11t-6.5 46v68h-12v33h12v22zM1348 -158h41v-22h18v-33h-18v-78q0 -16 12 -16h6v-31h-21q-27 0 -32.5 10.5t-5.5 46.5v68h-13v33h13v22zM1913 -158h43v-22h18v-33h-18v-78v-7.5t1 -5t3 -3t6 -0.5h8v-31h-22q-15 0 -22.5 2.5t-11.5 10.5
t-4.5 16t-0.5 28v68h-12v33h12v22zM1167 -178q19 0 26 -10.5t7 -38.5v-56q0 -34 -8 -45.5t-25 -11.5q-19 0 -30 8v-59h-45v211h36l2 -10q22 12 37 12zM1272 -178q33 0 43 -14t10 -52v-26h-63v-23v-7.5t1 -5t3 -3t6 -0.5q10 0 10 12v14h43v-14q0 -23 -12 -33t-41 -10
q-34 0 -44.5 12t-10.5 45v41q0 36 11.5 50t43.5 14zM1661 -242l22 -12q29 -13 29 -43q0 -43 -53 -43q-27 0 -40 11t-13 38v8h36v-4q0 -20 17 -20q12 0 12 10t-12 16l-25 13q-28 12 -28 43q0 47 51 47q53 0 53 -53v-2h-39q0 22 -12 22t-12 -10t14 -21zM1839 -242l23 -12
q28 -12 28 -43q0 -43 -55 -43q-27 0 -38 11t-11 38v8h35v-4q0 -20 14 -20q12 0 12 10t-12 16l-20 13q-31 12 -31 43q0 47 49 47q55 0 55 -53v-2h-37q0 22 -16 22q-12 0 -12 -10t16 -21zM2355 -178q33 0 43 -16t10 -58v-10q0 -45 -10.5 -61.5t-42.5 -16.5q-34 0 -44.5 16.5
t-10.5 59.5v12q0 43 10.5 58.5t44.5 15.5zM395 -180l17 -92l10 92h43l-29 -158h-41l-20 88l-17 -88h-43l-28 158h43l10 -92l18 92h37zM580 -180l16 -92l10 92h43l-31 -158h-40l-21 88l-18 -88h-41l-27 158h43l8 -92l17 92h41zM778 -272l10 92h46l-29 -158h-45l-19 88
l-18 -88h-41l-29 158h43l11 -92l16 92h39zM1024 -244l16 64h41l-59 -211h-39l16 53l-38 158h43l10 -66q4 -15 6 -35q4 36 4 37zM1589 -338h-43v158h43v-158zM2052 -303v123h43v-158h-35l-4 8q-17 -10 -39 -10q-30 0 -30 41v119h43v-113q0 -14 8 -14t14 4zM2279 -338h-41v158
h41v-158zM1262 -244h22v19q0 14 -12 14q-10 0 -10 -14v-19zM2177 -303v88q-1 0 -4 1t-6 1q-10 0 -10 -20v-54q0 -20 10 -20q2 0 10 4zM1157 -287v54q0 12 -2 15t-8 3h-10v-90q1 0 4 -1t6 -1q10 0 10 20zM2365 -285v52v9.5t-1 5t-3 3t-6 0.5q-8 0 -10 -3t-2 -15v-52
q0 -22 12 -22q10 0 10 22zM877 -338h-43v41h43v-41zM1767 -338h-41v41h41v-41z" />
    <glyph glyph-name="questiondown" unicode="&#xbf;" 
d="M1868 1194l141 27v-105l-256 -49v543l256 47v-105l-141 -26v-113l133 27l-2 -94l-131 -25v-127zM1559 1235l-54 -8v-211l-114 -21v543l135 29q87 17 128 -7.5t50 -97.5q8 -99 -24 -154t-121 -73zM924 903l-111 -20v438l-82 -16v102l346 68l88 -224l76 258l123 23
l-137 -397v-172l-115 -21v176l-102 242l-86 -19v-438zM1532 1479l-29 -4v-160l37 6q63 11 49 119q-5 45 -57 39zM1905 637l-9 399l121 25l-8 -406zM1726 453q-62 -11 -99.5 7.5t-45.5 57.5q-3 39 0 84l100 21q0 -42 2 -50q5 -23 39 -20q30 6 27 41q-1 13 -10 28t-17.5 24.5
t-33.5 35.5l-43 39q-40 37 -54.5 70.5t-13.5 82.5q3 109 123 132q58 11 98.5 -4t50.5 -62q4 -40 2 -63l-102 -21q0 32 -8.5 44.5t-30.5 8.5q-25 -5 -22 -35q0 -6 1 -10.5t2 -8.5t4 -8.5t5 -7t8 -8.5l9.5 -9.5l13 -13t16.5 -15.5l37 -39q36 -36 53 -67.5t21 -74.5
q3 -72 -27 -106.5t-105 -52.5zM1415 942l109 21v-89l-109 -24v92zM1241 588l-76 -15v-223l-112 -20v540l112 25l-2 -219l78 16l4 215l111 23v-541l-115 -22v221zM926 743v-438l-113 -20v436l-80 -16v104l273 53v-104zM1415 809l109 18v-405l-109 -23v410zM1905 588l108 22
l-2 -96l-106 -20v94zM1937 262h68v-59h-68v59zM473 156v-121q0 -54 -21.5 -77.5t-82.5 -23.5h-82v318h82q62 0 83 -22t21 -74zM1434 252l-66 -318h-68l-65 318h72l10 -55q7 -44 18 -131q2 29 19 131l10 55h70zM356 201v-215h9q21 0 29 10.5t7 36.5v123q0 25 -7.5 35
t-26.5 10h-11zM602 20h64v-20q0 -35 -19.5 -51.5t-64.5 -16.5q-50 0 -66 19.5t-16 71.5v67q0 55 17 74.5t67 19.5q51 0 66.5 -21t15.5 -77v-43h-99v-35q0 -17 3 -21.5t12 -4.5q20 0 20 22v16zM760 127v-193h-68v248h56l6 -16q34 18 61 18q28 0 37 -18q38 18 63 18
q26 0 36 -13t10 -52v-185h-66v175q0 22 -12 22q-5 0 -21 -4v-193h-65v175q0 22 -15 22q-6 0 -22 -4zM1075 -68q-53 0 -69.5 25.5t-16.5 93.5v19q0 66 17.5 90t68.5 24q53 0 69.5 -24.5t16.5 -89.5v-19q0 -69 -17 -94t-69 -25zM1513 184q53 0 67.5 -20.5t14.5 -77.5v-43h-100
v-35q0 -17 3.5 -21.5t14.5 -4.5q19 0 19 22v16h63v-20q0 -35 -19 -51.5t-65 -16.5q-50 0 -65.5 19.5t-15.5 71.5v67q0 56 16 75t67 19zM1681 182l5 -24q23 26 45 26v-65q-14 0 -41 -10v-175h-66v248h57zM1915 4v-2q0 -34 -22 -52t-62 -18q-42 0 -62 18.5t-20 61.5v8h59v-6
q0 -30 23 -30q20 0 20 18q0 14 -20 23l-37 20q-45 25 -45 68v2q0 69 78 69q84 0 84 -80v-6h-60v2q0 19 -4 26t-16 7q-16 0 -16 -14q0 -20 20 -31l35 -18q45 -22 45 -66zM2120 -68q-55 0 -71.5 25.5t-16.5 93.5v19q0 66 17.5 90t70.5 24t68.5 -24t15.5 -90v-19
q0 -69 -16.5 -94t-67.5 -25zM2300 127v-193h-68v248h58l2 -16q38 18 61 18q25 0 36 -13.5t11 -51.5v-185h-67v175q0 22 -13 22q-4 0 -20 -4zM2005 -66h-68v248h68v-248zM567 115v-29h35v29q0 22 -18 22q-17 0 -17 -22zM1495 86h37v29q0 22 -16 22q-21 0 -21 -22v-29z
M1057 98v-82q0 -17 4 -23.5t14 -6.5q12 0 15.5 6.5t3.5 25.5v80q0 19 -3.5 26t-15.5 7q-10 0 -14 -7t-4 -26zM2099 98v-82q0 -17 4.5 -23.5t16.5 -6.5t15 6t3 26v80q0 20 -3 26.5t-15 6.5t-16.5 -7t-4.5 -26zM1499 -178q16 0 22.5 -9t6.5 -34v-117h-41v111q0 14 -8 14
q-3 0 -7.5 -1t-7.5 -1v-123h-43v209h41v-59q23 10 37 10zM1589 -168h-43v39h43v-39zM2177 -186v57h45v-209h-37l-4 10q-22 -12 -37 -12q-18 0 -25.5 10t-7.5 37v60q0 33 8 44t27 11q11 0 31 -8zM2279 -168h-41v39h41v-39zM893 -158h45v-22h16v-33h-16v-78v-7.5t1 -5t3 -3
t6 -0.5h6v-31h-20q-28 0 -34.5 11t-6.5 46v68h-12v33h12v22zM1348 -158h41v-22h18v-33h-18v-78q0 -16 12 -16h6v-31h-21q-27 0 -32.5 10.5t-5.5 46.5v68h-13v33h13v22zM1913 -158h43v-22h18v-33h-18v-78v-7.5t1 -5t3 -3t6 -0.5h8v-31h-22q-15 0 -22.5 2.5t-11.5 10.5
t-4.5 16t-0.5 28v68h-12v33h12v22zM1167 -178q19 0 26 -10.5t7 -38.5v-56q0 -34 -8 -45.5t-25 -11.5q-19 0 -30 8v-59h-45v211h36l2 -10q22 12 37 12zM1272 -178q33 0 43 -14t10 -52v-26h-63v-23v-7.5t1 -5t3 -3t6 -0.5q10 0 10 12v14h43v-14q0 -23 -12 -33t-41 -10
q-34 0 -44.5 12t-10.5 45v41q0 36 11.5 50t43.5 14zM1661 -242l22 -12q29 -13 29 -43q0 -43 -53 -43q-27 0 -40 11t-13 38v8h36v-4q0 -20 17 -20q12 0 12 10t-12 16l-25 13q-28 12 -28 43q0 47 51 47q53 0 53 -53v-2h-39q0 22 -12 22t-12 -10t14 -21zM1839 -242l23 -12
q28 -12 28 -43q0 -43 -55 -43q-27 0 -38 11t-11 38v8h35v-4q0 -20 14 -20q12 0 12 10t-12 16l-20 13q-31 12 -31 43q0 47 49 47q55 0 55 -53v-2h-37q0 22 -16 22q-12 0 -12 -10t16 -21zM2355 -178q33 0 43 -16t10 -58v-10q0 -45 -10.5 -61.5t-42.5 -16.5q-34 0 -44.5 16.5
t-10.5 59.5v12q0 43 10.5 58.5t44.5 15.5zM395 -180l17 -92l10 92h43l-29 -158h-41l-20 88l-17 -88h-43l-28 158h43l10 -92l18 92h37zM580 -180l16 -92l10 92h43l-31 -158h-40l-21 88l-18 -88h-41l-27 158h43l8 -92l17 92h41zM778 -272l10 92h46l-29 -158h-45l-19 88
l-18 -88h-41l-29 158h43l11 -92l16 92h39zM1024 -244l16 64h41l-59 -211h-39l16 53l-38 158h43l10 -66q4 -15 6 -35q4 36 4 37zM1589 -338h-43v158h43v-158zM2052 -303v123h43v-158h-35l-4 8q-17 -10 -39 -10q-30 0 -30 41v119h43v-113q0 -14 8 -14t14 4zM2279 -338h-41v158
h41v-158zM1262 -244h22v19q0 14 -12 14q-10 0 -10 -14v-19zM2177 -303v88q-1 0 -4 1t-6 1q-10 0 -10 -20v-54q0 -20 10 -20q2 0 10 4zM1157 -287v54q0 12 -2 15t-8 3h-10v-90q1 0 4 -1t6 -1q10 0 10 20zM2365 -285v52v9.5t-1 5t-3 3t-6 0.5q-8 0 -10 -3t-2 -15v-52
q0 -22 12 -22q10 0 10 22zM877 -338h-43v41h43v-41zM1767 -338h-41v41h41v-41z" />
    <glyph glyph-name="Agrave" unicode="&#xc0;" 
d="M1868 1194l141 27v-105l-256 -49v543l256 47v-105l-141 -26v-113l133 27l-2 -94l-131 -25v-127zM1559 1235l-54 -8v-211l-114 -21v543l135 29q87 17 128 -7.5t50 -97.5q8 -99 -24 -154t-121 -73zM924 903l-111 -20v438l-82 -16v102l346 68l88 -224l76 258l123 23
l-137 -397v-172l-115 -21v176l-102 242l-86 -19v-438zM1532 1479l-29 -4v-160l37 6q63 11 49 119q-5 45 -57 39zM1905 637l-9 399l121 25l-8 -406zM1726 453q-62 -11 -99.5 7.5t-45.5 57.5q-3 39 0 84l100 21q0 -42 2 -50q5 -23 39 -20q30 6 27 41q-1 13 -10 28t-17.5 24.5
t-33.5 35.5l-43 39q-40 37 -54.5 70.5t-13.5 82.5q3 109 123 132q58 11 98.5 -4t50.5 -62q4 -40 2 -63l-102 -21q0 32 -8.5 44.5t-30.5 8.5q-25 -5 -22 -35q0 -6 1 -10.5t2 -8.5t4 -8.5t5 -7t8 -8.5l9.5 -9.5l13 -13t16.5 -15.5l37 -39q36 -36 53 -67.5t21 -74.5
q3 -72 -27 -106.5t-105 -52.5zM1415 942l109 21v-89l-109 -24v92zM1241 588l-76 -15v-223l-112 -20v540l112 25l-2 -219l78 16l4 215l111 23v-541l-115 -22v221zM926 743v-438l-113 -20v436l-80 -16v104l273 53v-104zM1415 809l109 18v-405l-109 -23v410zM1905 588l108 22
l-2 -96l-106 -20v94zM1937 262h68v-59h-68v59zM473 156v-121q0 -54 -21.5 -77.5t-82.5 -23.5h-82v318h82q62 0 83 -22t21 -74zM1434 252l-66 -318h-68l-65 318h72l10 -55q7 -44 18 -131q2 29 19 131l10 55h70zM356 201v-215h9q21 0 29 10.5t7 36.5v123q0 25 -7.5 35
t-26.5 10h-11zM602 20h64v-20q0 -35 -19.5 -51.5t-64.5 -16.5q-50 0 -66 19.5t-16 71.5v67q0 55 17 74.5t67 19.5q51 0 66.5 -21t15.5 -77v-43h-99v-35q0 -17 3 -21.5t12 -4.5q20 0 20 22v16zM760 127v-193h-68v248h56l6 -16q34 18 61 18q28 0 37 -18q38 18 63 18
q26 0 36 -13t10 -52v-185h-66v175q0 22 -12 22q-5 0 -21 -4v-193h-65v175q0 22 -15 22q-6 0 -22 -4zM1075 -68q-53 0 -69.5 25.5t-16.5 93.5v19q0 66 17.5 90t68.5 24q53 0 69.5 -24.5t16.5 -89.5v-19q0 -69 -17 -94t-69 -25zM1513 184q53 0 67.5 -20.5t14.5 -77.5v-43h-100
v-35q0 -17 3.5 -21.5t14.5 -4.5q19 0 19 22v16h63v-20q0 -35 -19 -51.5t-65 -16.5q-50 0 -65.5 19.5t-15.5 71.5v67q0 56 16 75t67 19zM1681 182l5 -24q23 26 45 26v-65q-14 0 -41 -10v-175h-66v248h57zM1915 4v-2q0 -34 -22 -52t-62 -18q-42 0 -62 18.5t-20 61.5v8h59v-6
q0 -30 23 -30q20 0 20 18q0 14 -20 23l-37 20q-45 25 -45 68v2q0 69 78 69q84 0 84 -80v-6h-60v2q0 19 -4 26t-16 7q-16 0 -16 -14q0 -20 20 -31l35 -18q45 -22 45 -66zM2120 -68q-55 0 -71.5 25.5t-16.5 93.5v19q0 66 17.5 90t70.5 24t68.5 -24t15.5 -90v-19
q0 -69 -16.5 -94t-67.5 -25zM2300 127v-193h-68v248h58l2 -16q38 18 61 18q25 0 36 -13.5t11 -51.5v-185h-67v175q0 22 -13 22q-4 0 -20 -4zM2005 -66h-68v248h68v-248zM567 115v-29h35v29q0 22 -18 22q-17 0 -17 -22zM1495 86h37v29q0 22 -16 22q-21 0 -21 -22v-29z
M1057 98v-82q0 -17 4 -23.5t14 -6.5q12 0 15.5 6.5t3.5 25.5v80q0 19 -3.5 26t-15.5 7q-10 0 -14 -7t-4 -26zM2099 98v-82q0 -17 4.5 -23.5t16.5 -6.5t15 6t3 26v80q0 20 -3 26.5t-15 6.5t-16.5 -7t-4.5 -26zM1499 -178q16 0 22.5 -9t6.5 -34v-117h-41v111q0 14 -8 14
q-3 0 -7.5 -1t-7.5 -1v-123h-43v209h41v-59q23 10 37 10zM1589 -168h-43v39h43v-39zM2177 -186v57h45v-209h-37l-4 10q-22 -12 -37 -12q-18 0 -25.5 10t-7.5 37v60q0 33 8 44t27 11q11 0 31 -8zM2279 -168h-41v39h41v-39zM893 -158h45v-22h16v-33h-16v-78v-7.5t1 -5t3 -3
t6 -0.5h6v-31h-20q-28 0 -34.5 11t-6.5 46v68h-12v33h12v22zM1348 -158h41v-22h18v-33h-18v-78q0 -16 12 -16h6v-31h-21q-27 0 -32.5 10.5t-5.5 46.5v68h-13v33h13v22zM1913 -158h43v-22h18v-33h-18v-78v-7.5t1 -5t3 -3t6 -0.5h8v-31h-22q-15 0 -22.5 2.5t-11.5 10.5
t-4.5 16t-0.5 28v68h-12v33h12v22zM1167 -178q19 0 26 -10.5t7 -38.5v-56q0 -34 -8 -45.5t-25 -11.5q-19 0 -30 8v-59h-45v211h36l2 -10q22 12 37 12zM1272 -178q33 0 43 -14t10 -52v-26h-63v-23v-7.5t1 -5t3 -3t6 -0.5q10 0 10 12v14h43v-14q0 -23 -12 -33t-41 -10
q-34 0 -44.5 12t-10.5 45v41q0 36 11.5 50t43.5 14zM1661 -242l22 -12q29 -13 29 -43q0 -43 -53 -43q-27 0 -40 11t-13 38v8h36v-4q0 -20 17 -20q12 0 12 10t-12 16l-25 13q-28 12 -28 43q0 47 51 47q53 0 53 -53v-2h-39q0 22 -12 22t-12 -10t14 -21zM1839 -242l23 -12
q28 -12 28 -43q0 -43 -55 -43q-27 0 -38 11t-11 38v8h35v-4q0 -20 14 -20q12 0 12 10t-12 16l-20 13q-31 12 -31 43q0 47 49 47q55 0 55 -53v-2h-37q0 22 -16 22q-12 0 -12 -10t16 -21zM2355 -178q33 0 43 -16t10 -58v-10q0 -45 -10.5 -61.5t-42.5 -16.5q-34 0 -44.5 16.5
t-10.5 59.5v12q0 43 10.5 58.5t44.5 15.5zM395 -180l17 -92l10 92h43l-29 -158h-41l-20 88l-17 -88h-43l-28 158h43l10 -92l18 92h37zM580 -180l16 -92l10 92h43l-31 -158h-40l-21 88l-18 -88h-41l-27 158h43l8 -92l17 92h41zM778 -272l10 92h46l-29 -158h-45l-19 88
l-18 -88h-41l-29 158h43l11 -92l16 92h39zM1024 -244l16 64h41l-59 -211h-39l16 53l-38 158h43l10 -66q4 -15 6 -35q4 36 4 37zM1589 -338h-43v158h43v-158zM2052 -303v123h43v-158h-35l-4 8q-17 -10 -39 -10q-30 0 -30 41v119h43v-113q0 -14 8 -14t14 4zM2279 -338h-41v158
h41v-158zM1262 -244h22v19q0 14 -12 14q-10 0 -10 -14v-19zM2177 -303v88q-1 0 -4 1t-6 1q-10 0 -10 -20v-54q0 -20 10 -20q2 0 10 4zM1157 -287v54q0 12 -2 15t-8 3h-10v-90q1 0 4 -1t6 -1q10 0 10 20zM2365 -285v52v9.5t-1 5t-3 3t-6 0.5q-8 0 -10 -3t-2 -15v-52
q0 -22 12 -22q10 0 10 22zM877 -338h-43v41h43v-41zM1767 -338h-41v41h41v-41z" />
    <glyph glyph-name="Aacute" unicode="&#xc1;" 
d="M1868 1194l141 27v-105l-256 -49v543l256 47v-105l-141 -26v-113l133 27l-2 -94l-131 -25v-127zM1559 1235l-54 -8v-211l-114 -21v543l135 29q87 17 128 -7.5t50 -97.5q8 -99 -24 -154t-121 -73zM924 903l-111 -20v438l-82 -16v102l346 68l88 -224l76 258l123 23
l-137 -397v-172l-115 -21v176l-102 242l-86 -19v-438zM1532 1479l-29 -4v-160l37 6q63 11 49 119q-5 45 -57 39zM1905 637l-9 399l121 25l-8 -406zM1726 453q-62 -11 -99.5 7.5t-45.5 57.5q-3 39 0 84l100 21q0 -42 2 -50q5 -23 39 -20q30 6 27 41q-1 13 -10 28t-17.5 24.5
t-33.5 35.5l-43 39q-40 37 -54.5 70.5t-13.5 82.5q3 109 123 132q58 11 98.5 -4t50.5 -62q4 -40 2 -63l-102 -21q0 32 -8.5 44.5t-30.5 8.5q-25 -5 -22 -35q0 -6 1 -10.5t2 -8.5t4 -8.5t5 -7t8 -8.5l9.5 -9.5l13 -13t16.5 -15.5l37 -39q36 -36 53 -67.5t21 -74.5
q3 -72 -27 -106.5t-105 -52.5zM1415 942l109 21v-89l-109 -24v92zM1241 588l-76 -15v-223l-112 -20v540l112 25l-2 -219l78 16l4 215l111 23v-541l-115 -22v221zM926 743v-438l-113 -20v436l-80 -16v104l273 53v-104zM1415 809l109 18v-405l-109 -23v410zM1905 588l108 22
l-2 -96l-106 -20v94zM1937 262h68v-59h-68v59zM473 156v-121q0 -54 -21.5 -77.5t-82.5 -23.5h-82v318h82q62 0 83 -22t21 -74zM1434 252l-66 -318h-68l-65 318h72l10 -55q7 -44 18 -131q2 29 19 131l10 55h70zM356 201v-215h9q21 0 29 10.5t7 36.5v123q0 25 -7.5 35
t-26.5 10h-11zM602 20h64v-20q0 -35 -19.5 -51.5t-64.5 -16.5q-50 0 -66 19.5t-16 71.5v67q0 55 17 74.5t67 19.5q51 0 66.5 -21t15.5 -77v-43h-99v-35q0 -17 3 -21.5t12 -4.5q20 0 20 22v16zM760 127v-193h-68v248h56l6 -16q34 18 61 18q28 0 37 -18q38 18 63 18
q26 0 36 -13t10 -52v-185h-66v175q0 22 -12 22q-5 0 -21 -4v-193h-65v175q0 22 -15 22q-6 0 -22 -4zM1075 -68q-53 0 -69.5 25.5t-16.5 93.5v19q0 66 17.5 90t68.5 24q53 0 69.5 -24.5t16.5 -89.5v-19q0 -69 -17 -94t-69 -25zM1513 184q53 0 67.5 -20.5t14.5 -77.5v-43h-100
v-35q0 -17 3.5 -21.5t14.5 -4.5q19 0 19 22v16h63v-20q0 -35 -19 -51.5t-65 -16.5q-50 0 -65.5 19.5t-15.5 71.5v67q0 56 16 75t67 19zM1681 182l5 -24q23 26 45 26v-65q-14 0 -41 -10v-175h-66v248h57zM1915 4v-2q0 -34 -22 -52t-62 -18q-42 0 -62 18.5t-20 61.5v8h59v-6
q0 -30 23 -30q20 0 20 18q0 14 -20 23l-37 20q-45 25 -45 68v2q0 69 78 69q84 0 84 -80v-6h-60v2q0 19 -4 26t-16 7q-16 0 -16 -14q0 -20 20 -31l35 -18q45 -22 45 -66zM2120 -68q-55 0 -71.5 25.5t-16.5 93.5v19q0 66 17.5 90t70.5 24t68.5 -24t15.5 -90v-19
q0 -69 -16.5 -94t-67.5 -25zM2300 127v-193h-68v248h58l2 -16q38 18 61 18q25 0 36 -13.5t11 -51.5v-185h-67v175q0 22 -13 22q-4 0 -20 -4zM2005 -66h-68v248h68v-248zM567 115v-29h35v29q0 22 -18 22q-17 0 -17 -22zM1495 86h37v29q0 22 -16 22q-21 0 -21 -22v-29z
M1057 98v-82q0 -17 4 -23.5t14 -6.5q12 0 15.5 6.5t3.5 25.5v80q0 19 -3.5 26t-15.5 7q-10 0 -14 -7t-4 -26zM2099 98v-82q0 -17 4.5 -23.5t16.5 -6.5t15 6t3 26v80q0 20 -3 26.5t-15 6.5t-16.5 -7t-4.5 -26zM1499 -178q16 0 22.5 -9t6.5 -34v-117h-41v111q0 14 -8 14
q-3 0 -7.5 -1t-7.5 -1v-123h-43v209h41v-59q23 10 37 10zM1589 -168h-43v39h43v-39zM2177 -186v57h45v-209h-37l-4 10q-22 -12 -37 -12q-18 0 -25.5 10t-7.5 37v60q0 33 8 44t27 11q11 0 31 -8zM2279 -168h-41v39h41v-39zM893 -158h45v-22h16v-33h-16v-78v-7.5t1 -5t3 -3
t6 -0.5h6v-31h-20q-28 0 -34.5 11t-6.5 46v68h-12v33h12v22zM1348 -158h41v-22h18v-33h-18v-78q0 -16 12 -16h6v-31h-21q-27 0 -32.5 10.5t-5.5 46.5v68h-13v33h13v22zM1913 -158h43v-22h18v-33h-18v-78v-7.5t1 -5t3 -3t6 -0.5h8v-31h-22q-15 0 -22.5 2.5t-11.5 10.5
t-4.5 16t-0.5 28v68h-12v33h12v22zM1167 -178q19 0 26 -10.5t7 -38.5v-56q0 -34 -8 -45.5t-25 -11.5q-19 0 -30 8v-59h-45v211h36l2 -10q22 12 37 12zM1272 -178q33 0 43 -14t10 -52v-26h-63v-23v-7.5t1 -5t3 -3t6 -0.5q10 0 10 12v14h43v-14q0 -23 -12 -33t-41 -10
q-34 0 -44.5 12t-10.5 45v41q0 36 11.5 50t43.5 14zM1661 -242l22 -12q29 -13 29 -43q0 -43 -53 -43q-27 0 -40 11t-13 38v8h36v-4q0 -20 17 -20q12 0 12 10t-12 16l-25 13q-28 12 -28 43q0 47 51 47q53 0 53 -53v-2h-39q0 22 -12 22t-12 -10t14 -21zM1839 -242l23 -12
q28 -12 28 -43q0 -43 -55 -43q-27 0 -38 11t-11 38v8h35v-4q0 -20 14 -20q12 0 12 10t-12 16l-20 13q-31 12 -31 43q0 47 49 47q55 0 55 -53v-2h-37q0 22 -16 22q-12 0 -12 -10t16 -21zM2355 -178q33 0 43 -16t10 -58v-10q0 -45 -10.5 -61.5t-42.5 -16.5q-34 0 -44.5 16.5
t-10.5 59.5v12q0 43 10.5 58.5t44.5 15.5zM395 -180l17 -92l10 92h43l-29 -158h-41l-20 88l-17 -88h-43l-28 158h43l10 -92l18 92h37zM580 -180l16 -92l10 92h43l-31 -158h-40l-21 88l-18 -88h-41l-27 158h43l8 -92l17 92h41zM778 -272l10 92h46l-29 -158h-45l-19 88
l-18 -88h-41l-29 158h43l11 -92l16 92h39zM1024 -244l16 64h41l-59 -211h-39l16 53l-38 158h43l10 -66q4 -15 6 -35q4 36 4 37zM1589 -338h-43v158h43v-158zM2052 -303v123h43v-158h-35l-4 8q-17 -10 -39 -10q-30 0 -30 41v119h43v-113q0 -14 8 -14t14 4zM2279 -338h-41v158
h41v-158zM1262 -244h22v19q0 14 -12 14q-10 0 -10 -14v-19zM2177 -303v88q-1 0 -4 1t-6 1q-10 0 -10 -20v-54q0 -20 10 -20q2 0 10 4zM1157 -287v54q0 12 -2 15t-8 3h-10v-90q1 0 4 -1t6 -1q10 0 10 20zM2365 -285v52v9.5t-1 5t-3 3t-6 0.5q-8 0 -10 -3t-2 -15v-52
q0 -22 12 -22q10 0 10 22zM877 -338h-43v41h43v-41zM1767 -338h-41v41h41v-41z" />
    </font>
</defs>
</svg>
